<?xml version="1.0" encoding="UTF-8"?>
<svg width="62px" height="117px" viewBox="0 0 62 117" version="1.1" xmlns="http://www.w3.org/2000/svg" xmlns:xlink="http://www.w3.org/1999/xlink">
    <!-- Generator: Sketch 50 (54983) - http://www.bohemiancoding.com/sketch -->
    <title>arrow-nav</title>
    <desc>Created with Sketch.</desc>
    <defs></defs>
    <g id="Page-1" stroke="none" stroke-width="1" fill="none" fill-rule="evenodd">
        <g id="arrow-nav" fill-rule="nonzero">
            <path d="M0.5,0.5 L0.5,116.5 L58,116.5 C59.9329966,116.5 61.5,114.932997 61.5,113 L61.5,4 C61.5,2.06700338 59.9329966,0.5 58,0.5 L0.5,0.5 Z" id="Rectangle-3" fill="#FFFFFF" transform="translate(31.000000, 58.500000) rotate(-180.000000) translate(-31.000000, -58.500000) "></path>
            <path d="M33.5266504,57.5 L43.4508252,47.2922774 C44.1830583,46.5391234 44.1830583,45.3180195 43.4508252,44.5648655 C42.7185922,43.8117115 41.5314078,43.8117115 40.7991748,44.5648655 L29.5491748,56.1362941 C28.8169417,56.8894481 28.8169417,58.1105519 29.5491748,58.8637059 L40.7991748,70.4351345 C41.5314078,71.1882885 42.7185922,71.1882885 43.4508252,70.4351345 C44.1830583,69.6819805 44.1830583,68.4608766 43.4508252,67.7077226 L33.5266504,57.5 Z" id="arrow-right-simple" fill="#333333" transform="translate(36.500000, 57.500000) scale(-1, 1) translate(-36.500000, -57.500000) "></path>
        </g>
    </g>
</svg>