<?xml version="1.0" encoding="UTF-8"?>
<svg width="1452px" height="682px" viewBox="0 0 1452 682" version="1.1" xmlns="http://www.w3.org/2000/svg" xmlns:xlink="http://www.w3.org/1999/xlink">
    <!-- Generator: Sketch 50 (54983) - http://www.bohemiancoding.com/sketch -->
    <title>Group 2</title>
    <desc>Created with Sketch.</desc>
    <defs></defs>
    <g id="Page-1" stroke="none" stroke-width="1" fill="none" fill-rule="evenodd">
        <g id="Group-2">
            <rect id="Rectangle" fill="#FFFFFF" x="0" y="0" width="682" height="682" rx="40"></rect>
            <rect id="Rectangle-Copy" fill="#FFFFFF" x="770" y="0" width="682" height="682" rx="40"></rect>
            <path d="M99.8270721,147.592072 C96.920724,145.685832 95,142.398775 95,138.666 C95,138.612095 95.0004006,138.558283 95.0011988,138.504566 C94.959627,135.720798 95.9992274,132.923773 98.12,130.803 L140.787,88.136 C144.947,83.976 151.709,83.976 155.869,88.136 C160.029,92.296 160.029,99.059 155.869,103.219 L131.088,128 L233.667,128 C239.555,128 244.334,132.778 244.334,138.666 C244.334,144.554 239.555,149.333 233.667,149.333 L131.754687,149.333 L155.869,173.448 C160.029,177.608 160.029,184.371 155.869,188.531 C153.8,190.621 151.069,191.667 148.339,191.667 C145.608,191.667 142.877,190.621 140.787,188.552 L99.8270721,147.592072 Z" id="Combined-Shape" fill="#8FCA00"></path>
            <path d="M548.923,149.333 L447.666,149.333 C441.778,149.333 437,144.554 437,138.666 C437,132.778 441.778,128 447.666,128 L549.589706,128 L524.808,103.219 C520.648,99.059 520.648,92.296 524.808,88.136 C528.968,83.976 535.731,83.976 539.891,88.136 L581.473407,129.719382 C584.397939,131.62209 586.333,134.91932 586.333,138.666 C586.333,142.991868 583.753426,146.719128 580.049679,148.39238 L539.891,188.552 C537.8,190.621 535.069,191.667 532.339,191.667 C529.608,191.667 526.877,190.621 524.787,188.552 C520.627,184.392 520.627,177.629 524.787,173.469 L548.923,149.333 Z" id="Combined-Shape" fill="#8FCA00"></path>
            <path d="M195.763,376.797 C186.888,376.797 178.078,380.168 171.464,386.781 C167.304,390.941 167.304,397.704 171.464,401.864 L323.4,553.8 C337.48,567.901 356.232,575.667 376.179,575.667 L426.163,575.667 C479.091,575.667 522.163,532.595 522.163,479.667 L522.163,362.333 C522.163,350.579 512.584,341 500.83,341 C489.075,341 479.496,350.579 479.496,362.333 L479.496,373 C479.496,378.888 474.718,383.667 468.83,383.667 C462.942,383.667 458.163,378.888 458.163,373 L458.163,341 C458.163,329.245 448.584,319.667 436.83,319.667 C425.075,319.667 415.496,329.245 415.496,341 L415.496,373 C415.496,378.888 410.718,383.667 404.83,383.667 C398.942,383.667 394.163,378.888 394.163,373 L394.163,191.667 C394.163,179.912 384.584,170.333 372.83,170.333 C361.075,170.333 351.496,179.912 351.496,191.667 L351.496,373 C351.496,378.888 346.718,383.667 340.83,383.667 C334.942,383.667 330.163,378.888 330.163,373 L330.163,213 C330.163,201.245 320.584,191.667 308.83,191.667 C297.075,191.667 287.496,201.245 287.496,213 L287.496,415.667 C287.496,419.699 285.214,423.389 281.608,425.203 C278.003,427.016 273.651,426.632 270.43,424.2 L216.307,383.603 C210.206,379.037 202.974,376.797 195.763,376.797 Z M426.163,597 L376.179,597 C350.536,597 326.43,587.016 308.296,568.883 L156.36,416.947 C143.88,404.467 143.88,384.179 156.36,371.699 C175.816,352.243 207.091,350.045 229.086,366.536 L266.163,394.333 L266.163,213 C266.163,189.469 285.299,170.333 308.83,170.333 C317.619,170.333 325.768,173 332.552,177.544 C338.398,160.947 354.248,149 372.83,149 C396.36,149 415.496,168.136 415.496,191.667 L415.496,304.072 C421.768,300.424 429.064,298.333 436.83,298.333 C455.411,298.333 471.262,310.28 477.107,326.877 C483.891,322.333 492.062,319.667 500.83,319.667 C524.36,319.667 543.496,338.803 543.496,362.333 L543.496,479.667 C543.496,544.371 490.867,597 426.163,597 Z" id="Fill-7" fill="#333333"></path>
            <g id="Group" transform="translate(855.000000, 149.000000)">
                <g id="Group-5">
                    <path d="" id="Path-2" stroke="#979797"></path>
                    <rect id="Rectangle-path" fill="#8FCA00" fill-rule="nonzero" x="164.571" y="82.286" width="237.714" height="164.571"></rect>
                    <path d="M502.857,0 L9.143,0 C4.089,0 0,4.089 0,9.143 L0,73.143 L0,256 L0,374.857 C0,379.911 4.089,384 9.143,384 L502.857,384 C507.91,384 512,379.911 512,374.857 L512,256 L512,73.143 L512,9.143 C512,4.089 507.911,0 502.857,0 Z M18.286,82.286 L100.572,82.286 L100.572,246.857 L18.286,246.857 L18.286,82.286 Z M18.286,365.714 L18.286,265.143 L109.715,265.143 C114.768,265.143 118.858,261.054 118.858,256 L118.858,73.143 C118.858,68.09 114.769,64 109.715,64 L18.286,64 L18.286,18.286 L493.715,18.286 L493.715,64 L457.144,64 C452.091,64 448.001,68.089 448.001,73.143 L448.001,256 C448.001,261.053 452.09,265.143 457.144,265.143 L493.715,265.143 L493.715,365.714 L18.286,365.714 Z M493.714,246.857 L466.285,246.857 L466.285,82.286 L493.714,82.286 L493.714,246.857 Z" id="Shape" fill="#333333" fill-rule="nonzero"></path>
                    <path d="M265.143,301.714 C255.063,301.714 246.857,309.919 246.857,320 C246.857,330.08 255.062,338.286 265.143,338.286 C275.223,338.286 283.429,330.081 283.429,320 C283.429,309.92 275.223,301.714 265.143,301.714 Z" id="Shape" fill="#333333" fill-rule="nonzero"></path>
                    <path d="M411.429,64 L155.429,64 C150.376,64 146.286,68.089 146.286,73.143 L146.286,256 C146.286,261.053 150.375,265.143 155.429,265.143 L411.429,265.143 C416.482,265.143 420.572,261.054 420.572,256 L420.572,73.143 C420.571,68.089 416.482,64 411.429,64 Z M402.286,246.857 L164.571,246.857 L164.571,82.286 L402.286,82.286 L402.286,246.857 Z" id="Shape" fill="#333333" fill-rule="nonzero"></path>
                    <rect id="Rectangle-path" fill="#333333" fill-rule="nonzero" x="155.429" y="310.857" width="27.429" height="18.286"></rect>
                    <rect id="Rectangle-path" fill="#333333" fill-rule="nonzero" x="201.143" y="310.857" width="27.429" height="18.286"></rect>
                    <rect id="Rectangle-path" fill="#333333" fill-rule="nonzero" x="301.714" y="310.857" width="27.429" height="18.286"></rect>
                    <rect id="Rectangle-path" fill="#333333" fill-rule="nonzero" x="347.429" y="310.857" width="27.429" height="18.286"></rect>
                </g>
            </g>
        </g>
    </g>
</svg>