<?xml version="1.0" encoding="utf-8"?>
<!-- Generator: Adobe Illustrator 22.1.0, SVG Export Plug-In . SVG Version: 6.00 Build 0)  -->
<svg version="1.1" id="Capa_1" xmlns="http://www.w3.org/2000/svg" xmlns:xlink="http://www.w3.org/1999/xlink" x="0px" y="0px"
	 viewBox="0 0 262 393" style="enable-background:new 0 0 262 393;" xml:space="preserve">
<style type="text/css">
	.st0{
		fill-rule:evenodd;
		clip-rule:evenodd;
		fill:#FFFFFF;
	}
</style>
<g>
	<path class="st0" d="M170.9,212.1c0-7.5,6.1-13.5,13.6-13.5c7.5,0,13.6,6,13.6,13.5c0,7.5-6.1,13.5-13.6,13.5
		C176.9,225.6,170.9,219.6,170.9,212.1z M68.7,165.3h45l2.7-12.5l13.8-66.7c4.2-18.9,8.1-35.3,22.6-49.1c9.9-9.5,22.8-14.9,36.5-15
		c0,0,5.4,0.1,8.8,0.5l-1,4.5c0,0-7.4-1-11.9,0c-5.9,1.4-9.3,3.8-13.4,7.9c-7.5,7.5-10.2,18.9-15,39.3l-16.8,79.3l-2.5,11.9h50
		l-1.9,6.8h-49.6L107,305.9c-4.2,18.9-8.1,35.3-22.6,49.1c-10,9.6-22.9,15-36.8,15l-4.7-0.1l0.8-4.4c1.4,0,3.1,0,4.3-0.2
		c7.6-1.1,12.9-3.7,17.3-9.3c7.1-9.1,10.2-17.8,15.1-38.2l31.6-145.7H66.8L68.7,165.3z"/>
</g>
</svg>
