<?xml version="1.0" encoding="UTF-8"?>
<svg width="182px" height="265px" viewBox="0 0 182 265" version="1.1" xmlns="http://www.w3.org/2000/svg" xmlns:xlink="http://www.w3.org/1999/xlink">
    <!-- Generator: Sketch 54.1 (76490) - https://sketchapp.com -->
    <title>logo/falabella</title>
    <desc>Created with Sketch.</desc>
    <g id="Page-1" stroke="none" stroke-width="1" fill="none" fill-rule="evenodd">
        <g id="logo/falabella">
            <g id="logo-falabella-square">
                <rect id="Rectangle" fill="#AAD500" x="0" y="0" width="182" height="265"></rect>
                <path d="M51.7793582,115.685361 L82.0670349,115.685361 L83.8905925,107.928999 L93.1712101,66.4326176 C96.024446,54.6866488 98.6486393,44.4528447 108.396801,35.8746002 C115.047145,29.9407816 123.726441,26.5781395 132.986789,26.5464809 C132.986789,26.5464809 136.607554,26.5781395 138.889197,26.8655501 L138.216934,29.6490257 C138.216934,29.6490257 133.244209,29.0040589 130.197064,29.6490257 C126.217533,30.5230519 123.916972,32.0426656 121.15765,34.5641816 C116.088985,39.2229648 114.262724,46.3051844 111.027075,58.9816683 L99.6918304,108.306419 L97.9838076,115.685361 L131.678071,115.685361 L130.399756,119.92265 L96.9852088,119.92265 L77.6132032,203.098535 C74.7721289,214.83271 72.1256394,225.074583 62.403152,233.657794 C55.6920006,239.608373 46.9782466,242.977223 37.6476315,242.977223 L34.4802221,242.916389 L35.0261408,240.19623 C35.9963626,240.224785 37.0881999,240.19623 37.9557242,240.079528 C43.0743875,239.404144 46.6154269,237.793279 49.6227091,234.276689 C54.4143617,228.631523 56.5129056,223.21107 59.7634189,210.542656 L81.07249,119.92265 L50.5091514,119.92265 L51.7793582,115.685361 Z M120.611732,144.780253 C120.611732,140.141334 124.696663,136.383891 129.751816,136.383891 C134.794132,136.383891 138.889197,140.141334 138.889197,144.780253 C138.889197,149.422276 134.794132,153.185306 129.751816,153.185306 C124.696663,153.185306 120.611732,149.422276 120.611732,144.780253 L120.611732,144.780253 Z" id="Fill-2" fill="#FEFEFE"></path>
            </g>
        </g>
    </g>
</svg>