<?xml version="1.0" encoding="UTF-8"?>
<svg width="16px" height="16px" viewBox="0 0 16 16" version="1.1" xmlns="http://www.w3.org/2000/svg" xmlns:xlink="http://www.w3.org/1999/xlink">
    <!-- Generator: Sketch 50 (54983) - http://www.bohemiancoding.com/sketch -->
    <title>Fill 1</title>
    <desc>Created with Sketch.</desc>
    <defs></defs>
    <g id="Page-1" stroke="none" stroke-width="1" fill="none" fill-rule="evenodd">
        <g id="Artboard" transform="translate(-951.000000, -170.000000)" fill="#8D8D8D" stroke="#8D8D8D" stroke-width="0.5">
            <path d="M953.33375,184.382 L958.92275,178.794 L964.94875,184.819 C965.06475,184.937 965.21975,185 965.38375,185 C965.54875,185 965.70375,184.937 965.81975,184.819 C966.06075,184.579 966.06075,184.189 965.81975,183.948 L959.79375,177.923 L965.38275,172.334 C965.62275,172.094 965.62275,171.703 965.38275,171.463 C965.14875,171.229 964.74375,171.228 964.51175,171.463 L958.92275,177.051 L953.05175,171.181 C952.93575,171.064 952.78075,171 952.61675,171 C952.45175,171 952.29675,171.064 952.18075,171.181 C951.93975,171.421 951.93975,171.812 952.18075,172.052 L958.05075,177.923 L952.46275,183.511 C952.22275,183.751 952.22275,184.142 952.46275,184.382 C952.69575,184.616 953.10175,184.615 953.33375,184.382" id="Fill-1"></path>
        </g>
    </g>
</svg>