<?xml version="1.0" encoding="utf-8"?>
<!-- Generator: Adobe Illustrator 23.0.1, SVG Export Plug-In . SVG Version: 6.00 Build 0)  -->
<svg version="1.1" id="Capa_1" xmlns="http://www.w3.org/2000/svg" xmlns:xlink="http://www.w3.org/1999/xlink" x="0px" y="0px"
	 viewBox="0 0 68 68" style="enable-background:new 0 0 68 68;" xml:space="preserve">
<style type="text/css">
	.st0{fill:none;stroke:#000000;stroke-width:1.5;stroke-linecap:round;stroke-miterlimit:10;}
	.st1{fill:none;stroke:#000000;stroke-width:1.5;stroke-linecap:round;stroke-linejoin:round;stroke-miterlimit:10;}
	.st2{fill:#FFFFFF;stroke:#000000;stroke-width:1.5;stroke-linecap:round;stroke-linejoin:round;stroke-miterlimit:10;}
	.st3{fill:#FFFFFF;stroke:#000000;stroke-width:1.5;stroke-linecap:round;stroke-miterlimit:10;}
	.st4{stroke:#FFFFFF;stroke-linecap:round;stroke-linejoin:round;stroke-miterlimit:10;}
	.st5{fill:none;stroke:#000000;stroke-miterlimit:10;}
	.st6{fill:none;stroke:#000000;stroke-linecap:round;stroke-linejoin:round;stroke-miterlimit:10;}
	.st7{fill:none;}
	.st8{fill:#FFFFFF;}
	.st9{fill:#323232;}
</style>
<g>
	<path class="st0" d="M-407-143c-15,0-29,0-29,0c-0.6,0-1,0.4-1,1v38c0,0.6,0.4,1,1,1c0,0,3.7,0,9.3,0"/>
	<path class="st0" d="M-407-143c15,0,29,0,29,0c0.6,0,1,0.4,1,1v38c0,0.6-0.4,1-1,1c0,0-3.7,0-9.3,0"/>
	<g>
		<path class="st0" d="M-391-98.9l-5-4c-4.2,0-17.6,0-22,0l-5,4"/>
	</g>
</g>
<g>
	<path class="st0" d="M-407-217c-15,0-29,0-29,0c-0.6,0-1,0.4-1,1v38c0,0.6,0.4,1,1,1c0,0,3.7,0,9.3,0"/>
	<path class="st0" d="M-407-217c15,0,29,0,29,0c0.6,0,1,0.4,1,1v38c0,0.6-0.4,1-1,1c0,0-3.7,0-9.3,0"/>
	<g>
		<path class="st0" d="M-391-172.9l-5-4c-4.2,0-17.6,0-22,0l-5,4"/>
	</g>
</g>
<g>
	<path class="st0" d="M-481-217c-15,0-29,0-29,0c-0.6,0-1,0.4-1,1v38c0,0.6,0.4,1,1,1c0,0,3.7,0,9.3,0"/>
	<path class="st0" d="M-481-217c15,0,29,0,29,0c0.6,0,1,0.4,1,1v38c0,0.6-0.4,1-1,1c0,0-3.7,0-9.3,0"/>
	<g>
		<path class="st0" d="M-465-172.9l-5-4c-4.2,0-17.6,0-22,0l-5,4"/>
	</g>
</g>
<g>
	<path class="st0" d="M-333-217c-15,0-29,0-29,0c-0.6,0-1,0.4-1,1v38c0,0.6,0.4,1,1,1c0,0,3.7,0,9.3,0"/>
	<path class="st0" d="M-333-217c15,0,29,0,29,0c0.6,0,1,0.4,1,1v38c0,0.6-0.4,1-1,1c0,0-3.7,0-9.3,0"/>
	<g>
		<path class="st0" d="M-317-172.9l-5-4c-4.2,0-17.6,0-22,0l-5,4"/>
	</g>
</g>
<path class="st0" d="M-259-217c-15,0-29,0-29,0c-0.6,0-1,0.4-1,1v38c0,0.6,0.4,1,1,1c0,0,3.7,0,9.3,0"/>
<path class="st0" d="M-259-217c15,0,29,0,29,0c0.6,0,1,0.4,1,1v38c0,0.6-0.4,1-1,1c0,0-3.7,0-9.3,0"/>
<g>
	<path class="st0" d="M-243-172.9l-5-4c-4.2,0-17.6,0-22,0l-5,4"/>
</g>
<path class="st0" d="M-165.3-177c5.6,0,9.3,0,9.3,0c0.6,0,1-0.4,1-1v-38c0-0.6-0.4-1-1-1c0,0-14,0-29,0s-29,0-29,0c-0.6,0-1,0.4-1,1
	v38c0,0.6,0.4,1,1,1c0,0,3.7,0,9.3,0"/>
<g>
	<path class="st0" d="M-169-172.9l-5-4c-4.2,0-17.6,0-22,0l-5,4"/>
</g>
<g>
	<path d="M-473.3-194.5c0.2-0.4,0.2-0.9-0.4-1.3c-4.5-2.9-10-2.9-14.5,0c0,0,0,0-0.1,0.1c-0.1,0.1-0.2,0.3-0.3,0.6
		c-0.1,0.3,0,0.6,0.1,0.7c0.1,0.2,0.4,0.4,0.7,0.4c0.2,0,0.5,0,0.6-0.1c3.8-2.6,8.7-2.6,12.4,0c0.5,0.3,0.9,0.1,1.2-0.2
		L-473.3-194.5z"/>
	<path d="M-495.3-198.1c0.1,0.2,0.3,0.2,0.4,0.3c0.3,0.1,0.7,0,1-0.3c7.5-6.1,18.4-6.1,26.3,0l0.1,0.1c0.1,0.1,0.5,0.1,0.8-0.2l0,0
		c0.2-0.4,0.1-1.1-0.2-1.4c-8.4-6.7-20.1-6.7-28.5,0.1l-0.1,0.1c0,0,0,0-0.1,0.1c-0.1,0.1-0.1,0.2-0.2,0.3
		C-495.6-198.8-495.5-198.4-495.3-198.1z"/>
	<circle cx="-480.9" cy="-190.6" r="1.2"/>
</g>
<g>
	<g>
		<path d="M-177.7-197.8c0,1.1-0.2,2-0.5,2.9c-0.4,0.9-0.8,1.7-1.5,2.3c-0.6,0.7-1.4,1.2-2.3,1.5s-1.9,0.6-3,0.6
			c-1.1,0-2.1-0.2-3-0.6s-1.7-0.9-2.3-1.5c-0.6-0.7-1.1-1.4-1.5-2.3c-0.4-0.9-0.5-1.9-0.5-2.9s0.2-2,0.5-2.9s0.9-1.7,1.5-2.3
			c0.6-0.7,1.4-1.2,2.3-1.5s1.9-0.6,3-0.6c1.1,0,2.1,0.2,3,0.6c0.9,0.4,1.7,0.9,2.3,1.5c0.6,0.7,1.1,1.4,1.5,2.3
			S-177.7-198.8-177.7-197.8z M-180.4-197.8c0-0.8-0.1-1.5-0.3-2.1c-0.2-0.6-0.5-1.2-0.9-1.6c-0.4-0.4-0.9-0.8-1.4-1
			s-1.2-0.4-1.9-0.4c-0.7,0-1.3,0.1-1.9,0.4c-0.6,0.2-1,0.6-1.4,1c-0.4,0.4-0.7,1-0.9,1.6c-0.2,0.6-0.3,1.3-0.3,2.1s0.1,1.5,0.3,2.1
			c0.2,0.6,0.5,1.2,0.9,1.6c0.4,0.4,0.9,0.8,1.4,1c0.6,0.2,1.2,0.4,1.9,0.4c0.7,0,1.3-0.1,1.9-0.4c0.6-0.2,1-0.6,1.4-1
			c0.4-0.4,0.7-1,0.9-1.6C-180.5-196.3-180.4-197-180.4-197.8z"/>
	</g>
</g>
<g>
	<g>
		<path d="M-251.7-197.3c0,0.6-0.1,1.3-0.2,1.9s-0.3,1.1-0.6,1.7c-0.2,0.5-0.6,1-0.9,1.4c-0.4,0.4-0.8,0.8-1.2,1.1l3.7,4h-2.2
			c-0.3,0-0.6,0-0.9-0.1c-0.3-0.1-0.5-0.2-0.7-0.5l-2.1-2.3c-0.3,0.1-0.7,0.2-1,0.2s-0.7,0.1-1.1,0.1c-1.1,0-2.1-0.2-3-0.6
			s-1.7-0.9-2.3-1.5c-0.6-0.7-1.1-1.4-1.5-2.3c-0.4-0.9-0.5-1.9-0.5-2.9s0.2-2,0.5-2.9s0.9-1.7,1.5-2.3c0.6-0.7,1.4-1.2,2.3-1.5
			s1.9-0.6,3-0.6c1.1,0,2.1,0.2,3,0.6c0.9,0.4,1.7,0.9,2.3,1.5c0.6,0.7,1.1,1.4,1.5,2.3S-251.7-198.3-251.7-197.3z M-254.4-197.3
			c0-0.8-0.1-1.5-0.3-2.1c-0.2-0.6-0.5-1.2-0.9-1.6c-0.4-0.4-0.9-0.8-1.4-1s-1.2-0.4-1.9-0.4c-0.7,0-1.3,0.1-1.9,0.4
			c-0.6,0.2-1,0.6-1.4,1c-0.4,0.4-0.7,1-0.9,1.6c-0.2,0.6-0.3,1.3-0.3,2.1s0.1,1.5,0.3,2.1c0.2,0.6,0.5,1.2,0.9,1.6
			c0.4,0.4,0.9,0.8,1.4,1c0.6,0.2,1.2,0.4,1.9,0.4c0.7,0,1.3-0.1,1.9-0.4c0.6-0.2,1-0.6,1.4-1c0.4-0.4,0.7-1,0.9-1.6
			C-254.5-195.8-254.4-196.5-254.4-197.3z"/>
	</g>
</g>
<g>
	<path d="M-337.4-195.5h1.8v1.4c0,0.1,0,0.2-0.1,0.3c-0.1,0.1-0.2,0.1-0.4,0.1h-1.3v3.5h-2.2v-3.5h-6.1c-0.2,0-0.3-0.1-0.4-0.2
		c-0.1-0.1-0.2-0.2-0.2-0.4l-0.2-1.2l6.8-9.2h2.3V-195.5z M-339.5-200.2c0-0.2,0-0.4,0-0.7c0-0.2,0-0.5,0.1-0.8l-4.5,6.2h4.4V-200.2
		z"/>
	<path d="M-330.9-198.5h0.6c0.3,0,0.5,0,0.6-0.1c0.2-0.1,0.3-0.2,0.4-0.3l4-5.1c0.2-0.2,0.3-0.4,0.5-0.4c0.2-0.1,0.4-0.1,0.7-0.1
		h2.3l-4.9,6c-0.2,0.2-0.3,0.3-0.4,0.5c-0.1,0.1-0.3,0.2-0.5,0.3c0.2,0.1,0.4,0.2,0.6,0.3c0.2,0.1,0.3,0.3,0.5,0.6l5,6.8h-2.4
		c-0.3,0-0.6,0-0.7-0.1c-0.2-0.1-0.3-0.2-0.4-0.4l-4.1-5.3c-0.1-0.2-0.3-0.3-0.5-0.4s-0.4-0.1-0.7-0.1h-0.8v6.4h-2.7v-14.5h2.7
		V-198.5z"/>
</g>
<g>
	<rect x="-206" y="-268.4" class="st7" width="42.1" height="16.9"/>
	<text transform="matrix(1 0 0 1 -192.9951 -253.5568)" style="font-family:'Lato-Bold'; font-size:20px;">O</text>
</g>
<g>
	<rect x="-280" y="-267.9" class="st7" width="42.1" height="15.9"/>
	<text transform="matrix(1 0 0 1 -266.9951 -253.0568)" style="font-family:'Lato-Bold'; font-size:20px;">Q</text>
</g>
<rect x="-355" y="-267.9" class="st7" width="42.1" height="15.9"/>
<text transform="matrix(1 0 0 1 -346.7803 -253.0568)" style="font-family:'Lato-Bold'; font-size:20px;">4K</text>
<g>
	<path d="M-382.6-265.3c0.4,0.7,0.7,1.3,0.9,2c0.2,0.7,0.3,1.3,0.3,2c0,1.2-0.3,2.3-0.9,3.4c-0.6,1.1-1.5,2.1-2.6,3l-1.4-0.8
		c-0.1-0.1-0.2-0.2-0.3-0.3c0-0.1-0.1-0.2-0.1-0.3c0-0.2,0.1-0.4,0.2-0.6c0.2-0.2,0.3-0.4,0.5-0.6c0.2-0.2,0.3-0.5,0.5-0.8
		c0.1-0.3,0.3-0.6,0.4-0.9c0.1-0.3,0.1-0.7,0.1-1.1c0-0.4-0.1-0.8-0.2-1.3c-0.1-0.5-0.4-1-0.7-1.5c-0.1-0.2-0.2-0.3-0.2-0.5
		c0-0.4,0.2-0.7,0.7-0.8L-382.6-265.3z M-376.6-265.3c0.4,0.7,0.7,1.3,0.9,2c0.2,0.7,0.3,1.3,0.3,2c0,1.2-0.3,2.3-0.9,3.4
		c-0.6,1.1-1.5,2.1-2.6,3l-1.4-0.8c-0.1-0.1-0.2-0.2-0.3-0.3c0-0.1-0.1-0.2-0.1-0.3c0-0.2,0.1-0.4,0.2-0.6c0.2-0.2,0.3-0.4,0.5-0.6
		c0.2-0.2,0.3-0.5,0.5-0.8c0.1-0.3,0.3-0.6,0.4-0.9s0.1-0.7,0.1-1.1c0-0.4-0.1-0.8-0.2-1.3c-0.1-0.5-0.4-1-0.7-1.5
		c-0.1-0.2-0.2-0.3-0.2-0.5c0-0.4,0.2-0.7,0.7-0.8L-376.6-265.3z"/>
</g>
<g>
	<path d="M-403.2-122.3c0-1.4-0.3-2.4-0.7-3.1c-0.4-0.7-1-1.2-1.9-1.6l1-1.6c1.4,0.6,2.5,1.6,3.1,2.8c0.5,0.9,0.8,2.5,0.8,4.6v3.9
		h-4.5v-4.9H-403.2z M-410.5-122.3c0-1.4-0.3-2.4-0.7-3.1c-0.4-0.7-1-1.2-1.9-1.6l1-1.6c1.4,0.6,2.5,1.6,3.1,2.8
		c0.5,0.9,0.8,2.5,0.8,4.6v3.9h-4.5v-4.9H-410.5z"/>
</g>
<path class="st1" d="M-126-173.9l4.9-4.5c3.7-0.3,7.6-0.5,11.6-0.5c3.5,0,7,0.2,10.3,0.4l5.2,4.6"/>
<path class="st1" d="M-89.9-177.6c3.6,0.4,7,0.9,9.9,1.3v-27.2c0-5.6,0-10.4,0-12c-7.8,1-18.1,2.6-29.5,2.6
	c-11.9,0-22.6-1.7-30.5-2.7v12.1v27.3c2.8-0.4,6-0.8,9.5-1.3"/>
<g>
	<line class="st0" x1="8" y1="-272.9" x2="8" y2="-258.9"/>
	<line class="st0" x1="15" y1="-265.9" x2="1" y2="-265.9"/>
</g>
<g>
	<path d="M-31.6-261L-31.6-261l-0.1-4.7c0-0.4-0.3-0.6-0.6-0.6h-5.4c-0.4,0-0.6,0.3-0.6,0.6v4.7h-0.1c-0.4,0-0.6,0.3-0.6,0.6v6.3
		c0,1.3,0.9,2.4,2.1,2.6v1.9c0,0.4,0.3,0.6,0.6,0.6h0.6v5.2h1.3v-5.2h0.6c0.4,0,0.6-0.3,0.6-0.6v-1.9c1.2-0.2,2.1-1.3,2.1-2.6v-6.3
		C-31-260.7-31.3-261-31.6-261L-31.6-261z M-37-265h4.1v4.1H-37V-265z M-34.4-250.2h-1.2v-1.2h1.2V-250.2z M-32.3-254
		c0,0.7-0.6,1.3-1.3,1.3h-2.8c-0.7,0-1.3-0.6-1.3-1.3v-5.7h5.5V-254z M-32.3-254"/>
	<rect x="-36.4" y="-263.5" width="1.1" height="1"/>
	<rect x="-34.7" y="-263.5" width="1.1" height="1"/>
</g>
<g>
	<path d="M-24.3-197.7v-12.5c0-1.5-0.6-3-1.7-4.1c-1.1-1.1-2.5-1.7-4.1-1.7c-3.2,0-5.8,2.6-5.8,5.8v26.4c0,1.1-0.4,2.1-1.2,2.9
		c-0.8,0.8-1.8,1.2-2.9,1.2c-2.3,0-4.1-1.8-4.1-4.1v-12.5c1.8-0.4,3.1-1.9,3.1-3.8v-6.9c0-0.3-0.2-0.6-0.5-0.8v-1.7
		c0-0.5-0.4-0.8-0.8-0.8h-5.2c-0.5,0-0.8,0.4-0.8,0.8v1.7c-0.3,0.1-0.5,0.4-0.5,0.8v6.9c0,1.9,1.3,3.4,3.1,3.8v12.5
		c0,3.2,2.6,5.8,5.8,5.8c1.5,0,3-0.6,4.1-1.7c1.1-1.1,1.7-2.5,1.7-4.1v-26.4c0-2.3,1.8-4.1,4.1-4.1c1.1,0,2.1,0.4,2.9,1.2
		c0.8,0.8,1.2,1.8,1.2,2.9v12.5c-1.8,0.4-3.1,1.9-3.1,3.8v6.9c0,0.3,0.2,0.6,0.5,0.8v1.7c0,0.5,0.4,0.8,0.8,0.8h5.2
		c0.5,0,0.8-0.4,0.8-0.8v-1.7c0.3-0.1,0.5-0.4,0.5-0.8v-6.9C-21.2-195.8-22.5-197.4-24.3-197.7L-24.3-197.7z M-46.7-208.6h3.5v0.7
		h-3.5V-208.6z M-47.1-200.1v-6.1h4.5v6.1c0,1.2-1,2.2-2.2,2.2S-47.1-198.8-47.1-200.1L-47.1-200.1z M-25.1-196.2
		c1.2,0,2.2,1,2.2,2.2v6.1h-4.5v-6.1C-27.3-195.2-26.3-196.2-25.1-196.2L-25.1-196.2z M-23.3-185.4h-3.5v-0.7h3.5V-185.4z
		 M-23.3-185.4"/>
</g>
<g>
	<line class="st0" x1="171.5" y1="-219.9" x2="171.5" y2="-175.9"/>
	<line class="st0" x1="206.5" y1="-219.9" x2="206.5" y2="-175.9"/>
</g>
<path class="st0" d="M207.4-182.4c5.2,0,8.7,0,8.7,0c0.5,0,0.9-0.3,0.9-0.7l0-27.7c0-0.4-0.4-0.7-0.9-0.7c0,0-13.1,0-27.1,0
	c-14,0-27.1,0-27.1,0c-0.5,0-0.9,0.3-0.9,0.7l0,27.7c0,0.4,0.4,0.7,0.9,0.7c0,0,3.5,0,8.7,0"/>
<g>
	<path class="st2" d="M-336.8,50.3h41.9c0.5,0,0.8-0.4,0.8-0.9V17.8c0-0.9-0.7-1.7-1.7-1.7H-319h-23.3c-0.9,0-1.7,0.8-1.7,1.7v31.6
		c0,0.5,0.4,0.9,0.8,0.9h7.8"/>
</g>
<g>
	<g>
		<path d="M-315,33.4c0-1.9,1.5-2.8,1.6-2.8c-0.9-1.3-2.2-1.4-2.7-1.5c-1.1-0.1-2.2,0.7-2.8,0.7c-0.6,0-1.5-0.7-2.4-0.6
			c-1.3,0-2.4,0.7-3,1.8c-1.3,2.3-0.3,5.6,0.9,7.4c0.6,0.9,1.4,1.9,2.3,1.9c0.9,0,1.3-0.6,2.4-0.6c1.1,0,1.4,0.6,2.4,0.6
			c1,0,1.6-0.9,2.3-1.8c0.7-1,1-2,1-2.1C-313,36.4-315,35.6-315,33.4L-315,33.4z M-316.8,27.9c0.5-0.6,0.9-1.5,0.8-2.4
			c-0.7,0-1.6,0.5-2.2,1.1c-0.5,0.6-0.9,1.4-0.8,2.3C-318.2,29-317.3,28.5-316.8,27.9L-316.8,27.9z M-316.8,27.9"/>
	</g>
</g>
<path d="M-290,53.1h-58c-1.1,0-2-0.9-2-2v0c0-1.1,0.9-2,2-2h58c1.1,0,2,0.9,2,2v0C-288,52.2-288.9,53.1-290,53.1z"/>
<g>
	<g>
		<path class="st3" d="M-248.8,50c4.7,0,41.9,0,41.9,0c0.5,0,0.8-0.4,0.8-0.8V17.3c0-0.5-0.4-0.8-0.8-0.8c0,0-11.7,0-24.2,0
			s-24.2,0-24.2,0c-0.5,0-0.8,0.4-0.8,0.8v31.8c0,0.5,0.4,0.8,0.8,0.8c0,0,3.1,0,7.8,0"/>
	</g>
</g>
<polygon points="-202.1,53.3 -259.9,53.3 -262,51.3 -262,49.3 -200,49.3 -200,51.3 "/>
<g>
	<g>
		<polygon points="-199,-19.5 -199,-15.9 -201,-17.9 -201,-20.5 		"/>
		<polygon points="-201.9,-14.5 -204.1,-17.7 -204.1,-22.1 -201.9,-24.3 		"/>
		<polygon class="st4" points="-198,-29.9 -198,-18.9 -202,-20.9 -202,-27.9 		"/>
	</g>
	<polygon points="-195,-19.5 -195,-15.9 -193,-17.9 -193,-20.5 	"/>
	<polygon points="-192.1,-14.5 -189.9,-17.7 -189.9,-22.1 -192.2,-24.4 	"/>
	<path class="st4" d="M-195-15.9h-2h-2l-3-3v5c2,4,8,4,10,0v-5L-195-15.9z"/>
	<polygon class="st4" points="-196,-29.9 -196,-18.9 -192,-20.9 -192,-27.9 	"/>
	<line class="st5" x1="-195" y1="-25.9" x2="-199.5" y2="-25.9"/>
	<line class="st5" x1="-195" y1="-23.9" x2="-199.5" y2="-23.9"/>
	<line class="st6" x1="-196" y1="-17.4" x2="-198" y2="-17.4"/>
	<line class="st5" x1="-195" y1="-27.9" x2="-199.5" y2="-27.9"/>
</g>
<g>
	<path class="st7" d="M-227-15.4h-4c-0.1,0-0.3-0.1-0.4-0.1l-2.1-2.1V-8c0.9,1.6,2.6,2.6,4.5,2.6s3.6-1,4.5-2.6v-9.7l-2.1,2.1
		C-226.7-15.4-226.9-15.4-227-15.4z"/>
	<path class="st7" d="M-227-15.4h-4c-0.1,0-0.3-0.1-0.4-0.1l-2.1-2.1V-8c0.9,1.6,2.6,2.6,4.5,2.6s3.6-1,4.5-2.6v-9.7l-2.1,2.1
		C-226.7-15.4-226.9-15.4-227-15.4z"/>
	<path d="M-224.5-17.7l-2.1,2.1c-0.1,0.1-0.2,0.1-0.4,0.1h-4c-0.1,0-0.3-0.1-0.4-0.1l-2.1-2.1V-8c0.9,1.6,2.6,2.6,4.5,2.6
		s3.6-1,4.5-2.6V-17.7z"/>
	<g>
		<polygon points="-227.5,-13.7 -224.5,-15.2 -224.5,-21.6 -227.5,-23.1 		"/>
		<g>
			<polygon class="st7" points="-227.5,-13.7 -224.5,-15.2 -224.5,-21.6 -227.5,-23.1 			"/>
			<polygon points="-223.5,-17.7 -223.5,-9.3 -221.9,-11.7 -221.9,-16.1 			"/>
		</g>
	</g>
	<g>
		<g>
			<rect x="-231.5" y="-19.4" width="4.5" height="1"/>
		</g>
		<g>
			<rect x="-231.5" y="-17.4" width="4.5" height="1"/>
		</g>
		<g>
			<rect x="-231.5" y="-21.4" width="4.5" height="1"/>
		</g>
	</g>
	<g>
		<polygon points="-233.5,-15.2 -230.5,-13.7 -230.5,-23.1 -233.5,-21.6 		"/>
		<polygon points="-234.5,-17.7 -236.1,-16.1 -236.1,-11.7 -234.5,-9.4 		"/>
	</g>
</g>
<g>
	<polygon points="-378.1,53.3 -435.9,53.3 -438,51.3 -438,49.3 -376,49.3 -376,51.3 	"/>
	<g>
		<g>
			<path class="st3" d="M-424.8,50c4.7,0,41.9,0,41.9,0c0.5,0,0.8-0.4,0.8-0.8V17.3c0-0.5-0.4-0.8-0.8-0.8c0,0-11.7,0-24.2,0
				s-24.2,0-24.2,0c-0.5,0-0.8,0.4-0.8,0.8v31.8c0,0.5,0.4,0.8,0.8,0.8c0,0,3.1,0,7.8,0"/>
		</g>
	</g>
</g>
<g>
	<path d="M-416,39.3l6.6,0.9v-6.3h-6.6V39.3z M-416,39.3"/>
	<path d="M-416,33.1h6.6v-6.3l-6.6,0.9V33.1z M-416,33.1"/>
	<path d="M-408.7,40.3l8.7,1.2v-7.6h-8.7V40.3z M-408.7,40.3"/>
	<path d="M-408.7,26.7v6.4h8.7v-7.6L-408.7,26.7z M-408.7,26.7"/>
</g>
<g>
	<polygon points="-27.1,53.3 -84.9,53.3 -87,51.3 -87,49.3 -25,49.3 -25,51.3 	"/>
	<g>
		<g>
			<g>
				<path class="st3" d="M-70.8,47.7c4.6-0.8,41.4-6.8,41.4-6.8c0.5-0.1,0.8-0.5,0.7-1l-5.2-31.4c-0.1-0.5-0.5-0.8-1-0.7
					c0,0-11.5,1.9-23.8,3.9s-23.8,3.9-23.8,3.9c-0.5,0.1-0.8,0.5-0.7,1l5.2,31.4c0.1,0.5,0.5,0.8,1,0.7c0,0,3.1-0.5,7.7-1.3"/>
			</g>
		</g>
		<g>
			<path d="M-63.9,35.6l6.6-0.2l-1-6.2l-6.5,1.1L-63.9,35.6z M-63.9,35.6"/>
			<path d="M-64.9,29.6l6.5-1.1l-1-6.3l-6.3,2L-64.9,29.6z M-64.9,29.6"/>
			<path d="M-56.6,35.4l8.8-0.2l-1.2-7.5l-8.6,1.4L-56.6,35.4z M-56.6,35.4"/>
			<path d="M-58.8,22l1,6.3l8.6-1.4l-1.2-7.5L-58.8,22z M-58.8,22"/>
		</g>
	</g>
</g>
<g>
	<path d="M-227.6-29.6l0.5-0.5c0.9-1,1.4-2.3,1.4-3.6l-0.1-2.4l-1.8,2V-29.6z"/>
	<path d="M-236.2-36.2l-0.1,2.4c0,1.3,0.5,2.6,1.4,3.6l0.5,0.5v-4.5L-236.2-36.2z"/>
	<path d="M-226-37.4v-4.4c0-2-1.7-3.6-3.6-4.1c0,0.7,0,1.9,0,4.4c0,0.8-0.7,1.5-1.4,1.5s-1.4-0.7-1.4-1.4c0-2.5,0-3.8,0-4.5
		c-1.8,0.6-3.6,2.1-3.6,4.1v4.4l2.5,2.7c0.1,0.1,0.1,0.2,0.1,0.3v3.5c0,1.3,1.1,2.4,2.4,2.4l0,0c1.3,0,2.4-1.1,2.4-2.4v-3.5
		c0-0.1,0-0.2,0.1-0.3L-226-37.4z"/>
</g>
<rect x="-248" y="47.1" width="33" height="3"/>
<g>
	<polygon class="st2" points="-153.7,62.6 -163.7,50.3 -153.7,41 	"/>
	<polygon class="st2" points="-124.3,35 -153.7,62.4 -153.7,31.8 -124.3,5.4 	"/>
	<g>
		<polygon points="-131.7,19.9 -131.7,33.5 -143.2,44.9 -143.2,30.3 		"/>
		<g>
			<polygon class="st8" points="-145.5,39.6 -145.8,39.2 -130.8,26.2 -130.5,26.6 			"/>
		</g>
		<g>
			<rect x="-136.9" y="23.4" class="st8" width="0.5" height="18"/>
		</g>
	</g>
</g>
<g>
	<path d="M-225.8,33.8l-1.8,2v4.5l0.5-0.5c0.9-1,1.4-2.3,1.4-3.6L-225.8,33.8z"/>
	<path d="M-236.3,36.3c0,1.3,0.5,2.6,1.4,3.6l0.5,0.5v-4.5l-1.8-2L-236.3,36.3z"/>
	<path d="M-226,28.3c0-0.9-0.4-1.8-1-2.5c-1-1.5-2.4-2.4-4-2.4c-1.5,0-2.9,0.8-3.9,2.2c-0.7,0.7-1.1,1.6-1.1,2.7v4.4l2.5,2.7
		c0.1,0.1,0.1,0.2,0.1,0.3v3.5c0,1.3,1.1,2.4,2.4,2.4s2.4-1.1,2.4-2.4v-3.5c0-0.1,0-0.2,0.1-0.3l2.5-2.7V28.3z M-231,30
		c-0.8,0-1.4-0.7-1.4-1.4c0-1.5,0-2.5,0-3.3c0.5-0.3,0.9-0.4,1.4-0.4c0.5,0,1,0.2,1.4,0.4c0,0.7,0,1.8,0,3.3
		C-229.6,29.4-230.2,30-231,30z"/>
</g>
<g>
	<path class="st9" d="M40.3-10.4L38.1-8v5.4l0.6-0.6c1.1-1.2,1.7-2.7,1.7-4.4L40.3-10.4z"/>
	<path class="st9" d="M27.6-7.5c0,1.6,0.6,3.2,1.7,4.4l0.6,0.6V-8l-2.2-2.4L27.6-7.5z"/>
	<path class="st9" d="M40-17.1c0-1.1-0.5-2.2-1.2-3C37.6-21.9,35.9-23,34-23c-1.8,0-3.5,1-4.7,2.7c-0.8,0.9-1.4,2-1.4,3.2v5.3l3,3.3
		c0.1,0.1,0.2,0.2,0.2,0.4v4.3C31.1-2.3,32.4-1,34-1s2.9-1.3,2.9-2.9v-4.3c0-0.1,0.1-0.3,0.2-0.4l3-3.3V-17.1z M34-15
		c-1,0-1.7-0.8-1.7-1.7c0-1.8,0-3,0-3.9c0.5-0.3,1.1-0.5,1.7-0.5c0.6,0,1.2,0.2,1.7,0.5c0,0.9,0,2.2,0,3.9C35.7-15.8,35-15,34-15z"
		/>
</g>
<g>
	<g>
		<g>
			<path class="st9" d="M60.1,34.3c0-3.7,3-5.5,3.2-5.6c-1.7-2.5-4.4-2.9-5.3-2.9c-2.3-0.2-4.4,1.3-5.6,1.3c-1.2,0-2.9-1.3-4.8-1.3
				c-2.5,0-4.8,1.4-6,3.7c-2.6,4.5-0.7,11.1,1.9,14.7c1.2,1.8,2.7,3.8,4.6,3.7c1.9-0.1,2.6-1.2,4.8-1.2c2.2,0,2.9,1.2,4.8,1.2
				c2,0,3.3-1.8,4.5-3.6c1.4-2.1,2-4.1,2-4.2C64,40.2,60.1,38.8,60.1,34.3L60.1,34.3z M56.4,23.5c1-1.2,1.7-3,1.5-4.7
				c-1.5,0.1-3.3,1-4.3,2.2c-0.9,1.1-1.8,2.8-1.6,4.5C53.7,25.7,55.4,24.7,56.4,23.5L56.4,23.5z M56.4,23.5"/>
		</g>
	</g>
	<g>
		<path class="st9" d="M4,45.6l10.8,1.5V36.8H4V45.6z M4,45.6"/>
		<path class="st9" d="M4,35.5h10.8V25L4,26.5V35.5z M4,35.5"/>
		<path class="st9" d="M16,47.2l14.3,2V36.8H16V47.2z M16,47.2"/>
		<path class="st9" d="M16,24.9v10.6h14.3V22.9L16,24.9z M16,24.9"/>
	</g>
</g>
</svg>
