<?xml version="1.0" encoding="UTF-8"?>
<svg width="50px" height="31px" viewBox="0 0 50 31" version="1.1" xmlns="http://www.w3.org/2000/svg" xmlns:xlink="http://www.w3.org/1999/xlink">
    <!-- Generator: Sketch 50 (54983) - http://www.bohemiancoding.com/sketch -->
    <title>Group</title>
    <desc>Created with Sketch.</desc>
    <defs>
        <polygon id="path-1" points="0.000322580645 0 50 0 50 3.15789474 0.000322580645 3.15789474"></polygon>
        <polygon id="path-3" points="20.2646364 4.67141053 29.3446364 4.67141053 29.3446364 21 20.2646364 21"></polygon>
    </defs>
    <g id="Filter-Notebook" stroke="none" stroke-width="1" fill="none" fill-rule="evenodd">
        <g id="DESKTOP-Circle---Marcas-Copy-2" transform="translate(-1062.000000, -246.000000)">
            <g id="Group" transform="translate(1062.000000, 247.000000)">
                <g id="icon-gamers-active">
                    <g id="Group-4" transform="translate(4.838710, 0.341053)">
                        <path d="M5.82475806,26.5992632 L39.6505645,26.5992632 C40.0215323,26.5992632 40.3223387,26.3032105 40.3223387,25.9376842 L40.3223387,0.805578947 C40.3223387,0.440052632 40.0215323,0.144 39.6505645,0.144 L20.1610484,0.144 L0.671532258,0.144 C0.300564516,0.144 -0.000241935484,0.440052632 -0.000241935484,0.805578947 L-0.000241935484,25.9376842 C-0.000241935484,26.3032105 0.300564516,26.5992632 0.671532258,26.5992632 L6.9441129,26.5992632" id="Fill-1" fill="#FFFFFF"></path>
                        <path d="M5.82475806,26.5992632 L39.6505645,26.5992632 C40.0215323,26.5992632 40.3223387,26.3032105 40.3223387,25.9376842 L40.3223387,0.805578947 C40.3223387,0.440052632 40.0215323,0.144 39.6505645,0.144 L20.1610484,0.144 L0.671532258,0.144 C0.300564516,0.144 -0.000241935484,0.440052632 -0.000241935484,0.805578947 L-0.000241935484,25.9376842 C-0.000241935484,26.3032105 0.300564516,26.5992632 0.671532258,26.5992632 L6.9441129,26.5992632" id="Stroke-3" stroke="#333333" stroke-width="1.5" stroke-linecap="round"></path>
                    </g>
                    <g id="Group-7" transform="translate(0.000000, 26.393684)">
                        <mask id="mask-2" fill="white">
                            <use xlink:href="#path-1"></use>
                        </mask>
                        <g id="Clip-6"></g>
                        <polygon id="Fill-5" fill="#333333" mask="url(#mask-2)" points="48.3051613 3.15789474 1.69467742 3.15789474 0.000322580645 1.57894737 0.000322580645 0 50.0003226 0 50.0003226 1.57894737"></polygon>
                    </g>
                    <polygon id="Fill-14" fill="#333333" points="13.7096774 27.1831579 37.0967742 27.1831579 37.0967742 24.8147368 13.7096774 24.8147368"></polygon>
                </g>
                <path d="M29.5507273,14.0256158 L27.8798182,15.8338789 L27.8798182,19.8780895 L28.3289091,19.4217737 C29.1789091,18.5574579 29.6398182,17.3943 29.6070909,16.1926684 L29.5507273,14.0256158 Z" id="Fill-1" fill="#333333"></path>
                <path d="M20.0017273,16.1925789 C19.9699091,17.3942105 20.4308182,18.5582632 21.2799091,19.4216842 L21.729,19.878 L21.729,15.8346842 L20.0580909,14.0255263 L20.0017273,16.1925789 Z" id="Fill-3" fill="#333333"></path>
                <mask id="mask-4" fill="white">
                    <use xlink:href="#path-3"></use>
                </mask>
                <g id="Clip-6"></g>
                <path d="M24.8046364,10.6214105 C24.0773636,10.6214105 23.4864545,10.0398316 23.4864545,9.32493684 C23.4900909,8.00341053 23.4937273,7.07288421 23.4982727,6.40272632 C23.9100909,6.15309474 24.3546364,6.01351579 24.8137273,6.01351579 C25.2655455,6.01351579 25.7037273,6.15041053 26.111,6.39377895 C26.1155455,7.06304211 26.1191818,7.99714737 26.1228182,9.32314737 C26.1228182,10.0398316 25.5319091,10.6214105 24.8046364,10.6214105 Z M29.3446364,9.03683158 C29.3446364,8.18862105 28.9837273,7.42988421 28.4319091,6.80714737 C27.5219091,5.46056842 26.2237273,4.67141053 24.8137273,4.67141053 C23.4555455,4.67141053 22.2082727,5.40956842 21.3046364,6.66398947 C20.6791818,7.30998947 20.2646364,8.12330526 20.2646364,9.03683158 L20.2646364,12.9629368 L22.4937273,15.3751474 C22.5673636,15.4547789 22.6082727,15.5594632 22.6082727,15.6668316 L22.6082727,18.8386737 C22.6082727,20.0322526 23.591,21.0003579 24.8046364,21.0003579 C26.0182727,21.0003579 27.001,20.0322526 27.001,18.8386737 L27.001,15.6668316 C27.001,15.5594632 27.0419091,15.4547789 27.1155455,15.3751474 L29.3446364,12.9629368 L29.3446364,9.03683158 Z" id="Fill-5" fill="#333333" mask="url(#mask-4)"></path>
            </g>
        </g>
    </g>
</svg>