<?xml version="1.0" encoding="utf-8"?>
<!-- Generator: Adobe Illustrator 23.0.1, SVG Export Plug-In . SVG Version: 6.00 Build 0)  -->
<svg version="1.1" id="Capa_1" xmlns="http://www.w3.org/2000/svg" xmlns:xlink="http://www.w3.org/1999/xlink" x="0px" y="0px"
	 viewBox="0 0 68 68" style="enable-background:new 0 0 68 68;" xml:space="preserve">
<style type="text/css">
	.st0{fill:none;stroke:#000000;stroke-width:1.5;stroke-linecap:round;stroke-miterlimit:10;}
	.st1{fill:none;stroke:#000000;stroke-width:1.5;stroke-linecap:round;stroke-linejoin:round;stroke-miterlimit:10;}
	.st2{fill:#FFFFFF;stroke:#000000;stroke-width:1.5;stroke-linecap:round;stroke-linejoin:round;stroke-miterlimit:10;}
	.st3{fill:#FFFFFF;stroke:#000000;stroke-width:1.5;stroke-linecap:round;stroke-miterlimit:10;}
</style>
<g>
	<path class="st0" d="M-231-143c-15,0-29,0-29,0c-0.6,0-1,0.4-1,1v38c0,0.6,0.4,1,1,1c0,0,3.7,0,9.3,0"/>
	<path class="st0" d="M-231-143c15,0,29,0,29,0c0.6,0,1,0.4,1,1v38c0,0.6-0.4,1-1,1c0,0-3.7,0-9.3,0"/>
	<g>
		<path class="st0" d="M-215-98.9l-5-4c-4.2,0-17.6,0-22,0l-5,4"/>
	</g>
</g>
<g>
	<path class="st0" d="M-231-217c-15,0-29,0-29,0c-0.6,0-1,0.4-1,1v38c0,0.6,0.4,1,1,1c0,0,3.7,0,9.3,0"/>
	<path class="st0" d="M-231-217c15,0,29,0,29,0c0.6,0,1,0.4,1,1v38c0,0.6-0.4,1-1,1c0,0-3.7,0-9.3,0"/>
	<g>
		<path class="st0" d="M-215-172.9l-5-4c-4.2,0-17.6,0-22,0l-5,4"/>
	</g>
</g>
<g>
	<path class="st0" d="M-305-217c-15,0-29,0-29,0c-0.6,0-1,0.4-1,1v38c0,0.6,0.4,1,1,1c0,0,3.7,0,9.3,0"/>
	<path class="st0" d="M-305-217c15,0,29,0,29,0c0.6,0,1,0.4,1,1v38c0,0.6-0.4,1-1,1c0,0-3.7,0-9.3,0"/>
	<g>
		<path class="st0" d="M-289-172.9l-5-4c-4.2,0-17.6,0-22,0l-5,4"/>
	</g>
</g>
<g>
	<path class="st0" d="M-157-217c-15,0-29,0-29,0c-0.6,0-1,0.4-1,1v38c0,0.6,0.4,1,1,1c0,0,3.7,0,9.3,0"/>
	<path class="st0" d="M-157-217c15,0,29,0,29,0c0.6,0,1,0.4,1,1v38c0,0.6-0.4,1-1,1c0,0-3.7,0-9.3,0"/>
	<g>
		<path class="st0" d="M-141-172.9l-5-4c-4.2,0-17.6,0-22,0l-5,4"/>
	</g>
</g>
<path class="st0" d="M-83-217c-15,0-29,0-29,0c-0.6,0-1,0.4-1,1v38c0,0.6,0.4,1,1,1c0,0,3.7,0,9.3,0"/>
<path class="st0" d="M-83-217c15,0,29,0,29,0c0.6,0,1,0.4,1,1v38c0,0.6-0.4,1-1,1c0,0-3.7,0-9.3,0"/>
<g>
	<path class="st0" d="M-67-172.9l-5-4c-4.2,0-17.6,0-22,0l-5,4"/>
</g>
<path class="st0" d="M10.7-177c5.6,0,9.3,0,9.3,0c0.6,0,1-0.4,1-1v-38c0-0.6-0.4-1-1-1c0,0-14,0-29,0s-29,0-29,0c-0.6,0-1,0.4-1,1
	v38c0,0.6,0.4,1,1,1c0,0,3.7,0,9.3,0"/>
<g>
	<path class="st0" d="M7-172.9l-5-4c-4.2,0-17.6,0-22,0l-5,4"/>
</g>
<g>
	<path d="M-297.3-194.5c0.2-0.4,0.2-0.9-0.4-1.3c-4.5-2.9-10-2.9-14.5,0c0,0,0,0-0.1,0.1c-0.1,0.1-0.2,0.3-0.3,0.6
		c-0.1,0.3,0,0.6,0.1,0.7c0.1,0.2,0.4,0.4,0.7,0.4c0.2,0,0.5,0,0.6-0.1c3.8-2.6,8.7-2.6,12.4,0c0.5,0.3,0.9,0.1,1.2-0.2
		L-297.3-194.5z"/>
	<path d="M-319.3-198.1c0.1,0.2,0.3,0.2,0.4,0.3c0.3,0.1,0.7,0,1-0.3c7.5-6.1,18.4-6.1,26.3,0l0.1,0.1c0.1,0.1,0.5,0.1,0.8-0.2l0,0
		c0.2-0.4,0.1-1.1-0.2-1.4c-8.4-6.7-20.1-6.7-28.5,0.1l-0.1,0.1c0,0,0,0-0.1,0.1c-0.1,0.1-0.1,0.2-0.2,0.3
		C-319.6-198.8-319.5-198.4-319.3-198.1z"/>
	<circle cx="-304.9" cy="-190.6" r="1.2"/>
</g>
<g>
	<g>
		<path d="M-1.7-197.8c0,1.1-0.2,2-0.5,2.9c-0.4,0.9-0.8,1.7-1.5,2.3c-0.6,0.7-1.4,1.2-2.3,1.5s-1.9,0.6-3,0.6c-1.1,0-2.1-0.2-3-0.6
			s-1.7-0.9-2.3-1.5c-0.6-0.7-1.1-1.4-1.5-2.3c-0.4-0.9-0.5-1.9-0.5-2.9s0.2-2,0.5-2.9s0.9-1.7,1.5-2.3c0.6-0.7,1.4-1.2,2.3-1.5
			s1.9-0.6,3-0.6c1.1,0,2.1,0.2,3,0.6c0.9,0.4,1.7,0.9,2.3,1.5c0.6,0.7,1.1,1.4,1.5,2.3S-1.7-198.8-1.7-197.8z M-4.4-197.8
			c0-0.8-0.1-1.5-0.3-2.1c-0.2-0.6-0.5-1.2-0.9-1.6c-0.4-0.4-0.9-0.8-1.4-1s-1.2-0.4-1.9-0.4c-0.7,0-1.3,0.1-1.9,0.4
			c-0.6,0.2-1,0.6-1.4,1c-0.4,0.4-0.7,1-0.9,1.6c-0.2,0.6-0.3,1.3-0.3,2.1s0.1,1.5,0.3,2.1c0.2,0.6,0.5,1.2,0.9,1.6
			c0.4,0.4,0.9,0.8,1.4,1c0.6,0.2,1.2,0.4,1.9,0.4c0.7,0,1.3-0.1,1.9-0.4c0.6-0.2,1-0.6,1.4-1c0.4-0.4,0.7-1,0.9-1.6
			C-4.5-196.3-4.4-197-4.4-197.8z"/>
	</g>
</g>
<g>
	<g>
		<path d="M-75.7-197.3c0,0.6-0.1,1.3-0.2,1.9s-0.3,1.1-0.6,1.7c-0.2,0.5-0.6,1-0.9,1.4c-0.4,0.4-0.8,0.8-1.2,1.1l3.7,4h-2.2
			c-0.3,0-0.6,0-0.9-0.1c-0.3-0.1-0.5-0.2-0.7-0.5l-2.1-2.3c-0.3,0.1-0.7,0.2-1,0.2s-0.7,0.1-1.1,0.1c-1.1,0-2.1-0.2-3-0.6
			s-1.7-0.9-2.3-1.5c-0.6-0.7-1.1-1.4-1.5-2.3c-0.4-0.9-0.5-1.9-0.5-2.9s0.2-2,0.5-2.9s0.9-1.7,1.5-2.3c0.6-0.7,1.4-1.2,2.3-1.5
			s1.9-0.6,3-0.6c1.1,0,2.1,0.2,3,0.6c0.9,0.4,1.7,0.9,2.3,1.5c0.6,0.7,1.1,1.4,1.5,2.3S-75.7-198.3-75.7-197.3z M-78.4-197.3
			c0-0.8-0.1-1.5-0.3-2.1c-0.2-0.6-0.5-1.2-0.9-1.6c-0.4-0.4-0.9-0.8-1.4-1s-1.2-0.4-1.9-0.4c-0.7,0-1.3,0.1-1.9,0.4
			c-0.6,0.2-1,0.6-1.4,1c-0.4,0.4-0.7,1-0.9,1.6c-0.2,0.6-0.3,1.3-0.3,2.1s0.1,1.5,0.3,2.1c0.2,0.6,0.5,1.2,0.9,1.6
			c0.4,0.4,0.9,0.8,1.4,1c0.6,0.2,1.2,0.4,1.9,0.4c0.7,0,1.3-0.1,1.9-0.4c0.6-0.2,1-0.6,1.4-1c0.4-0.4,0.7-1,0.9-1.6
			C-78.5-195.8-78.4-196.5-78.4-197.3z"/>
	</g>
</g>
<g>
	<path d="M-161.4-195.5h1.8v1.4c0,0.1,0,0.2-0.1,0.3c-0.1,0.1-0.2,0.1-0.4,0.1h-1.3v3.5h-2.2v-3.5h-6.1c-0.2,0-0.3-0.1-0.4-0.2
		c-0.1-0.1-0.2-0.2-0.2-0.4l-0.2-1.2l6.8-9.2h2.3V-195.5z M-163.5-200.2c0-0.2,0-0.4,0-0.7c0-0.2,0-0.5,0.1-0.8l-4.5,6.2h4.4V-200.2
		z"/>
	<path d="M-154.9-198.5h0.6c0.3,0,0.5,0,0.6-0.1c0.2-0.1,0.3-0.2,0.4-0.3l4-5.1c0.2-0.2,0.3-0.4,0.5-0.4c0.2-0.1,0.4-0.1,0.7-0.1
		h2.3l-4.9,6c-0.2,0.2-0.3,0.3-0.4,0.5c-0.1,0.1-0.3,0.2-0.5,0.3c0.2,0.1,0.4,0.2,0.6,0.3c0.2,0.1,0.3,0.3,0.5,0.6l5,6.8h-2.4
		c-0.3,0-0.6,0-0.7-0.1c-0.2-0.1-0.3-0.2-0.4-0.4l-4.1-5.3c-0.1-0.2-0.3-0.3-0.5-0.4s-0.4-0.1-0.7-0.1h-0.8v6.4h-2.7v-14.5h2.7
		V-198.5z"/>
</g>
<g>
	<rect x="-30" y="-268.4" style="fill:none;" width="42.1" height="16.9"/>
	<text transform="matrix(1 0 0 1 -16.9951 -253.5568)" style="font-family:'Lato-Bold'; font-size:20px;">O</text>
</g>
<g>
	<rect x="-104" y="-267.9" style="fill:none;" width="42.1" height="15.9"/>
	<text transform="matrix(1 0 0 1 -90.9951 -253.0568)" style="font-family:'Lato-Bold'; font-size:20px;">Q</text>
</g>
<rect x="-179" y="-267.9" style="fill:none;" width="42.1" height="15.9"/>
<text transform="matrix(1 0 0 1 -170.7803 -253.0568)" style="font-family:'Lato-Bold'; font-size:20px;">4K</text>
<g>
	<path d="M-206.6-265.3c0.4,0.7,0.7,1.3,0.9,2c0.2,0.7,0.3,1.3,0.3,2c0,1.2-0.3,2.3-0.9,3.4c-0.6,1.1-1.5,2.1-2.6,3l-1.4-0.8
		c-0.1-0.1-0.2-0.2-0.3-0.3c0-0.1-0.1-0.2-0.1-0.3c0-0.2,0.1-0.4,0.2-0.6c0.2-0.2,0.3-0.4,0.5-0.6c0.2-0.2,0.3-0.5,0.5-0.8
		c0.1-0.3,0.3-0.6,0.4-0.9c0.1-0.3,0.1-0.7,0.1-1.1c0-0.4-0.1-0.8-0.2-1.3c-0.1-0.5-0.4-1-0.7-1.5c-0.1-0.2-0.2-0.3-0.2-0.5
		c0-0.4,0.2-0.7,0.7-0.8L-206.6-265.3z M-200.6-265.3c0.4,0.7,0.7,1.3,0.9,2c0.2,0.7,0.3,1.3,0.3,2c0,1.2-0.3,2.3-0.9,3.4
		c-0.6,1.1-1.5,2.1-2.6,3l-1.4-0.8c-0.1-0.1-0.2-0.2-0.3-0.3s-0.1-0.2-0.1-0.3c0-0.2,0.1-0.4,0.2-0.6c0.2-0.2,0.3-0.4,0.5-0.6
		c0.2-0.2,0.3-0.5,0.5-0.8c0.1-0.3,0.3-0.6,0.4-0.9c0.1-0.3,0.1-0.7,0.1-1.1c0-0.4-0.1-0.8-0.2-1.3c-0.1-0.5-0.4-1-0.7-1.5
		c-0.1-0.2-0.2-0.3-0.2-0.5c0-0.4,0.2-0.7,0.7-0.8L-200.6-265.3z"/>
</g>
<g>
	<path d="M-227.2-122.3c0-1.4-0.3-2.4-0.7-3.1s-1-1.2-1.9-1.6l1-1.6c1.4,0.6,2.5,1.6,3.1,2.8c0.5,0.9,0.8,2.5,0.8,4.6v3.9h-4.5v-4.9
		H-227.2z M-234.5-122.3c0-1.4-0.3-2.4-0.7-3.1s-1-1.2-1.9-1.6l1-1.6c1.4,0.6,2.5,1.6,3.1,2.8c0.5,0.9,0.8,2.5,0.8,4.6v3.9h-4.5
		v-4.9H-234.5z"/>
</g>
<path class="st1" d="M50-173.9l4.9-4.5c3.7-0.3,7.6-0.5,11.6-0.5c3.5,0,7,0.2,10.3,0.4l5.2,4.6"/>
<path class="st1" d="M86.1-177.6c3.6,0.4,7,0.9,9.9,1.3v-27.2c0-5.6,0-10.4,0-12c-7.8,1-18.1,2.6-29.5,2.6
	c-11.9,0-22.6-1.7-30.5-2.7v12.1v27.3c2.8-0.4,6-0.8,9.5-1.3"/>
<g>
	<line class="st0" x1="184" y1="-272.9" x2="184" y2="-258.9"/>
	<line class="st0" x1="191" y1="-265.9" x2="177" y2="-265.9"/>
</g>
<g>
	<path d="M144.4-261L144.4-261l-0.1-4.7c0-0.4-0.3-0.6-0.6-0.6h-5.4c-0.4,0-0.6,0.3-0.6,0.6v4.7h-0.1c-0.4,0-0.6,0.3-0.6,0.6v6.3
		c0,1.3,0.9,2.4,2.1,2.6v1.9c0,0.4,0.3,0.6,0.6,0.6h0.6v5.2h1.3v-5.2h0.6c0.4,0,0.6-0.3,0.6-0.6v-1.9c1.2-0.2,2.1-1.3,2.1-2.6v-6.3
		C145-260.7,144.7-261,144.4-261L144.4-261z M139-265h4.1v4.1H139V-265z M141.6-250.2h-1.2v-1.2h1.2V-250.2z M143.7-254
		c0,0.7-0.6,1.3-1.3,1.3h-2.8c-0.7,0-1.3-0.6-1.3-1.3v-5.7h5.5V-254z M143.7-254"/>
	<rect x="139.6" y="-263.5" width="1.1" height="1"/>
	<rect x="141.3" y="-263.5" width="1.1" height="1"/>
</g>
<g>
	<path d="M151.7-197.7v-12.5c0-1.5-0.6-3-1.7-4.1c-1.1-1.1-2.5-1.7-4.1-1.7c-3.2,0-5.8,2.6-5.8,5.8v26.4c0,1.1-0.4,2.1-1.2,2.9
		c-0.8,0.8-1.8,1.2-2.9,1.2c-2.3,0-4.1-1.8-4.1-4.1v-12.5c1.8-0.4,3.1-1.9,3.1-3.8v-6.9c0-0.3-0.2-0.6-0.5-0.8v-1.7
		c0-0.5-0.4-0.8-0.8-0.8h-5.2c-0.5,0-0.8,0.4-0.8,0.8v1.7c-0.3,0.1-0.5,0.4-0.5,0.8v6.9c0,1.9,1.3,3.4,3.1,3.8v12.5
		c0,3.2,2.6,5.8,5.8,5.8c1.5,0,3-0.6,4.1-1.7c1.1-1.1,1.7-2.5,1.7-4.1v-26.4c0-2.3,1.8-4.1,4.1-4.1c1.1,0,2.1,0.4,2.9,1.2
		c0.8,0.8,1.2,1.8,1.2,2.9v12.5c-1.8,0.4-3.1,1.9-3.1,3.8v6.9c0,0.3,0.2,0.6,0.5,0.8v1.7c0,0.5,0.4,0.8,0.8,0.8h5.2
		c0.5,0,0.8-0.4,0.8-0.8v-1.7c0.3-0.1,0.5-0.4,0.5-0.8v-6.9C154.8-195.8,153.5-197.4,151.7-197.7L151.7-197.7z M129.3-208.6h3.5v0.7
		h-3.5V-208.6z M128.9-200.1v-6.1h4.5v6.1c0,1.2-1,2.2-2.2,2.2C129.9-197.8,128.9-198.8,128.9-200.1L128.9-200.1z M150.9-196.2
		c1.2,0,2.2,1,2.2,2.2v6.1h-4.5v-6.1C148.7-195.2,149.7-196.2,150.9-196.2L150.9-196.2z M152.7-185.4h-3.5v-0.7h3.5V-185.4z
		 M152.7-185.4"/>
</g>
<g>
	<line class="st0" x1="347.5" y1="-219.9" x2="347.5" y2="-175.9"/>
	<line class="st0" x1="382.5" y1="-219.9" x2="382.5" y2="-175.9"/>
</g>
<path class="st0" d="M383.4-182.4c5.2,0,8.7,0,8.7,0c0.5,0,0.9-0.3,0.9-0.7l0-27.7c0-0.4-0.4-0.7-0.9-0.7c0,0-13.1,0-27.1,0
	c-14,0-27.1,0-27.1,0c-0.5,0-0.9,0.3-0.9,0.7l0,27.7c0,0.4,0.4,0.7,0.9,0.7c0,0,3.5,0,8.7,0"/>
<g>
	<path class="st2" d="M-160.8,50.3h41.9c0.5,0,0.8-0.4,0.8-0.9V17.8c0-0.9-0.7-1.7-1.7-1.7H-143h-23.3c-0.9,0-1.7,0.8-1.7,1.7v31.6
		c0,0.5,0.4,0.9,0.8,0.9h7.8"/>
</g>
<g>
	<g>
		<path d="M-139,33.4c0-1.9,1.5-2.8,1.6-2.8c-0.9-1.3-2.2-1.4-2.7-1.5c-1.1-0.1-2.2,0.7-2.8,0.7c-0.6,0-1.5-0.7-2.4-0.6
			c-1.3,0-2.4,0.7-3,1.8c-1.3,2.3-0.3,5.6,0.9,7.4c0.6,0.9,1.4,1.9,2.3,1.9c0.9,0,1.3-0.6,2.4-0.6c1.1,0,1.4,0.6,2.4,0.6
			c1,0,1.6-0.9,2.3-1.8c0.7-1,1-2,1-2.1C-137,36.4-139,35.6-139,33.4L-139,33.4z M-140.8,27.9c0.5-0.6,0.9-1.5,0.8-2.4
			c-0.7,0-1.6,0.5-2.2,1.1c-0.5,0.6-0.9,1.4-0.8,2.3C-142.2,29-141.3,28.5-140.8,27.9L-140.8,27.9z M-140.8,27.9"/>
	</g>
</g>
<path class="st3" d="M-114,53.1h-58c-1.1,0-2-0.9-2-2v0c0-1.1,0.9-2,2-2h58c1.1,0,2,0.9,2,2v0C-112,52.2-112.9,53.1-114,53.1z"/>
<g>
	<g>
		<path class="st3" d="M-72.8,50c4.7,0,41.9,0,41.9,0c0.5,0,0.8-0.4,0.8-0.8V17.3c0-0.5-0.4-0.8-0.8-0.8c0,0-11.7,0-24.2,0
			s-24.2,0-24.2,0c-0.5,0-0.8,0.4-0.8,0.8v31.8c0,0.5,0.4,0.8,0.8,0.8c0,0,3.1,0,7.8,0"/>
	</g>
</g>
<polygon class="st3" points="-26.1,53.3 -83.9,53.3 -86,51.3 -86,49.3 -24,49.3 -24,51.3 "/>
<g>
	<g>
		<path class="st3" d="M-248.8,50c4.7,0,41.9,0,41.9,0c0.5,0,0.8-0.4,0.8-0.8V17.3c0-0.5-0.4-0.8-0.8-0.8c0,0-11.7,0-24.2,0
			s-24.2,0-24.2,0c-0.5,0-0.8,0.4-0.8,0.8v31.8c0,0.5,0.4,0.8,0.8,0.8c0,0,3.1,0,7.8,0"/>
	</g>
</g>
<g>
	<path d="M-240,39.3l6.6,0.9v-6.3h-6.6V39.3z M-240,39.3"/>
	<path d="M-240,33.1h6.6v-6.3l-6.6,0.9V33.1z M-240,33.1"/>
	<path d="M-232.7,40.3l8.7,1.2v-7.6h-8.7V40.3z M-232.7,40.3"/>
	<path d="M-232.7,26.7v6.4h8.7v-7.6L-232.7,26.7z M-232.7,26.7"/>
</g>
<polygon class="st3" points="62.9,53.3 5.1,53.3 3,51.3 3,49.3 65,49.3 65,51.3 "/>
<g>
	<g>
		<path class="st3" d="M19.2,47.7c4.6-0.8,41.4-6.8,41.4-6.8c0.5-0.1,0.8-0.5,0.7-1L56.1,8.5c-0.1-0.5-0.5-0.8-1-0.7
			c0,0-11.5,1.9-23.8,3.9S7.4,15.6,7.4,15.6c-0.5,0.1-0.8,0.5-0.7,1L11.9,48c0.1,0.5,0.5,0.8,1,0.7c0,0,3.1-0.5,7.7-1.3"/>
	</g>
</g>
<g>
	<path d="M26.1,35.6l6.6-0.2l-1-6.2l-6.5,1.1L26.1,35.6z M26.1,35.6"/>
	<path d="M25.1,29.6l6.5-1.1l-1-6.3l-6.3,2L25.1,29.6z M25.1,29.6"/>
	<path d="M33.4,35.4l8.8-0.2L41,27.8l-8.6,1.4L33.4,35.4z M33.4,35.4"/>
	<path d="M31.2,22l1,6.3l8.6-1.4l-1.2-7.5L31.2,22z M31.2,22"/>
</g>
<polyline points="-39,47.1 -39,50.1 -72,50.1 -72,47.1 "/>
<g>
	<path d="M-49.8,33.8l-1.8,2v4.5l0.5-0.5c0.9-1,1.4-2.3,1.4-3.6L-49.8,33.8z"/>
	<path d="M-60.3,36.3c0,1.3,0.5,2.6,1.4,3.6l0.5,0.5v-4.5l-1.8-2L-60.3,36.3z"/>
</g>
<g>
	<g>
		<g>
			<path d="M150.1,34.3c0-3.7,3-5.5,3.2-5.6c-1.7-2.5-4.4-2.9-5.3-2.9c-2.3-0.2-4.4,1.3-5.6,1.3c-1.2,0-2.9-1.3-4.8-1.3
				c-2.5,0-4.8,1.4-6,3.7c-2.6,4.5-0.7,11.1,1.9,14.7c1.2,1.8,2.7,3.8,4.6,3.7c1.9-0.1,2.6-1.2,4.8-1.2c2.2,0,2.9,1.2,4.8,1.2
				c2,0,3.3-1.8,4.5-3.6c1.4-2.1,2-4.1,2-4.2C154,40.2,150.1,38.8,150.1,34.3L150.1,34.3z M146.4,23.5c1-1.2,1.7-3,1.5-4.7
				c-1.5,0.1-3.3,1-4.3,2.2c-0.9,1.1-1.8,2.8-1.6,4.5C143.7,25.7,145.4,24.7,146.4,23.5L146.4,23.5z M146.4,23.5"/>
		</g>
	</g>
	<g>
		<path d="M94,45.6l10.8,1.5V36.8H94V45.6z M94,45.6"/>
		<path d="M94,35.5h10.8V25L94,26.5V35.5z M94,35.5"/>
		<path d="M106,47.2l14.3,2V36.8H106V47.2z M106,47.2"/>
		<path d="M106,24.9v10.6h14.3V22.9L106,24.9z M106,24.9"/>
	</g>
</g>
<path d="M-50,28.1c0,0,0-5-5-5s-5,5-5,5h0c0,0,0,0.1,0,0.1v4.4l2.5,2.7c0.1,0.1,0.1,0.2,0.1,0.3v3.5c0,1.3,1.1,2.4,2.4,2.4
	s2.4-1.1,2.4-2.4v-3.5c0-0.1,0-0.2,0.1-0.3l2.5-2.7v-4.4C-50,28.2-50,28.2-50,28.1L-50,28.1z M-55,30c-0.8,0-1.4-0.7-1.4-1.4
	c0-1.5,0-2.5,0-3.3c0.5-0.3,0.9-0.4,1.4-0.4c0.5,0,1,0.2,1.4,0.4c0,0.7,0,1.8,0,3.3C-53.6,29.4-54.2,30-55,30z"/>
<polygon class="st3" points="-202.1,53.3 -259.9,53.3 -262,51.3 -262,49.3 -200,49.3 -200,51.3 "/>
</svg>
