<?xml version="1.0" encoding="UTF-8"?>
<svg width="50px" height="37px" viewBox="0 0 50 37" version="1.1" xmlns="http://www.w3.org/2000/svg" xmlns:xlink="http://www.w3.org/1999/xlink">
    <!-- Generator: Sketch 50 (54983) - http://www.bohemiancoding.com/sketch -->
    <title>icon-conv-active</title>
    <desc>Created with Sketch.</desc>
    <defs></defs>
    <g id="Filter-Notebook" stroke="none" stroke-width="1" fill="none" fill-rule="evenodd">
        <g id="DESKTOP-Circle---Marcas-Copy-2" transform="translate(-1207.000000, -240.000000)">
            <g id="icon-conv-active" transform="translate(1207.000000, 241.000000)">
                <polygon id="Fill-1" fill="#8FCA00" points="0 33 0 34.5 1.69516129 36 48.3056452 36 50 34.5 50 33"></polygon>
                <g id="Group-14" transform="translate(2.000000, 0.000000)">
                    <g id="Group-5">
                        <path d="M10.5892232,32.6694667 C14.2816339,32.0574667 43.8474375,27.157419 43.8474375,27.157419 C44.2122589,27.0975143 44.4589554,26.749419 44.3986875,26.3786571 L40.2466339,0.949895238 C40.1863661,0.579942857 39.8416339,0.3298 39.4768125,0.390514286 C39.4768125,0.390514286 30.2148482,1.9245619 20.3148482,3.56546667 C10.4148482,5.2055619 1.15288393,6.74122857 1.15288393,6.74122857 C0.7880625,6.80113333 0.5405625,7.1500381 0.600830357,7.51999048 L4.75288393,32.9487524 C4.81395536,33.3187048 5.15788393,33.5688476 5.52270536,33.5081333 C5.52270536,33.5081333 7.99770536,33.0985143 11.6901161,32.4865143" id="Fill-2" fill="#FFFFFF"></path>
                        <path d="M10.5892232,32.6694667 C14.2816339,32.0574667 43.8474375,27.157419 43.8474375,27.157419 C44.2122589,27.0975143 44.4589554,26.749419 44.3986875,26.3786571 L40.2466339,0.949895238 C40.1863661,0.579942857 39.8416339,0.3298 39.4768125,0.390514286 C39.4768125,0.390514286 30.2148482,1.9245619 20.3148482,3.56546667 C10.4148482,5.2055619 1.15288393,6.74122857 1.15288393,6.74122857 C0.7880625,6.80113333 0.5405625,7.1500381 0.600830357,7.51999048 L4.75288393,32.9487524 C4.81395536,33.3187048 5.15788393,33.5688476 5.52270536,33.5081333 C5.52270536,33.5081333 7.99770536,33.0985143 11.6901161,32.4865143" id="Stroke-4" stroke="#8FCA00" stroke-width="1.5" stroke-linecap="round"></path>
                    </g>
                    <polygon id="Fill-6" fill="#8FCA00" points="16.1468036 22.9251476 21.4640357 22.7859095 20.6484107 17.785481 15.4476964 18.6476238"></polygon>
                    <polygon id="Fill-8" fill="#8FCA00" points="15.3424286 18.0024333 20.5423393 17.1411 19.7154643 12.0791476 14.6336786 13.6625762"></polygon>
                    <polygon id="Fill-10" fill="#8FCA00" points="22.0479911 22.7678571 29.1202232 22.5824762 28.1342411 16.5450476 21.2195089 17.6913333"></polygon>
                    <polygon id="Fill-12" fill="#8FCA00" points="20.2752321 11.9072857 21.1141607 17.0461429 28.0288929 15.8998571 27.0332679 9.80090476"></polygon>
                </g>
            </g>
        </g>
    </g>
</svg>