<?xml version="1.0" encoding="UTF-8"?>
<svg width="24px" height="28px" viewBox="0 0 24 28" version="1.1" xmlns="http://www.w3.org/2000/svg" xmlns:xlink="http://www.w3.org/1999/xlink">
    <!-- Generator: Sketch 55.1 (78136) - https://sketchapp.com -->
    <title>Group 11</title>
    <desc>Created with Sketch.</desc>
    <g id="Page-1" stroke="none" stroke-width="1" fill="none" fill-rule="evenodd">
        <g id="Group-11">
            <rect id="Rectangle" fill="#FFFFFF" x="0" y="0" width="24" height="28"></rect>
            <g id="Group-10" transform="translate(1.000000, 1.000000)" stroke="#333333" stroke-width="1.8">
                <path d="M10.6609412,-6.75015599e-14 C16.5491765,-6.75015599e-14 21.3218824,4.55666116 21.3218824,10.1783554 C21.3218824,17.9622397 10.6609412,25.1468884 10.6609412,25.1468884 C10.6609412,25.1468884 1.0658141e-14,17.9622397 1.0658141e-14,10.1783554 C1.0658141e-14,4.55666116 4.77270588,-6.75015599e-14 10.6609412,-6.75015599e-14 Z" id="Fill-1"></path>
                <path d="M10.6609412,5.77798967 C12.8557647,5.77798967 14.6429412,7.48303099 14.6429412,9.5797376 C14.6429412,11.6752087 12.8557647,13.3814855 10.6609412,13.3814855 C8.46611765,13.3814855 6.68023529,11.6752087 6.68023529,9.5797376 C6.68023529,7.48303099 8.46611765,5.77798967 10.6609412,5.77798967" id="Fill-4"></path>
            </g>
        </g>
    </g>
</svg>