<?xml version="1.0" encoding="utf-8"?>
<!-- Generator: Adobe Illustrator 23.0.4, SVG Export Plug-In . SVG Version: 6.00 Build 0)  -->
<svg version="1.1" id="Capa_1" xmlns="http://www.w3.org/2000/svg" xmlns:xlink="http://www.w3.org/1999/xlink" x="0px" y="0px"
	 viewBox="0 0 134.3 181" style="enable-background:new 0 0 134.3 181;" xml:space="preserve">
<style type="text/css">
	.st0{fill:#FFFFFF;}
	.st1{clip-path:url(#SVGID_2_);}
	.st2{fill:none;stroke:#AAD500;stroke-width:3;stroke-miterlimit:10;}
	.st3{fill:none;stroke:#AAD500;stroke-width:3;stroke-linecap:square;stroke-miterlimit:10;}
	.st4{fill:#070308;}
</style>
<title>GuiaTalla</title>
<path class="st0" d="M32.5,91.2"/>
<g>
	<defs>
		<rect id="SVGID_1_" x="21.7" y="4.5" width="161.1" height="221.7"/>
	</defs>
	<clipPath id="SVGID_2_">
		<use xlink:href="#SVGID_1_"  style="overflow:visible;"/>
	</clipPath>
	<g class="st1">
		<polyline class="st2" points="85.4,15.1 111.8,15.1 111.8,169.8 85.4,169.8 		"/>
		<line class="st3" x1="111.1" y1="44.9" x2="103.5" y2="44.9"/>
		<line class="st3" x1="111.1" y1="65.5" x2="103.5" y2="65.5"/>
		<line class="st3" x1="111.1" y1="86.1" x2="103.5" y2="86.1"/>
		<line class="st3" x1="111.1" y1="106.7" x2="103.5" y2="106.7"/>
		<line class="st3" x1="111.1" y1="127.3" x2="103.5" y2="127.3"/>
		<line class="st3" x1="111.1" y1="147.9" x2="103.5" y2="147.9"/>
	</g>
</g>
<path class="st4" d="M72.9,13.2c-0.5,0-1.1,0-1.6,0c-12,1.3-11.8,27,1.2,27.5h0.1C83.7,41.1,86.5,13.7,72.9,13.2z M79.5,26.7
	c-0.2,5.7-2.8,11.7-6.8,11.6c-5.1-0.2-7.5-5.7-7.7-11s2-11.1,6.6-11.6c0.4,0,0.8,0,1.2,0C78.1,15.9,79.7,21.7,79.5,26.7z"/>
<path class="st4" d="M54.6,21.7c-0.8,0-1.5,0.1-2.3,0.3c-6.8,2-4.9,17.1,2.5,17.4h0.4C62.8,39.2,62.7,22,54.6,21.7z M58.3,30.9
	c0,2.9-1.1,6-3.2,6h-0.2c-2.3-0.1-3.8-3.1-4.2-6s0.3-6,2.3-6.6c0.5-0.2,1-0.2,1.5-0.2C57.3,24.3,58.3,28.2,58.3,30.9z"/>
<path class="st4" d="M42.3,29.8c-0.7,0-1.3,0-2,0.2c-6.1,3.2-3.9,15.4,2.6,15.7h0.5C50.6,45.3,50,30.1,42.3,29.8z M43.3,43.2H43
	c-2-0.1-3.2-2.3-3.6-4.2c-0.6-2.5-0.1-5.5,1.8-6.6c0.3-0.1,0.7-0.1,1-0.1c2.7,0.1,3.8,3.7,3.8,6C46,39.9,45.5,43.1,43.3,43.2
	L43.3,43.2z"/>
<path class="st4" d="M32.3,38.7c-0.9,0-1.8,0.2-2.7,0.6C24,41.8,27.3,53.2,33,53.4c0.3,0,0.5,0,0.8,0C39.9,52.5,38.7,39,32.3,38.7z
	 M33.4,50.9c-0.1,0-0.2,0-0.3,0c-1.6,0-3.2-2.2-3.8-4.9c-0.1-0.6-0.6-3.6,1.3-4.5c0.5-0.2,1-0.4,1.5-0.4c1.8,0.1,3,2.7,3.1,5.3
	C35.4,48.5,34.8,50.7,33.4,50.9z"/>
<path class="st4" d="M25.8,62.6c0.5,0,1,0,1.4-0.2c4.7-1.4,2.7-12.2-2.6-12.4c-0.9,0-1.8,0.2-2.6,0.7C17.1,53.5,20.8,62.4,25.8,62.6
	z M23.2,53c0.4-0.2,0.8-0.4,1.3-0.4c1.2,0,2.5,2,2.8,4.3c0.2,1.6-0.2,3-0.8,3.2c-0.2,0.1-0.4,0.1-0.6,0.1c-1.4-0.1-3-1.9-3.5-4
	C22.1,55.3,21.9,53.7,23.2,53z"/>
<path class="st4" d="M31.3,65.6c-4,6.4-3.2,14.3-0.9,21.1c2.1,6.1,5.2,11.9,8,17.7c5.1,10.5,2.4,21.3,2.6,32.5
	c0.2,13.2,0.9,23.1,7.2,29.1c3,3.1,7.1,5,11.4,5.2c10.3,0.4,19.9-9.6,20.3-21.9c0-0.4,0-0.8-0.1-1.2c-0.2-3.2-0.1-4.8-1-7.9
	s-2.4-6.1-3.6-9.2c-4-9.9-4.3-17.3-2.3-28c0.2-1,0.4-1.9,0.7-2.8c2.1-7,6.7-13,8.7-20c0.6-2.1,1-4.3,1.2-6.5
	c0.2-2.2,0.4-4.5,0.4-6.8c0-6.5-1-14.3-5.7-19.1c-2.8-2.7-6.5-4.3-10.4-4.3c-5.3-0.2-11,1.5-15.4,3.4c-3.6,1.5-6.9,3.4-9.9,5.7
	C37.6,56.4,33.5,62,31.3,65.6z M33.5,67c1.5-2.4,5.6-8.4,10.5-12.3c2.9-2.2,6-4,9.3-5.4c3.7-1.5,9.2-3.4,14.3-3.2
	c3.2,0,6.3,1.2,8.6,3.5c3.2,3.4,4.9,9.2,4.9,17.3c0,2.2-0.1,4.3-0.4,6.4c-0.2,2.1-0.6,4.1-1.2,6.1c-1.1,3.4-2.5,6.7-4.2,9.8
	c-1.8,3.2-3.3,6.6-4.4,10.2c-0.3,1-0.6,2.1-0.8,3.1c-2.2,11.9-1.5,19.6,2.4,29.5c0.4,0.9,0.7,1.8,1.1,2.6c0.9,2.2,1.8,4.2,2.4,6.4
	c0.6,1.9,0.9,3.8,0.9,5.8l0.1,1.4v0.5c0,0.2,0,0.3,0,0.5c-0.2,5.7-2.6,11-6.7,14.9c-2.9,2.9-6.8,4.4-10.9,4.4
	c-3.7-0.2-7.1-1.8-9.6-4.5c-5.6-5.4-6.2-14.7-6.4-27.3c-0.1-3,0.1-6,0.3-8.9c0.4-8,0.9-16.4-3.1-24.6c-0.6-1.2-1.2-2.4-1.8-3.7
	c-2.3-4.4-4.4-9-6.1-13.7C30.3,78.2,30.5,71.8,33.5,67z"/>
</svg>
