<?xml version="1.0" encoding="UTF-8"?>
<svg width="50px" height="30px" viewBox="0 0 50 30" version="1.1" xmlns="http://www.w3.org/2000/svg" xmlns:xlink="http://www.w3.org/1999/xlink">
    <!-- Generator: Sketch 50 (54983) - http://www.bohemiancoding.com/sketch -->
    <title>icon-mac</title>
    <desc>Created with Sketch.</desc>
    <defs></defs>
    <g id="Filter-Notebook" stroke="none" stroke-width="1" fill="none" fill-rule="evenodd">
        <g id="DESKTOP-Circle---Marcas-Copy-2" transform="translate(-937.000000, -246.000000)">
            <g id="icon-mac" transform="translate(937.000000, 247.000000)">
                <path d="M10.77816,28 L44.33336,28 C44.70136,28 44.99976,27.712375 44.99976,27.3573125 L44.99976,3.5884375 C44.99976,2.8799375 44.40296,2.3046875 43.66696,2.3046875 L24.99976,2.3046875 L6.33256,2.3046875 C5.59656,2.3046875 4.99976,2.8799375 4.99976,3.5884375 L4.99976,27.3573125 C4.99976,27.712375 5.29816,28 5.66616,28 L11.88856,28" id="Fill-1" fill="#FFFFFF"></path>
                <path d="M10.77816,28 L44.33336,28 C44.70136,28 44.99976,27.6865771 44.99976,27.299668 L44.99976,1.39889328 C44.99976,0.62684585 44.40296,0 43.66696,0 L24.99976,0 L6.33256,0 C5.59656,0 4.99976,0.62684585 4.99976,1.39889328 L4.99976,27.299668 C4.99976,27.6865771 5.29816,28 5.66616,28 L11.88856,28" id="Stroke-3" stroke="#333333" stroke-width="1.5" stroke-linecap="round" stroke-linejoin="round"></path>
                <path d="M27.486478,9.07640975 C27.9585531,8.52599357 28.2757142,7.76299679 28.1895491,7 C27.5093943,7.02734439 26.6871586,7.43574614 26.2004171,7.98528024 C25.7622581,8.47218686 25.3800148,9.24929689 25.481763,9.99641629 C26.2407497,10.0528692 27.0144029,9.62594386 27.486478,9.07640975 M29.186865,13.9084287 C29.1703653,12.2607085 30.5829239,11.4721315 30.6452562,11.432438 C29.8523534,10.3148462 28.6157916,10.1622468 28.1757993,10.1446053 C27.1234843,10.0422843 26.1234185,10.7408895 25.5890111,10.7408895 C25.0564371,10.7408895 24.2323681,10.1604826 23.3597167,10.1745959 C22.2139034,10.1913553 21.1560885,10.8167481 20.5657655,11.8046746 C19.3741196,13.7937587 20.2605208,16.7407786 21.4219172,18.3549799 C21.989324,19.143557 22.6658122,20.0309266 23.5540467,19.9991719 C24.4101984,19.966535 24.7328594,19.4663972 25.7668414,19.4663972 C26.80174,19.4663972 27.0914016,19.9991719 27.9979691,19.9824124 C28.9182863,19.966535 29.5003595,19.177958 30.0650163,18.3858526 C30.7158383,17.4702565 30.9835003,16.5828868 31,16.5370188 C30.9798337,16.528198 29.205198,15.8736967 29.186865,13.9084287" id="Fill-5" fill="#333333"></path>
                <path d="M48.2758621,29 L1.72413793,29 C0.772413793,29 0,28.328 0,27.5 C0,26.672 0.772413793,26 1.72413793,26 L48.2758621,26 C49.2275862,26 50,26.672 50,27.5 C50,28.328 49.2275862,29 48.2758621,29" id="Fill-7" fill="#333333"></path>
            </g>
        </g>
    </g>
</svg>