<svg id="Capa_1" xmlns="http://www.w3.org/2000/svg" viewBox="0 0 262 393"><path d="M170.9 212.1c0-7.5 6.1-13.5 13.6-13.5s13.6 6 13.6 13.5-6.1 13.5-13.6 13.5c-7.6 0-13.6-6-13.6-13.5zM68.7 165.3h45l2.7-12.5 13.8-66.7c4.2-18.9 8.1-35.3 22.6-49.1 9.9-9.5 22.8-14.9 36.5-15 0 0 5.4.1 8.8.5l-1 4.5s-7.4-1-11.9 0c-5.9 1.4-9.3 3.8-13.4 7.9-7.5 7.5-10.2 18.9-15 39.3L140 153.5l-2.5 11.9h50l-1.9 6.8H136l-29 133.7c-4.2 18.9-8.1 35.3-22.6 49.1-10 9.6-22.9 15-36.8 15l-4.7-.1.8-4.4c1.4 0 3.1 0 4.3-.2 7.6-1.1 12.9-3.7 17.3-9.3 7.1-9.1 10.2-17.8 15.1-38.2L112 172.1H66.8l1.9-6.8z" fill-rule="evenodd" clip-rule="evenodd" fill="#fff"/></svg>