<?xml version="1.0" encoding="utf-8"?>
<!-- Generator: Adobe Illustrator 22.1.0, SVG Export Plug-In . SVG Version: 6.00 Build 0)  -->
<svg version="1.1" id="Capa_1" xmlns="http://www.w3.org/2000/svg" xmlns:xlink="http://www.w3.org/1999/xlink" x="0px" y="0px"
	 viewBox="0 0 18.7 15.3" style="enable-background:new 0 0 18.7 15.3;" xml:space="preserve">
<style type="text/css">
	.st0{fill:#8FCA00;}
</style>
<title>mail</title>
<path class="st0" d="M16.3,0.1h-14C1,0.1,0,1.1,0,2.4v10.5c0,1.3,1,2.3,2.3,2.3h14c1.3,0,2.3-1,2.3-2.3V2.4
	C18.6,1.1,17.6,0.1,16.3,0.1z M17.5,2.1L9.3,7.8L1.2,2.1l0.1-0.2c0.2-0.4,0.6-0.7,1.1-0.7h14c0.3,0,0.8,0.1,1.1,0.7L17.5,2.1z
	 M1.2,3.4L9,9l0,0c0.1,0,0.2,0.1,0.3,0.1c0.1,0,0.2-0.1,0.4-0.2l7.8-5.5v9.4c0,0.7-0.5,1.2-1.2,1.2h-14c-0.7,0-1.2-0.5-1.2-1.2V3.4z
	"/>
</svg>
