<svg xmlns="http://www.w3.org/2000/svg" viewBox="0 0 41.305 47.123">
  <defs>
    <style>
      .cls-1 {
        fill: #9b893e;
      }

      .cls-2 {
        fill: #413d3e;
      }

      .cls-3 {
        fill: #b2d614;
      }

      .cls-4 {
        fill: #e80037;
      }

      .cls-5 {
        fill: #bd002d;
      }

      .cls-6 {
        fill: #8fbf2d;
      }

      .cls-7 {
        fill: #c3b560;
      }

      .cls-8 {
        fill: #31a283;
      }

      .cls-9 {
        fill: #f38e02;
      }

      .cls-10 {
        fill: #f9f4e1;
      }
    </style>
  </defs>
  <g id="Group_338" data-name="Group 338" transform="translate(-477.885 -2097.127)">
    <g id="Group_306" data-name="Group 306" transform="translate(477.885 2097.127)">
      <rect id="Rectangle_281" data-name="Rectangle 281" class="cls-1" width="0.502" height="1.53" transform="translate(17.494 21.139)"/>
      <path id="Path_257" data-name="Path 257" class="cls-2" d="M1997.77,1104.963l1.973,18.32h1.486l1.216-18.32S1997.838,1104.9,1997.77,1104.963Z" transform="translate(-1989.859 -1076.261)"/>
      <path id="Path_259" data-name="Path 259" class="cls-3" d="M1874.64,538.314H1895.2l-10.281-21.354Z" transform="translate(-1874.64 -516.96)"/>
      <path id="Path_260" data-name="Path 260" class="cls-4" d="M1874.64,796.794H1895.2l-10.281-21.354Z" transform="translate(-1874.64 -758.832)"/>
      <circle id="Ellipse_22" data-name="Ellipse 22" class="cls-3" cx="2.57" cy="2.57" r="2.57" transform="translate(15.176 22.431)"/>
      <circle id="Ellipse_23" data-name="Ellipse 23" class="cls-5" cx="1.139" cy="1.139" r="1.139" transform="translate(8.892 34.759) rotate(-88.367)"/>
      <circle id="Ellipse_25" data-name="Ellipse 25" class="cls-6" cx="1.139" cy="1.139" r="1.139" transform="translate(9.269 14.275) rotate(-88.367)"/>
    </g>
    <g id="Group_307" data-name="Group 307" transform="translate(494.895 2112.779)">
      <g id="Group_79" data-name="Group 79" transform="translate(0 0)">
        <path id="Path_122" data-name="Path 122" class="cls-7" d="M.018,12.22l.2-.012c0-.064-.368-6.514,2.955-9.916A7.28,7.28,0,0,1,8.925.207c4.293.168,6.51,1.837,6.48,3.4-.023,1.221-1.471,2.457-4.654,2.463C5.7,6.078,1.12,6.546.62,12.1l.2.017C1.3,6.728,5.792,6.275,10.751,6.265c3.317-.006,4.827-1.338,4.851-2.656C15.643,1.42,12.278.141,8.932.011a7.49,7.49,0,0,0-5.9,2.145C-.355,5.621.014,12.155.018,12.22Z" transform="translate(8.694 -0.003)"/>
        <rect id="Rectangle_210" data-name="Rectangle 210" class="cls-7" width="2.612" height="2.612" transform="translate(7.765 11.689)"/>
        <g id="Group_29" data-name="Group 29" transform="translate(0 13.568)">
          <path id="Path_123" data-name="Path 123" class="cls-4" d="M218.369,323.661a8.921,8.921,0,0,1-6.349-2.638l6.344-6.313Z" transform="translate(-209.413 -305.758)"/>
          <path id="Path_124" data-name="Path 124" class="cls-7" d="M86.99,314.654l8.951,0A8.92,8.92,0,0,1,93.3,321l-6.313-6.344Z" transform="translate(-78.039 -305.702)"/>
          <path id="Path_125" data-name="Path 125" class="cls-8" d="M123.86,314.71l6.313,6.344a8.924,8.924,0,0,1-6.309,2.607l0-8.951Z" transform="translate(-114.909 -305.758)"/>
          <path id="Path_126" data-name="Path 126" class="cls-9" d="M212.08,314.71Z" transform="translate(-203.129 -305.758)"/>
          <path id="Path_127" data-name="Path 127" class="cls-9" d="M212.08,314.71Z" transform="translate(-203.129 -305.758)"/>
          <path id="Path_128" data-name="Path 128" class="cls-4" d="M123.424,198.571l0-8.951a8.922,8.922,0,0,1,6.349,2.638l-6.344,6.313Z" transform="translate(-114.473 -189.619)"/>
          <path id="Path_129" data-name="Path 129" class="cls-8" d="M212.08,192.217a8.924,8.924,0,0,1,6.308-2.607l0,8.951Z" transform="translate(-209.442 -189.61)"/>
          <path id="Path_130" data-name="Path 130" class="cls-10" d="M86.99,232.8l6.344-6.313a8.923,8.923,0,0,1,2.607,6.309Z" transform="translate(-78.039 -223.851)"/>
          <path id="Path_131" data-name="Path 131" class="cls-7" d="M212.08,232.389a8.92,8.92,0,0,1,2.638-6.349l6.313,6.344Z" transform="translate(-212.08 -223.433)"/>
          <path id="Path_132" data-name="Path 132" class="cls-10" d="M221.031,314.71l-6.344,6.313a8.921,8.921,0,0,1-2.607-6.309l8.951,0Z" transform="translate(-212.08 -305.758)"/>
        </g>
      </g>
    </g>
  </g>
</svg>
