<svg xmlns="http://www.w3.org/2000/svg" viewBox="0 0 128.262 119.133">
  <defs>
    <style>
      .cls-1 {
        fill: #31a283;
      }

      .cls-2 {
        fill: #231f20;
        opacity: 0.25;
      }

      .cls-3 {
        fill: #2c9176;
      }

      .cls-4 {
        fill: #c3b560;
      }

      .cls-5 {
        fill: #b2d614;
      }

      .cls-6 {
        fill: none;
        stroke: #fff;
        stroke-miterlimit: 10;
        stroke-width: 20px;
      }

      .cls-7 {
        fill: #8fbf2d;
      }
    </style>
  </defs>
  <g id="Group_132" data-name="Group 132" transform="translate(-1491.031 -450)">
    <g id="Group_126" data-name="Group 126" transform="translate(1491.031 450)">
      <rect id="Rectangle_303" data-name="Rectangle 303" class="cls-1" width="57.534" height="89.898" transform="translate(2.557 28.779)"/>
      <rect id="Rectangle_304" data-name="Rectangle 304" class="cls-1" width="62.649" height="10.666" transform="translate(0 18.114)"/>
      <rect id="Rectangle_305" data-name="Rectangle 305" class="cls-2" width="57.534" height="1.619" transform="translate(2.557 28.79)"/>
      <path id="Path_341" data-name="Path 341" class="cls-3" d="M10.82,223.431,38.962,134.24l29.564,89.191" transform="translate(-8.443 -104.749)"/>
      <g id="Group_125" data-name="Group 125" transform="translate(26.692 18.14)">
        <rect id="Rectangle_306" data-name="Rectangle 306" class="cls-3" height="100.564" transform="translate(4.284)"/>
        <rect id="Rectangle_307" data-name="Rectangle 307" class="cls-4" width="8.572" height="100.564"/>
      </g>
      <path id="Path_342" data-name="Path 342" class="cls-4" d="M97.951,2.123c-5.6-7.786-15.925,11.055-16.25,11.65-.051-.1-10.253-19.741-16.061-11.947C59.257,10.389,81.6,13.762,81.7,13.777c0,.007-.013.024-.013.024S104.2,10.813,97.951,2.123Z" transform="translate(-50.324 0.002)"/>
    </g>
    <g id="Group_43" data-name="Group 43" transform="translate(1559.68 473)">
      <rect id="Rectangle_228" data-name="Rectangle 228" class="cls-5" width="54.747" height="59.822" transform="translate(2.433 30.24)"/>
      <rect id="Rectangle_229" data-name="Rectangle 229" class="cls-4" width="59.614" height="10.15" transform="translate(0 20.09)"/>
      <rect id="Rectangle_230" data-name="Rectangle 230" class="cls-2" width="54.747" height="1.541" transform="translate(2.433 30.25)"/>
      <path id="Path_173" data-name="Path 173" class="cls-4" d="M78.629,16.135l-.536-.106a78.332,78.332,0,0,1-9.19-2.539C62.564,11.28,58.851,8.845,57.868,6.255A4.259,4.259,0,0,1,58.691,2,4.456,4.456,0,0,1,62.628.008c2.83.167,6.34,2.86,10.436,8.006a74.568,74.568,0,0,1,5.29,7.649ZM62.358.49A4.034,4.034,0,0,0,59.08,2.3a3.755,3.755,0,0,0-.757,3.785c2.007,5.286,16.31,8.689,19.312,9.349C76.054,12.852,68.377.838,62.6.5,62.518.493,62.438.49,62.358.49Z" transform="translate(-48.192 0)"/>
      <path id="Path_174" data-name="Path 174" class="cls-4" d="M178.86,16.273l.276-.471a74.767,74.767,0,0,1,5.29-7.649c4.094-5.146,7.605-7.839,10.436-8.006A4.459,4.459,0,0,1,198.8,2.14a4.259,4.259,0,0,1,.824,4.254c-.984,2.592-4.7,5.025-11.037,7.233a78.236,78.236,0,0,1-9.19,2.539ZM195.13.628c-.08,0-.16,0-.24.007-5.782.342-13.459,12.357-15.039,14.933,3-.66,17.306-4.062,19.312-9.349a3.751,3.751,0,0,0-.757-3.785A4.029,4.029,0,0,0,195.13.628Z" transform="translate(-149.632 -0.117)"/>
      <path id="Path_175" data-name="Path 175" class="cls-6" d="M272.04,588.28" transform="translate(-227.585 -492.147)"/>
      <ellipse id="Ellipse_11" data-name="Ellipse 11" class="cls-7" cx="2.896" cy="2.896" rx="2.896" ry="2.896" transform="translate(11.436 43.551) rotate(-88.367)"/>
      <ellipse id="Ellipse_12" data-name="Ellipse 12" class="cls-7" cx="2.896" cy="2.896" rx="2.896" ry="2.896" transform="translate(11.436 52.781) rotate(-88.367)"/>
      <path id="Path_176" data-name="Path 176" class="cls-7" d="M69.88,185.11l-54.7,59.806,54.692.015Z" transform="translate(-12.699 -154.86)"/>
      <path id="Path_177" data-name="Path 177" class="cls-6" d="M126.83,387.51" transform="translate(-106.104 -324.186)"/>
      <g id="Group_42" data-name="Group 42" transform="translate(26.343 27.259)">
        <rect id="Rectangle_231" data-name="Rectangle 231" class="cls-3" height="62.777" transform="translate(3.188)"/>
        <rect id="Rectangle_232" data-name="Rectangle 232" class="cls-4" width="6.376" height="62.777"/>
      </g>
    </g>
  </g>
</svg>
