<svg xmlns="http://www.w3.org/2000/svg" viewBox="0 0 547.496 229.016">
  <defs>
    <style>
      .cls-1 {
        fill: #c3b560;
      }

      .cls-2 {
        fill: #e80037;
      }

      .cls-3 {
        fill: #b2d614;
      }

      .cls-10, .cls-4 {
        fill: #231f20;
      }

      .cls-4 {
        opacity: 0.25;
      }

      .cls-5 {
        fill: #bd002d;
      }

      .cls-6 {
        fill: #31a283;
      }

      .cls-7 {
        fill: #2c9176;
      }

      .cls-8 {
        fill: #8fbf2d;
      }

      .cls-9 {
        fill: #f9f4e1;
      }

      .cls-10 {
        opacity: 0.1;
      }

      .cls-11 {
        fill: #9b893e;
      }

      .cls-12 {
        fill: #413d3e;
      }

      .cls-13 {
        fill: none;
      }

      .cls-14 {
        fill: #fff;
      }

      .cls-15 {
        fill: #f38e02;
      }
    </style>
  </defs>
  <g id="Group_129" data-name="Group 129" transform="translate(-1007.992 -692.544)">
    <g id="Group_88" data-name="Group 88" transform="translate(0 -72)">
      <g id="Group_84" data-name="Group 84" transform="translate(-0.231 1.137)">
        <path id="Path_240" data-name="Path 240" class="cls-1" d="M158.179,1078.161c-3.9-5.925-11.1,8.411-11.323,8.864-.036-.074-7.145-15.022-11.192-9.09-4.447,6.516,11.124,9.082,11.191,9.093,0,0-.009.018-.009.018S162.531,1084.773,158.179,1078.161Z" transform="translate(882.785 -135.152)"/>
        <rect id="Rectangle_269" data-name="Rectangle 269" class="cls-2" width="39.272" height="30.683" transform="translate(1010.049 961.158)"/>
        <rect id="Rectangle_270" data-name="Rectangle 270" class="cls-3" width="42.937" height="7.643" transform="translate(1008.222 953.692)"/>
        <rect id="Rectangle_271" data-name="Rectangle 271" class="cls-4" width="39.272" height="1.161" transform="translate(1010.052 961.32)"/>
        <path id="Path_241" data-name="Path 241" class="cls-5" d="M88.09,1237.613,99.2,1208.14l8.055,29.472,10.009-29.472,10.131,29.472Z" transform="translate(921.956 -245.736)"/>
      </g>
    </g>
    <g id="Group_85" data-name="Group 85" transform="translate(0 -71)">
      <rect id="Rectangle_272" data-name="Rectangle 272" class="cls-2" width="55.24" height="61.715" transform="translate(1133.223 930.609)"/>
      <rect id="Rectangle_273" data-name="Rectangle 273" class="cls-2" width="58.953" height="9.213" transform="translate(1131.365 921.396)"/>
      <rect id="Rectangle_274" data-name="Rectangle 274" class="cls-4" width="55.24" height="2.048" transform="translate(1133.223 930.609)"/>
      <path id="Path_242" data-name="Path 242" class="cls-5" d="M850.21,1022.56l26.4,59.862,28.807-59.9Z" transform="translate(283.042 -89.862)"/>
      <circle id="Ellipse_19" data-name="Ellipse 19" class="cls-2" cx="2.865" cy="2.865" r="2.865" transform="translate(1157.528 942.228) rotate(-88.367)"/>
      <circle id="Ellipse_20" data-name="Ellipse 20" class="cls-2" cx="2.865" cy="2.865" r="2.865" transform="translate(1157.799 951.695) rotate(-88.367)"/>
    </g>
    <g id="Group_86" data-name="Group 86" transform="translate(0 -72)">
      <rect id="Rectangle_275" data-name="Rectangle 275" class="cls-6" width="42.338" height="66.154" transform="translate(1139.325 848.429)"/>
      <rect id="Rectangle_276" data-name="Rectangle 276" class="cls-6" width="46.101" height="7.849" transform="translate(1137.443 840.58)"/>
      <rect id="Rectangle_277" data-name="Rectangle 277" class="cls-4" width="42.338" height="1.191" transform="translate(1139.325 848.435)"/>
      <path id="Path_243" data-name="Path 243" class="cls-7" d="M886.95,570.365l20.711-65.635,21.755,65.635" transform="translate(252.241 344.221)"/>
      <g id="Group_60" data-name="Group 60" transform="translate(1157.084 840.599)">
        <rect id="Rectangle_278" data-name="Rectangle 278" class="cls-7" height="74.002" transform="translate(3.154)"/>
        <rect id="Rectangle_279" data-name="Rectangle 279" class="cls-1" width="6.308" height="74.002"/>
      </g>
      <path id="Path_244" data-name="Path 244" class="cls-1" d="M965.252,372.061c-4.121-5.731-11.719,8.133-11.957,8.573-.037-.071-7.545-14.527-11.819-8.791-4.7,6.3,11.746,8.783,11.818,8.794,0,0-.01.018-.01.018S969.849,378.457,965.252,372.061Z" transform="translate(207.237 456.753)"/>
    </g>
    <g id="Group_87" data-name="Group 87" transform="translate(-1 -71)">
      <rect id="Rectangle_266" data-name="Rectangle 266" class="cls-3" width="54.16" height="125.143" transform="translate(1067.263 867.139)"/>
      <rect id="Rectangle_267" data-name="Rectangle 267" class="cls-1" width="58.974" height="10.041" transform="translate(1064.856 857.098)"/>
      <rect id="Rectangle_268" data-name="Rectangle 268" class="cls-4" width="54.16" height="1.524" transform="translate(1067.263 867.147)"/>
      <path id="Path_237" data-name="Path 237" class="cls-8" d="M497.421,617.29,443.5,675.234l53.827,1.007Z" transform="translate(624.002 249.857)"/>
      <path id="Path_238" data-name="Path 238" class="cls-8" d="M662.1,1082.88l-4.16,14.538,8.2.011Z" transform="translate(444.229 -140.464)"/>
      <path id="Path_239" data-name="Path 239" class="cls-8" d="M661.691,1182.39l-3.961,9.781,7.517.011Z" transform="translate(444.405 -223.888)"/>
      <path id="Path_245" data-name="Path 245" class="cls-1" d="M505.516,448.152l-.53-.105a77.491,77.491,0,0,1-9.092-2.512c-6.271-2.184-9.945-4.593-10.919-7.155a4.214,4.214,0,0,1,.815-4.21,4.413,4.413,0,0,1,3.9-1.971c2.8.165,6.273,2.829,10.324,7.92a73.768,73.768,0,0,1,5.233,7.567Zm-16.1-15.476a3.991,3.991,0,0,0-3.243,1.786,3.714,3.714,0,0,0-.749,3.744c1.987,5.231,16.135,8.6,19.105,9.249-1.563-2.548-9.158-14.435-14.878-14.773C489.579,432.677,489.5,432.676,489.42,432.676Z" transform="translate(589.45 405.033)"/>
      <path id="Path_246" data-name="Path 246" class="cls-1" d="M605.99,448.282l.273-.466a73.966,73.966,0,0,1,5.233-7.567c4.05-5.091,7.524-7.755,10.324-7.92a4.411,4.411,0,0,1,3.9,1.971,4.214,4.214,0,0,1,.815,4.208c-.973,2.564-4.646,4.971-10.919,7.155a77.4,77.4,0,0,1-9.092,2.512Zm16.1-15.476c-.079,0-.158,0-.238.006-5.72.338-13.314,12.225-14.878,14.773,2.97-.653,17.12-4.019,19.107-9.249a3.711,3.711,0,0,0-.748-3.744A3.991,3.991,0,0,0,622.085,432.806Z" transform="translate(487.78 404.924)"/>
    </g>
    <g id="Group_90" data-name="Group 90" transform="translate(0 -71)">
      <g id="Group_64" data-name="Group 64" transform="translate(1199.664 924.254)">
        <g id="Group_63" data-name="Group 63" transform="translate(0 20.943)">
          <path id="Path_247" data-name="Path 247" class="cls-1" d="M1261.02,1100.09H1285.4l-8.971,9.651h-15.4Z" transform="translate(-1261.02 -1100.09)"/>
          <path id="Path_248" data-name="Path 248" class="cls-1" d="M1459.95,1100.09l-8.972,9.651H1427.92l8.974-9.651Z" transform="translate(-1400.939 -1100.09)"/>
          <path id="Path_249" data-name="Path 249" class="cls-1" d="M1664.942,1100.09v9.651H1642.18l8.972-9.651Z" transform="translate(-1580.561 -1100.09)"/>
          <path id="Path_250" data-name="Path 250" class="cls-9" d="M1341.527,1159.79l-1.224,1.316h-11.578l1.222-1.316h-23.058l-1.224,1.316h-11.577l1.224-1.316H1283.55v1.316h0v36.178h77.1V1159.79Z" transform="translate(-1279.908 -1150.139)"/>
          <g id="Group_62" data-name="Group 62" transform="translate(3.642)">
            <g id="Group_61" data-name="Group 61">
              <path id="Path_251" data-name="Path 251" class="cls-2" d="M1306.889,1109.741l8.974-9.651h-11.58l-8.971,9.651h0l-1.225,1.316-10.537,11.336v12.456l22.115-23.792Z" transform="translate(-1283.55 -1100.09)"/>
              <path id="Path_252" data-name="Path 252" class="cls-2" d="M1400.722,1111.057l1.224-1.316,8.972-9.651h-11.58l-8.972,9.651-1.222,1.316h.108l-33.632,36.178h11.58l33.63-36.178Z" transform="translate(-1343.969 -1100.09)"/>
              <path id="Path_253" data-name="Path 253" class="cls-2" d="M1569.2,1219.249h11.578l19.34-20.8V1185.99Z" transform="translate(-1523.021 -1172.103)"/>
            </g>
          </g>
          <rect id="Rectangle_280" data-name="Rectangle 280" class="cls-10" width="77.097" height="2.604" transform="translate(3.642 9.651)"/>
        </g>
        <path id="Path_254" data-name="Path 254" class="cls-1" d="M1560.906,986.5l-.53-.105a77.486,77.486,0,0,1-9.092-2.512c-6.271-2.184-9.946-4.593-10.919-7.155a4.214,4.214,0,0,1,.815-4.21,4.4,4.4,0,0,1,3.9-1.971c2.8.165,6.273,2.829,10.324,7.92a73.783,73.783,0,0,1,5.233,7.567Zm-16.1-15.478a3.991,3.991,0,0,0-3.243,1.786,3.714,3.714,0,0,0-.749,3.744c1.987,5.231,16.135,8.6,19.105,9.249-1.563-2.548-9.158-14.435-14.878-14.773C1544.967,971.026,1544.888,971.023,1544.81,971.023Z" transform="translate(-1494.988 -970.539)"/>
        <path id="Path_255" data-name="Path 255" class="cls-1" d="M1661.37,986.631l.273-.466a73.958,73.958,0,0,1,5.233-7.567c4.05-5.091,7.524-7.755,10.324-7.92a4.408,4.408,0,0,1,3.9,1.971,4.214,4.214,0,0,1,.815,4.208c-.973,2.564-4.646,4.971-10.919,7.155a77.4,77.4,0,0,1-9.092,2.512Zm16.095-15.478c-.079,0-.158,0-.238.006-5.72.338-13.315,12.225-14.878,14.773,2.97-.653,17.12-4.019,19.105-9.249a3.71,3.71,0,0,0-.749-3.744A3.99,3.99,0,0,0,1677.465,971.153Z" transform="translate(-1596.649 -970.649)"/>
      </g>
    </g>
    <g id="Group_91" data-name="Group 91" transform="translate(0 -72)">
      <path id="Path_256" data-name="Path 256" class="cls-3" d="M1874.64,53.725h51.735L1900.508,0Z" transform="translate(-575.777 767.355)"/>
      <rect id="Rectangle_281" data-name="Rectangle 281" class="cls-11" width="1.263" height="3.849" transform="translate(1342.879 904.113)"/>
      <path id="Path_257" data-name="Path 257" class="cls-12" d="M1997.77,1105.009l4.963,46.093h3.739l3.059-46.093S1997.942,1104.839,1997.77,1105.009Z" transform="translate(-679.002 -158.953)"/>
      <path id="Path_258" data-name="Path 258" class="cls-2" d="M1874.64,312.205h51.735l-25.867-53.725Z" transform="translate(-575.777 550.661)"/>
      <path id="Path_259" data-name="Path 259" class="cls-1" d="M1874.64,570.685h51.735l-25.867-53.725Z" transform="translate(-575.777 333.968)"/>
      <path id="Path_260" data-name="Path 260" class="cls-2" d="M1874.64,829.165h51.735l-25.867-53.725Z" transform="translate(-575.777 117.274)"/>
      <circle id="Ellipse_22" data-name="Ellipse 22" class="cls-3" cx="6.466" cy="6.466" r="6.466" transform="translate(1337.044 907.364)"/>
      <circle id="Ellipse_23" data-name="Ellipse 23" class="cls-5" cx="2.865" cy="2.865" r="2.865" transform="translate(1321.236 938.38) rotate(-88.367)"/>
      <circle id="Ellipse_24" data-name="Ellipse 24" class="cls-5" cx="2.865" cy="2.865" r="2.865" transform="translate(1322.295 840.386) rotate(-88.367)"/>
      <circle id="Ellipse_25" data-name="Ellipse 25" class="cls-8" cx="2.865" cy="2.865" r="2.865" transform="translate(1322.185 803.843) rotate(-88.367)"/>
    </g>
    <g id="Group_89" data-name="Group 89" transform="translate(0 -72)">
      <g id="Group_65" data-name="Group 65" transform="translate(1202.404 869.706)">
        <path id="Path_261" data-name="Path 261" class="cls-13" d="M1329.91,673.3a5.935,5.935,0,0,1,1.883-.677l.042-.006a6.016,6.016,0,0,1,1.017-.091,5.941,5.941,0,0,1,.8.061c.076.011.152.021.228.036a5.917,5.917,0,0,1,2.515,1.093l.17.126a6.3,6.3,0,0,1,.491.438,5.929,5.929,0,0,1,1.732,4.211l0,1.565,0,1.515" transform="translate(-1321.513 -667.158)"/>
        <path id="Path_262" data-name="Path 262" class="cls-2" d="M1389.747,835.27l-.006,2.318,0,.58-5.359-5,.008-2.695,0-2.32,0-1.615,5.361,4.934Z" transform="translate(-1367.177 -796.27)"/>
        <path id="Path_263" data-name="Path 263" class="cls-2" d="M1323.154,653.183l-.013,4.78,0,1.718-5.359-5,0-1.515,0-1.565a5.927,5.927,0,0,0-1.731-4.211,6.038,6.038,0,0,0-.491-.438l-.17-.126a5.917,5.917,0,0,0-2.516-1.093c-.076-.013-.152-.024-.228-.036a5.941,5.941,0,0,0-.8-.061,6.02,6.02,0,0,0-1.017.091l-.042.006a5.862,5.862,0,0,0-1.883.677l-4.05-3.776a3.1,3.1,0,0,1,.417-.268,11.227,11.227,0,0,1,4.581-1.917l13.3,12.4Z" transform="translate(-1300.513 -640.264)"/>
        <path id="Path_264" data-name="Path 264" class="cls-2" d="M1389.564,901.938l-.013,4.722-5.361-5,.006-2.056.013-4.776,5.359,5Z" transform="translate(-1367.018 -853.52)"/>
        <path id="Path_265" data-name="Path 265" class="cls-2" d="M1389.364,972.108a2.687,2.687,0,1,1-5.374-.014l.013-4.782.006-2.318,0-.634,5.361,5Z" transform="translate(-1366.851 -911.81)"/>
        <path id="Path_266" data-name="Path 266" class="cls-2" d="M1283.343,675.1a2.7,2.7,0,0,1-.071.589,2.639,2.639,0,0,1-.215.588,2.669,2.669,0,0,1-4.808-.015,2.645,2.645,0,0,1-.212-.59,2.536,2.536,0,0,1-.068-.59c0-.385.023-.766.061-1.141.037-.357.092-.708.162-1.054a11.215,11.215,0,0,1,1.908-4.37l3.988,3.72A5.925,5.925,0,0,0,1283.343,675.1Z" transform="translate(-1277.969 -663.796)"/>
        <path id="Path_267" data-name="Path 267" class="cls-2" d="M1389.937,761.74l0,2.32-.011,3.7-5.361-4.934,0-1.1.015-4.782,0-1.175,5.359,5Z" transform="translate(-1367.329 -736.941)"/>
        <path id="Path_268" data-name="Path 268" class="cls-2" d="M1374.253,648.987l-7.663-7.147A11.326,11.326,0,0,1,1374.253,648.987Z" transform="translate(-1352.263 -641.429)"/>
        <path id="Path_269" data-name="Path 269" class="cls-14" d="M1384.131,937.09v.262l-.011,4.148" transform="translate(-1366.959 -888.949)"/>
        <path id="Path_270" data-name="Path 270" class="cls-9" d="M1389.492,942.148l-.006,2.318-.006,2.032-5.359-5,.011-4.148v-.262l5.361,5Z" transform="translate(-1366.959 -888.949)"/>
        <path id="Path_271" data-name="Path 271" class="cls-14" d="M1384.321,867.55l0,2.085-.006,2.318v.006" transform="translate(-1367.119 -830.651)"/>
        <path id="Path_272" data-name="Path 272" class="cls-9" d="M1389.669,876.75v.21l-5.359-5v-.006l.006-2.318,0-2.085,5.359,5Z" transform="translate(-1367.119 -830.651)"/>
        <path id="Path_273" data-name="Path 273" class="cls-9" d="M1336.123,639.358h.045c.086,0,.167.019.252.027a11.776,11.776,0,0,1,1.36-.086c.239,0,.474.023.71.039l0-.01h.045c.086,0,.167.018.251.026a11.268,11.268,0,0,1,1.969.357l7.663,7.147a11.235,11.235,0,0,1,.619,3.042c0,.084.01.168.013.252.007.168.024.333.023.5l0,1.232-13.3-12.4c.116-.021.234-.039.352-.057Z" transform="translate(-1326.426 -639.3)"/>
        <path id="Path_274" data-name="Path 274" class="cls-9" d="M1389.86,805.442l-.006,2.318,0,.986-5.361-4.934.01-3.165,0-1.217,5.361,4.934Z" transform="translate(-1367.27 -773.543)"/>
        <path id="Path_275" data-name="Path 275" class="cls-9" d="M1384.7,728.49l5.359,5,0,.6-.01,3.809-5.359-5,0-1.143Z" transform="translate(-1367.437 -714.071)"/>
        <path id="Path_276" data-name="Path 276" class="cls-9" d="M1297.085,657.942l-.061.039a6.129,6.129,0,0,0-.866.713c-.107.105-.205.217-.3.331a5.959,5.959,0,0,0-.488.648c-.078.118-.15.239-.218.362l-3.988-3.72c.1-.144.21-.286.32-.425l-.01-.011.05-.042a11.484,11.484,0,0,1,1.612-1.646l-.011-.01a2.166,2.166,0,0,1,.254-.221l4.05,3.776C1297.31,657.8,1297.195,657.869,1297.085,657.942Z" transform="translate(-1289.028 -651.59)"/>
      </g>
    </g>
    <g id="Group_92" data-name="Group 92" transform="translate(3 -72)">
      <g id="Group_79" data-name="Group 79" transform="translate(1376.452 764.544)">
        <path id="Path_122" data-name="Path 122" class="cls-1" d="M.1,88.524l1.426-.088c-.031-.467-2.665-47.2,21.412-71.843C33.39,5.9,47.409.8,64.632,1.484,95.735,2.7,111.8,14.793,111.584,26.106c-.166,8.85-10.66,17.8-33.721,17.845-36.614.067-69.78,3.458-73.4,43.675l1.421.124C9.4,48.732,41.934,45.445,77.863,45.377c24.031-.041,34.97-9.7,35.147-19.245.3-15.86-24.083-25.125-48.321-26.073C47.046-.6,32.664,4.595,21.916,15.6-2.6,40.706.073,88.047.1,88.524Z" transform="translate(63.021 -0.003)"/>
        <rect id="Rectangle_210" data-name="Rectangle 210" class="cls-1" width="18.924" height="18.924" transform="translate(56.262 84.694)"/>
        <g id="Group_29" data-name="Group 29" transform="translate(0 98.304)">
          <path id="Path_123" data-name="Path 123" class="cls-2" d="M258.018,379.564a64.637,64.637,0,0,1-46-19.116l45.967-45.739Z" transform="translate(-193.132 -249.85)"/>
          <path id="Path_124" data-name="Path 124" class="cls-1" d="M86.99,314.681l64.854-.031a64.627,64.627,0,0,1-19.116,46L86.99,314.681Z" transform="translate(-22.136 -249.822)"/>
          <path id="Path_125" data-name="Path 125" class="cls-6" d="M123.86,314.71,169.6,360.677a64.66,64.66,0,0,1-45.708,18.888l-.031-64.854Z" transform="translate(-59.006 -249.85)"/>
          <path id="Path_126" data-name="Path 126" class="cls-15" d="M212.08,314.71Z" transform="translate(-147.226 -249.85)"/>
          <path id="Path_127" data-name="Path 127" class="cls-15" d="M212.08,314.71Z" transform="translate(-147.226 -249.85)"/>
          <path id="Path_128" data-name="Path 128" class="cls-2" d="M123.451,254.474l-.031-64.854a64.645,64.645,0,0,1,46,19.116l-45.967,45.739Z" transform="translate(-58.597 -189.615)"/>
          <path id="Path_129" data-name="Path 129" class="cls-6" d="M212.08,208.5a64.659,64.659,0,0,1,45.708-18.888l.031,64.854Z" transform="translate(-192.964 -189.61)"/>
          <path id="Path_130" data-name="Path 130" class="cls-9" d="M86.99,272.229l45.967-45.739A64.65,64.65,0,0,1,151.844,272.2Z" transform="translate(-22.136 -207.369)"/>
          <path id="Path_131" data-name="Path 131" class="cls-1" d="M212.08,272.038a64.627,64.627,0,0,1,19.116-46l45.739,45.967Z" transform="translate(-212.08 -207.152)"/>
          <path id="Path_132" data-name="Path 132" class="cls-9" d="M276.934,314.71l-45.967,45.739a64.638,64.638,0,0,1-18.888-45.708l64.854-.031Z" transform="translate(-212.08 -249.85)"/>
        </g>
      </g>
    </g>
  </g>
</svg>
