<svg xmlns="http://www.w3.org/2000/svg" viewBox="0 0 172.002 156.611">
  <defs>
    <style>
      .cls-1 {
        fill: none;
      }

      .cls-2 {
        fill: #e80037;
      }

      .cls-3 {
        fill: #fff;
      }

      .cls-4 {
        fill: #f9f4e1;
      }

      .cls-5 {
        fill: #c3b560;
      }

      .cls-6 {
        fill: #b2d614;
      }
    </style>
  </defs>
  <g id="Group_130" data-name="Group 130" transform="translate(-43.19 -434.186)">
    <g id="Group_127" data-name="Group 127" transform="matrix(0.966, -0.259, 0.259, 0.966, -1343.34, -59.668)">
      <g id="Group_65" data-name="Group 65" transform="translate(1202.404 869.706)">
        <path id="Path_261" data-name="Path 261" class="cls-1" d="M1342.785,673.653a8.611,8.611,0,0,0-2.731-.982l-.061-.009a8.725,8.725,0,0,0-1.475-.131,8.613,8.613,0,0,0-1.158.089c-.11.016-.22.031-.331.052a8.583,8.583,0,0,0-3.648,1.585l-.246.183a9.124,9.124,0,0,0-.712.635,8.6,8.6,0,0,0-2.511,6.108l.007,2.27.007,2.2" transform="translate(-1321.987 -664.739)"/>
        <path id="Path_262" data-name="Path 262" class="cls-2" d="M1384.4,839.2l.009,3.362,0,.842,7.773-7.25-.012-3.909-.007-3.365-.007-2.342-7.775,7.156Z" transform="translate(-1384.288 -782.638)"/>
        <path id="Path_263" data-name="Path 263" class="cls-2" d="M1304.862,658.917l.019,6.933.007,2.492,7.773-7.25-.007-2.2-.007-2.27a8.6,8.6,0,0,1,2.511-6.108,8.762,8.762,0,0,1,.712-.635l.246-.183a8.582,8.582,0,0,1,3.649-1.585c.11-.019.22-.035.33-.052a8.618,8.618,0,0,1,1.158-.089,8.734,8.734,0,0,1,1.475.131l.061.009a8.5,8.5,0,0,1,2.731.982l5.873-5.477a4.489,4.489,0,0,0-.605-.389,16.282,16.282,0,0,0-6.644-2.781l-19.285,17.988Z" transform="translate(-1304.857 -640.181)"/>
        <path id="Path_264" data-name="Path 264" class="cls-2" d="M1384.2,905.14l.019,6.849,7.775-7.25-.01-2.983-.019-6.926-7.772,7.252Z" transform="translate(-1384.054 -834.917)"/>
        <path id="Path_265" data-name="Path 265" class="cls-2" d="M1384,975.6a3.9,3.9,0,1,0,7.793-.021l-.019-6.936-.009-3.362,0-.919-7.775,7.252Z" transform="translate(-1383.811 -888.144)"/>
        <path id="Path_266" data-name="Path 266" class="cls-2" d="M1279.051,678.068a3.914,3.914,0,0,0,.1.854,3.817,3.817,0,0,0,.312.853,3.871,3.871,0,0,0,6.973-.021,3.836,3.836,0,0,0,.307-.856,3.682,3.682,0,0,0,.1-.856c0-.558-.033-1.111-.089-1.655-.054-.518-.134-1.027-.235-1.529a16.263,16.263,0,0,0-2.767-6.338l-5.784,5.4A8.6,8.6,0,0,1,1279.051,678.068Z" transform="translate(-1253.659 -661.669)"/>
        <path id="Path_267" data-name="Path 267" class="cls-2" d="M1384.565,764.429l.007,3.365.016,5.369,7.775-7.156,0-1.6-.021-6.936,0-1.7-7.773,7.25Z" transform="translate(-1384.513 -728.462)"/>
        <path id="Path_268" data-name="Path 268" class="cls-2" d="M1366.59,652.206,1377.7,641.84A16.427,16.427,0,0,0,1366.59,652.206Z" transform="translate(-1365.64 -641.244)"/>
        <path id="Path_269" data-name="Path 269" class="cls-3" d="M1384.12,937.09v.38l.016,6.016" transform="translate(-1376.1 -867.268)"/>
        <path id="Path_270" data-name="Path 270" class="cls-4" d="M1384.12,944.426l.009,3.362.009,2.947,7.773-7.25-.016-6.016v-.38l-7.775,7.25Z" transform="translate(-1383.958 -867.268)"/>
        <path id="Path_271" data-name="Path 271" class="cls-3" d="M1384.31,867.55l.007,3.025.01,3.362v.009" transform="translate(-1376.335 -814.033)"/>
        <path id="Path_272" data-name="Path 272" class="cls-4" d="M1384.327,880.894v.3l7.772-7.252v-.009l-.01-3.362-.007-3.025-7.772,7.25Z" transform="translate(-1384.19 -814.033)"/>
        <path id="Path_273" data-name="Path 273" class="cls-4" d="M1354.549,639.384h-.066c-.124,0-.241.028-.366.04a17.078,17.078,0,0,0-1.972-.124c-.347,0-.687.033-1.029.056l0-.014h-.066c-.124,0-.241.026-.364.037a16.342,16.342,0,0,0-2.856.518l-11.114,10.366a16.293,16.293,0,0,0-.9,4.413c-.007.122-.014.244-.019.366-.01.244-.035.483-.033.729l0,1.787,19.285-17.988c-.169-.03-.34-.056-.511-.082Z" transform="translate(-1335.77 -639.3)"/>
        <path id="Path_274" data-name="Path 274" class="cls-4" d="M1384.493,808.15l.009,3.362,0,1.43,7.775-7.156-.014-4.591,0-1.766-7.775,7.156Z" transform="translate(-1384.415 -761.885)"/>
        <path id="Path_275" data-name="Path 275" class="cls-4" d="M1392.463,728.49l-7.773,7.25,0,.872.014,5.524,7.773-7.25,0-1.658Z" transform="translate(-1384.659 -707.578)"/>
        <path id="Path_276" data-name="Path 276" class="cls-4" d="M1291.653,659.735l.089.056a8.887,8.887,0,0,1,1.257,1.034c.155.152.3.314.438.481a8.677,8.677,0,0,1,.708.94c.113.171.218.347.316.525l5.784-5.4c-.15-.209-.3-.415-.464-.617l.014-.016-.073-.061a16.656,16.656,0,0,0-2.338-2.387l.016-.014a3.142,3.142,0,0,0-.368-.321l-5.873,5.477C1291.327,659.533,1291.493,659.629,1291.653,659.735Z" transform="translate(-1270.153 -650.523)"/>
      </g>
    </g>
    <g id="Group_124" data-name="Group 124" transform="translate(104.158 426.072) rotate(7)">
      <path id="Path_334" data-name="Path 334" class="cls-5" d="M220.03,58.17l-.763-.385c3.243-6.421,9.534-11.5,9.8-11.716.295-.217,28.221-20.862,29.741-35.5a9.239,9.239,0,0,0-2.29-7.421A6.372,6.372,0,0,0,250.662.925c-9.053,1.189-20.887,17.582-25.213,26.092-3.225,6.344-10.158,28.568-10.229,28.792l-.819-.251c.286-.916,7.026-22.516,10.282-28.925,4.395-8.653,16.5-25.325,25.865-26.554a7.21,7.21,0,0,1,6.607,2.5,10.065,10.065,0,0,1,2.5,8.079C259,16.977,253.734,24.981,244,34.437a156.124,156.124,0,0,1-14.41,12.309C229.536,46.789,223.186,51.916,220.03,58.17Z" transform="translate(-147.86)"/>
      <rect id="Rectangle_302" data-name="Rectangle 302" class="cls-5" width="11.328" height="11.328" transform="matrix(0.909, 0.417, -0.417, 0.909, 64.71, 53.416)"/>
      <g id="Group_123" data-name="Group 123" transform="translate(0.001 61.06)">
        <path id="Path_335" data-name="Path 335" class="cls-4" d="M81.457,202.271A47.031,47.031,0,0,0,17.85,221.618l12.874,6.868A32.421,32.421,0,0,1,87.931,259.01l12.874,6.868a47.031,47.031,0,0,0-19.348-63.607Z" transform="translate(-12.31 -196.731)"/>
        <path id="Path_336" data-name="Path 336" class="cls-4" d="M56.544,330.027a32.423,32.423,0,0,1-38.133-46.249L5.537,276.91A47.016,47.016,0,0,0,88.5,321.176l-12.874-6.868A32.317,32.317,0,0,1,56.544,330.027Z" transform="translate(-0.001 -252.026)"/>
        <path id="Path_337" data-name="Path 337" class="cls-6" d="M118.928,266.649a32.421,32.421,0,0,0-59.588-5.735l57.211,30.523A32.341,32.341,0,0,0,118.928,266.649Z" transform="translate(-40.924 -229.158)"/>
        <path id="Path_338" data-name="Path 338" class="cls-2" d="M64.183,342.919a32.433,32.433,0,0,0,43.866-13.342L50.841,299.05a32.437,32.437,0,0,0,13.342,43.869Z" transform="translate(-32.428 -267.295)"/>
        <path id="Path_339" data-name="Path 339" class="cls-4" d="M135.746,310.781A14.646,14.646,0,0,0,108.82,308.2l25.853,13.786A14.608,14.608,0,0,0,135.746,310.781Z" transform="translate(-75.047 -268.251)"/>
        <path id="Path_340" data-name="Path 340" class="cls-5" d="M111.018,345.309a14.652,14.652,0,0,0,19.819-6.043L104.985,325.48a14.662,14.662,0,0,0,6.033,19.829Z" transform="translate(-71.213 -285.522)"/>
      </g>
    </g>
  </g>
</svg>
