<?xml version="1.0" encoding="utf-8"?>
<!-- Generator: Adobe Illustrator 23.0.4, SVG Export Plug-In . SVG Version: 6.00 Build 0)  -->
<svg version="1.1" id="Capa_1" xmlns="http://www.w3.org/2000/svg" xmlns:xlink="http://www.w3.org/1999/xlink" x="0px" y="0px"
	 viewBox="0 0 350 350" style="enable-background:new 0 0 350 350;" xml:space="preserve">
<style type="text/css">
	.st0{fill:#333333;}
</style>
<g>
	<path class="st0" d="M175,328.6c-84.7,0-153.6-68.9-153.6-153.6S90.3,21.4,175,21.4c42.4,0,81.8,16.9,111.1,47.6
		c3.9,4.1,3.8,10.6-0.3,14.5c-4.1,3.9-10.6,3.8-14.5-0.3c-25.4-26.6-59.6-41.2-96.3-41.2c-73.4,0-133.1,59.7-133.1,133.1
		S101.6,308.1,175,308.1S308.1,248.4,308.1,175c0-23.5-6.2-46.6-17.9-66.8c-2.9-4.9-1.2-11.2,3.7-14c4.9-2.9,11.2-1.2,14,3.7
		c13.5,23.3,20.7,49.9,20.7,77.1C328.6,259.7,259.7,328.6,175,328.6L175,328.6z M175,328.6"/>
	<path class="st0" d="M113.6,175c-16.9,0-30.7-13.8-30.7-30.7c0-5.7,4.6-10.2,10.2-10.2s10.2,4.6,10.2,10.2
		c0,5.6,4.6,10.2,10.2,10.2c5.7,0,10.2-4.6,10.2-10.2c0-5.7,4.6-10.2,10.2-10.2s10.2,4.6,10.2,10.2C144.3,161.2,130.5,175,113.6,175
		L113.6,175z M113.6,175"/>
	<path class="st0" d="M205.7,175c-16.9,0-30.7-13.8-30.7-30.7c0-5.7,4.6-10.2,10.2-10.2c5.7,0,10.2,4.6,10.2,10.2
		c0,5.6,4.6,10.2,10.2,10.2c5.7,0,10.2-4.6,10.2-10.2c0-5.7,4.6-10.2,10.2-10.2c5.7,0,10.2,4.6,10.2,10.2
		C236.4,161.2,222.7,175,205.7,175L205.7,175z M205.7,175"/>
	<path class="st0" d="M241.2,256.9c-3.3,0-6.5-1.6-8.5-4.5c-15.3-22.8-40.7-36.4-68-36.4c-27.3,0-52.7,13.6-68,36.4
		c-3.2,4.7-9.5,5.9-14.2,2.8c-4.7-3.1-6-9.5-2.8-14.2c19.1-28.5,50.8-45.5,85-45.5c34.1,0,65.9,17,85,45.5
		c3.1,4.7,1.9,11.1-2.8,14.2C245.2,256.4,243.2,256.9,241.2,256.9L241.2,256.9z M241.2,256.9"/>
</g>
</svg>
