<?xml version="1.0" encoding="UTF-8"?>
<svg width="32px" height="24px" viewBox="0 0 32 24" version="1.1" xmlns="http://www.w3.org/2000/svg" xmlns:xlink="http://www.w3.org/1999/xlink">
    <!-- Generator: Sketch 50 (54983) - http://www.bohemiancoding.com/sketch -->
    <title>user-9</title>
    <desc>Created with Sketch.</desc>
    <defs>
        <path d="M3.675,9.2495 C3.34999838,9.2495 3.03150156,9.19316723 2.7195,9.0805 C2.40749844,8.96783277 2.12908456,8.79775114 1.88425,8.57025 C1.63941544,8.34274886 1.44333407,8.06108501 1.296,7.72525 C1.14866593,7.38941499 1.075,6.99616892 1.075,6.5455 C1.075,6.12516456 1.15299922,5.73083517 1.309,5.3625 C1.46500078,4.99416482 1.68383193,4.67133472 1.9655,4.394 C2.24716808,4.11666528 2.5851647,3.89783414 2.9795,3.7375 C3.37383531,3.57716586 3.80933095,3.497 4.286,3.497 C4.76700241,3.497 5.19924808,3.57283257 5.58275,3.7245 C5.96625192,3.87616743 6.29341531,4.08849864 6.56425,4.3615 C6.83508469,4.63450136 7.04308261,4.96166476 7.18825,5.343 C7.33341739,5.72433524 7.406,6.14249772 7.406,6.5975 C7.406,6.88783478 7.38108358,7.1629987 7.33125,7.423 C7.28141642,7.6830013 7.20991713,7.9332488 7.11675,8.17375 C7.02358287,8.4142512 6.91200065,8.64824886 6.782,8.87575 C6.65199935,9.10325114 6.50683414,9.33183218 6.3465,9.5615 L4.195,12.6295 C4.12133297,12.7335005 4.01191739,12.8212496 3.86675,12.89275 C3.72158261,12.9642504 3.55583427,13 3.3695,13 L1.894,13 L4.8125,9.3535 C4.88616704,9.26249954 4.95549968,9.1736671 5.0205,9.087 C5.08550033,9.0003329 5.14833303,8.9136671 5.209,8.827 C4.99233225,8.96566736 4.7540013,9.07074964 4.494,9.14225 C4.2339987,9.21375036 3.96100143,9.2495 3.675,9.2495 Z M5.8655,6.435 C5.8655,6.17933205 5.82650039,5.95075101 5.7485,5.74925 C5.67049961,5.54774899 5.56000072,5.37766736 5.417,5.239 C5.27399929,5.10033264 5.10391765,4.99416703 4.90675,4.9205 C4.70958235,4.84683296 4.49400117,4.81 4.26,4.81 C4.01733212,4.81 3.79850098,4.85008293 3.6035,4.93025 C3.40849903,5.01041707 3.24275068,5.12199928 3.10625,5.265 C2.96974932,5.40800071 2.86466704,5.57808235 2.791,5.77525 C2.71733297,5.97241765 2.6805,6.18799883 2.6805,6.422 C2.6805,6.94633596 2.81591531,7.34608196 3.08675,7.62125 C3.35758469,7.89641804 3.74216418,8.034 4.2405,8.034 C4.5005013,8.034 4.73124899,7.99283374 4.93275,7.9105 C5.13425101,7.82816625 5.30433264,7.71550071 5.443,7.5725 C5.58166736,7.42949929 5.68674964,7.26050098 5.75825,7.0655 C5.82975036,6.87049902 5.8655,6.66033446 5.8655,6.435 Z" id="path-1"></path>
    </defs>
    <g id="Page-1" stroke="none" stroke-width="1" fill="none" fill-rule="evenodd">
        <g id="user-9" transform="translate(0.000000, -3.000000)">
            <path d="M15.2323944,17.6066066 L5.76760563,17.6066066 C2.53419718,17.6066066 0,20.1909479 0,23.4883358 L0,25.901353 C0,26.542009 0.405802817,26.957048 1.03521127,26.957048 C1.66461972,26.957048 2.07042254,26.542009 2.07042254,25.901353 L2.07042254,23.4883358 C2.07042254,21.3745328 3.6948169,19.7179966 5.76760563,19.7179966 L15.2323944,19.7179966 C17.3051831,19.7179966 18.9295775,21.3745328 18.9295775,23.4883358 L18.9295775,25.901353 C18.9295775,26.542009 19.3353803,26.957048 19.9647887,26.957048 C20.5941972,26.957048 21,26.542009 21,25.901353 L21,23.4883358 C21,20.1909479 18.4658028,17.6066066 15.2323944,17.6066066" id="Fill-1" fill="#8FCA00" fill-rule="nonzero"></path>
            <path d="M10.7203898,3 C7.3215036,3 4.56521739,5.73651455 4.56521739,9.11375011 C4.56521739,12.4909857 7.3215036,15.2275002 10.7203898,15.2275002 C14.119276,15.2275002 16.8755622,12.4909857 16.8755622,9.11375011 C16.8755622,5.73651455 14.119276,3 10.7203898,3 M10.7203898,4.83412503 C13.0962864,4.83412503 15.0290105,6.75384257 15.0290105,9.11375011 C15.0290105,11.4736577 13.0962864,13.3933752 10.7203898,13.3933752 C8.34449325,13.3933752 6.41176912,11.4736577 6.41176912,9.11375011 C6.41176912,6.75384257 8.34449325,4.83412503 10.7203898,4.83412503" id="Fill-3" fill="#8FCA00" fill-rule="nonzero"></path>
            <g id="9" transform="translate(24.000000, 0.000000)">
                <g>
                    <use fill="#000000" xlink:href="#path-1"></use>
                    <use fill="#8FCA00" xlink:href="#path-1"></use>
                </g>
            </g>
        </g>
    </g>
</svg>