<?xml version="1.0" encoding="UTF-8"?>
<svg width="32px" height="24px" viewBox="0 0 32 24" version="1.1" xmlns="http://www.w3.org/2000/svg" xmlns:xlink="http://www.w3.org/1999/xlink">
    <!-- Generator: Sketch 50 (54983) - http://www.bohemiancoding.com/sketch -->
    <title>user-3</title>
    <desc>Created with Sketch.</desc>
    <defs>
        <path d="M4.2925,3.497 C4.7258355,3.497 5.11691492,3.55874938 5.46575,3.68225 C5.81458508,3.80575062 6.11249877,3.97691557 6.3595,4.19575 C6.60650124,4.41458443 6.79608267,4.67133186 6.92825,4.966 C7.06041733,5.26066814 7.1265,5.57916495 7.1265,5.9215 C7.1265,6.22050149 7.092917,6.48374886 7.02575,6.71125 C6.958583,6.93875114 6.86108397,7.13699915 6.73325,7.306 C6.60541603,7.47500085 6.44941759,7.61799941 6.26525,7.735 C6.08108241,7.85200058 5.87200117,7.94949961 5.638,8.0275 C6.20133615,8.20516755 6.62166528,8.47599818 6.899,8.84 C7.17633472,9.20400182 7.315,9.66116391 7.315,10.2115 C7.315,10.6795023 7.2283342,11.0933315 7.055,11.453 C6.8816658,11.8126685 6.64766814,12.1149154 6.353,12.35975 C6.05833186,12.6045846 5.71708527,12.7898327 5.32925,12.9155 C4.94141473,13.0411673 4.5308355,13.104 4.0975,13.104 C3.62516431,13.104 3.21350176,13.0498339 2.8625,12.9415 C2.51149825,12.8331661 2.2060013,12.6728344 1.946,12.4605 C1.6859987,12.2481656 1.46500091,11.9881682 1.283,11.6805 C1.10099909,11.3728318 0.94500065,11.017502 0.815,10.6145 L1.5235,10.322 C1.64483394,10.2699997 1.76833271,10.244 1.894,10.244 C2.00666723,10.244 2.10741622,10.2678331 2.19625,10.3155 C2.28508378,10.3631669 2.3533331,10.4324995 2.401,10.5235 C2.47900039,10.6751674 2.56458287,10.8246659 2.65775,10.972 C2.75091713,11.1193341 2.86249935,11.2504161 2.9925,11.36525 C3.12250065,11.4800839 3.27524912,11.5732496 3.45075,11.64475 C3.62625088,11.7162504 3.83533212,11.752 4.078,11.752 C4.35100137,11.752 4.58933232,11.7075838 4.793,11.61875 C4.99666769,11.5299162 5.16674932,11.4140007 5.30325,11.271 C5.43975068,11.1279993 5.541583,10.9687509 5.60875,10.79325 C5.675917,10.6177491 5.7095,10.4411676 5.7095,10.2635 C5.7095,10.0381655 5.68566691,9.83341759 5.638,9.64925 C5.5903331,9.46508241 5.49066743,9.30800065 5.339,9.178 C5.18733258,9.04799935 4.96958475,8.94616704 4.68575,8.8725 C4.40191525,8.79883296 4.02166905,8.762 3.545,8.762 L3.545,7.618 C3.93933531,7.61366664 4.2664987,7.57683368 4.5265,7.5075 C4.7865013,7.43816632 4.9934159,7.34175062 5.14725,7.21825 C5.3010841,7.09474938 5.40833303,6.9463342 5.469,6.773 C5.52966697,6.5996658 5.56,6.40900104 5.56,6.201 C5.56,5.75466444 5.43866788,5.41775114 5.196,5.19025 C4.95333212,4.96274886 4.62183544,4.849 4.2015,4.849 C3.82016476,4.849 3.50383459,4.94974899 3.2525,5.15125 C3.00116541,5.35275101 2.82566717,5.61166508 2.726,5.928 C2.67399974,6.09266749 2.60250046,6.21074964 2.5115,6.28225 C2.42049955,6.35375036 2.30133407,6.3895 2.154,6.3895 C2.08466632,6.3895 2.01100039,6.38300006 1.933,6.37 L1.088,6.2205 C1.15300033,5.76983108 1.27866574,5.37441837 1.465,5.03425 C1.65133427,4.69408163 1.8842486,4.41025114 2.16375,4.18275 C2.4432514,3.95524886 2.76391486,3.78408391 3.12575,3.66925 C3.48758514,3.55441609 3.87649792,3.497 4.2925,3.497 Z" id="path-1"></path>
    </defs>
    <g id="Page-1" stroke="none" stroke-width="1" fill="none" fill-rule="evenodd">
        <g id="user-3" transform="translate(0.000000, -3.000000)">
            <path d="M15.2323944,17.6066066 L5.76760563,17.6066066 C2.53419718,17.6066066 0,20.1909479 0,23.4883358 L0,25.901353 C0,26.542009 0.405802817,26.957048 1.03521127,26.957048 C1.66461972,26.957048 2.07042254,26.542009 2.07042254,25.901353 L2.07042254,23.4883358 C2.07042254,21.3745328 3.6948169,19.7179966 5.76760563,19.7179966 L15.2323944,19.7179966 C17.3051831,19.7179966 18.9295775,21.3745328 18.9295775,23.4883358 L18.9295775,25.901353 C18.9295775,26.542009 19.3353803,26.957048 19.9647887,26.957048 C20.5941972,26.957048 21,26.542009 21,25.901353 L21,23.4883358 C21,20.1909479 18.4658028,17.6066066 15.2323944,17.6066066" id="Fill-1" fill="#8FCA00" fill-rule="nonzero"></path>
            <path d="M10.7203898,3 C7.3215036,3 4.56521739,5.73651455 4.56521739,9.11375011 C4.56521739,12.4909857 7.3215036,15.2275002 10.7203898,15.2275002 C14.119276,15.2275002 16.8755622,12.4909857 16.8755622,9.11375011 C16.8755622,5.73651455 14.119276,3 10.7203898,3 M10.7203898,4.83412503 C13.0962864,4.83412503 15.0290105,6.75384257 15.0290105,9.11375011 C15.0290105,11.4736577 13.0962864,13.3933752 10.7203898,13.3933752 C8.34449325,13.3933752 6.41176912,11.4736577 6.41176912,9.11375011 C6.41176912,6.75384257 8.34449325,4.83412503 10.7203898,4.83412503" id="Fill-3" fill="#8FCA00" fill-rule="nonzero"></path>
            <g id="3" transform="translate(24.000000, 0.000000)">
                <g>
                    <use fill="#000000" xlink:href="#path-1"></use>
                    <use fill="#8FCA00" xlink:href="#path-1"></use>
                </g>
            </g>
        </g>
    </g>
</svg>