<?xml version="1.0" encoding="UTF-8"?>
<svg width="32px" height="24px" viewBox="0 0 32 24" version="1.1" xmlns="http://www.w3.org/2000/svg" xmlns:xlink="http://www.w3.org/1999/xlink">
    <!-- Generator: Sketch 50 (54983) - http://www.bohemiancoding.com/sketch -->
    <title>user-8</title>
    <desc>Created with Sketch.</desc>
    <defs>
        <path d="M4,13.104 C3.51466424,13.104 3.07158534,13.0390007 2.67075,12.909 C2.26991466,12.7789993 1.92650143,12.5948345 1.6405,12.3565 C1.35449857,12.1181655 1.13241746,11.8300017 0.97425,11.492 C0.816082543,11.1539983 0.737,10.7770021 0.737,10.361 C0.737,9.80633056 0.873498635,9.33725192 1.1465,8.95375 C1.41950137,8.57024808 1.84416379,8.28533426 2.4205,8.099 C1.96116437,7.90833238 1.61775114,7.63750175 1.39025,7.2865 C1.16274886,6.93549824 1.049,6.51300247 1.049,6.019 C1.049,5.66366489 1.12158261,5.33216821 1.26675,5.0245 C1.41191739,4.71683179 1.6144987,4.44925114 1.8745,4.22175 C2.1345013,3.99424886 2.44541486,3.81658397 2.80725,3.68875 C3.16908514,3.56091603 3.5666645,3.497 4,3.497 C4.4333355,3.497 4.83091486,3.56091603 5.19275,3.68875 C5.55458514,3.81658397 5.8654987,3.99424886 6.1255,4.22175 C6.3855013,4.44925114 6.58808261,4.71683179 6.73325,5.0245 C6.87841739,5.33216821 6.951,5.66366489 6.951,6.019 C6.951,6.51300247 6.83616782,6.93549824 6.6065,7.2865 C6.37683219,7.63750175 6.03450228,7.90833238 5.5795,8.099 C6.15583622,8.28533426 6.58049864,8.57024808 6.8535,8.95375 C7.12650137,9.33725192 7.263,9.80633056 7.263,10.361 C7.263,10.7770021 7.18391746,11.1539983 7.02575,11.492 C6.86758254,11.8300017 6.64550143,12.1181655 6.3595,12.3565 C6.07349857,12.5948345 5.73008534,12.7789993 5.32925,12.909 C4.92841466,13.0390007 4.48533576,13.104 4,13.104 Z M4,11.8495 C4.26433466,11.8495 4.49616567,11.8115837 4.6955,11.73575 C4.89483433,11.6599163 5.06274932,11.554834 5.19925,11.4205 C5.33575068,11.286166 5.43866632,11.1258343 5.508,10.9395 C5.57733368,10.7531657 5.612,10.5516678 5.612,10.335 C5.612,9.81933075 5.46900143,9.42933465 5.183,9.165 C4.89699857,8.90066535 4.50266918,8.7685 4,8.7685 C3.49733082,8.7685 3.10300143,8.90066535 2.817,9.165 C2.53099857,9.42933465 2.388,9.81933075 2.388,10.335 C2.388,10.5516678 2.42266632,10.7531657 2.492,10.9395 C2.56133368,11.1258343 2.66424932,11.286166 2.80075,11.4205 C2.93725068,11.554834 3.10516567,11.6599163 3.3045,11.73575 C3.50383433,11.8115837 3.73566535,11.8495 4,11.8495 Z M4,7.5075 C4.2600013,7.5075 4.47883245,7.46633375 4.6565,7.384 C4.83416756,7.30166626 4.97716613,7.19225068 5.0855,7.05575 C5.19383388,6.91924932 5.27074977,6.76325088 5.31625,6.58775 C5.36175023,6.41224912 5.3845,6.23133427 5.3845,6.045 C5.3845,5.86733244 5.35633362,5.69833413 5.3,5.538 C5.24366639,5.37766587 5.15916723,5.23575062 5.0465,5.11225 C4.93383277,4.98874938 4.7908342,4.89016703 4.6175,4.8165 C4.4441658,4.74283296 4.23833453,4.706 4,4.706 C3.76166548,4.706 3.5558342,4.74283296 3.3825,4.8165 C3.2091658,4.89016703 3.06508391,4.98874938 2.95025,5.11225 C2.83541609,5.23575062 2.75091694,5.37766587 2.69675,5.538 C2.64258306,5.69833413 2.6155,5.86733244 2.6155,6.045 C2.6155,6.23133427 2.63824977,6.41224912 2.68375,6.58775 C2.72925023,6.76325088 2.80616613,6.91924932 2.9145,7.05575 C3.02283388,7.19225068 3.16583245,7.30166626 3.3435,7.384 C3.52116756,7.46633375 3.7399987,7.5075 4,7.5075 Z" id="path-1"></path>
    </defs>
    <g id="Page-1" stroke="none" stroke-width="1" fill="none" fill-rule="evenodd">
        <g id="user-8" transform="translate(0.000000, -3.000000)">
            <path d="M15.2323944,17.6066066 L5.76760563,17.6066066 C2.53419718,17.6066066 0,20.1909479 0,23.4883358 L0,25.901353 C0,26.542009 0.405802817,26.957048 1.03521127,26.957048 C1.66461972,26.957048 2.07042254,26.542009 2.07042254,25.901353 L2.07042254,23.4883358 C2.07042254,21.3745328 3.6948169,19.7179966 5.76760563,19.7179966 L15.2323944,19.7179966 C17.3051831,19.7179966 18.9295775,21.3745328 18.9295775,23.4883358 L18.9295775,25.901353 C18.9295775,26.542009 19.3353803,26.957048 19.9647887,26.957048 C20.5941972,26.957048 21,26.542009 21,25.901353 L21,23.4883358 C21,20.1909479 18.4658028,17.6066066 15.2323944,17.6066066" id="Fill-1" fill="#8FCA00" fill-rule="nonzero"></path>
            <path d="M10.7203898,3 C7.3215036,3 4.56521739,5.73651455 4.56521739,9.11375011 C4.56521739,12.4909857 7.3215036,15.2275002 10.7203898,15.2275002 C14.119276,15.2275002 16.8755622,12.4909857 16.8755622,9.11375011 C16.8755622,5.73651455 14.119276,3 10.7203898,3 M10.7203898,4.83412503 C13.0962864,4.83412503 15.0290105,6.75384257 15.0290105,9.11375011 C15.0290105,11.4736577 13.0962864,13.3933752 10.7203898,13.3933752 C8.34449325,13.3933752 6.41176912,11.4736577 6.41176912,9.11375011 C6.41176912,6.75384257 8.34449325,4.83412503 10.7203898,4.83412503" id="Fill-3" fill="#8FCA00" fill-rule="nonzero"></path>
            <g id="8" transform="translate(24.000000, 0.000000)">
                <g>
                    <use fill="#000000" xlink:href="#path-1"></use>
                    <use fill="#8FCA00" xlink:href="#path-1"></use>
                </g>
            </g>
        </g>
    </g>
</svg>