<?xml version="1.0" encoding="UTF-8"?>
<svg width="31px" height="25px" viewBox="0 0 31 25" version="1.1" xmlns="http://www.w3.org/2000/svg" xmlns:xlink="http://www.w3.org/1999/xlink">
    <!-- Generator: Sketch 50 (54983) - http://www.bohemiancoding.com/sketch -->
    <title>Group 15</title>
    <desc>Created with Sketch.</desc>
    <defs></defs>
    <g id="Page-1" stroke="none" stroke-width="1" fill="none" fill-rule="evenodd">
        <g id="Registrate_Desktop-Copy-2" transform="translate(-134.000000, -329.000000)" fill="#8FCA00">
            <g id="Group-15" transform="translate(134.000000, 327.000000)">
                <g id="Group-3" transform="translate(0.000000, 3.000000)">
                    <path d="M15.2323944,14.6066066 L5.76760563,14.6066066 C2.53419718,14.6066066 0,17.1909479 0,20.4883358 L0,22.901353 C0,23.542009 0.405802817,23.957048 1.03521127,23.957048 C1.66461972,23.957048 2.07042254,23.542009 2.07042254,22.901353 L2.07042254,20.4883358 C2.07042254,18.3745328 3.6948169,16.7179966 5.76760563,16.7179966 L15.2323944,16.7179966 C17.3051831,16.7179966 18.9295775,18.3745328 18.9295775,20.4883358 L18.9295775,22.901353 C18.9295775,23.542009 19.3353803,23.957048 19.9647887,23.957048 C20.5941972,23.957048 21,23.542009 21,22.901353 L21,20.4883358 C21,17.1909479 18.4658028,14.6066066 15.2323944,14.6066066" id="Fill-1"></path>
                    <path d="M10.7203898,0 C7.3215036,0 4.56521739,2.73651455 4.56521739,6.11375011 C4.56521739,9.49098568 7.3215036,12.2275002 10.7203898,12.2275002 C14.119276,12.2275002 16.8755622,9.49098568 16.8755622,6.11375011 C16.8755622,2.73651455 14.119276,0 10.7203898,0 M10.7203898,1.83412503 C13.0962864,1.83412503 15.0290105,3.75384257 15.0290105,6.11375011 C15.0290105,8.47365766 13.0962864,10.3933752 10.7203898,10.3933752 C8.34449325,10.3933752 6.41176912,8.47365766 6.41176912,6.11375011 C6.41176912,3.75384257 8.34449325,1.83412503 10.7203898,1.83412503" id="Fill-3"></path>
                </g>
                <text id="1" font-family="Lato-Bold, Lato" font-size="13" font-weight="bold">
                    <tspan x="24.23" y="13">1</tspan>
                </text>
            </g>
        </g>
    </g>
</svg>