<?xml version="1.0" encoding="UTF-8"?>
<svg width="32px" height="24px" viewBox="0 0 32 24" version="1.1" xmlns="http://www.w3.org/2000/svg" xmlns:xlink="http://www.w3.org/1999/xlink">
    <!-- Generator: Sketch 50 (54983) - http://www.bohemiancoding.com/sketch -->
    <title>user-6</title>
    <desc>Created with Sketch.</desc>
    <defs>
        <path d="M4.585,7.1305 C4.94033511,7.1305 5.28591499,7.18899941 5.62175,7.306 C5.95758501,7.42300059 6.25333206,7.59958215 6.509,7.83575 C6.76466795,8.07191785 6.97049922,8.36549824 7.1265,8.7165 C7.28250078,9.06750176 7.3605,9.47699766 7.3605,9.945 C7.3605,10.3826689 7.28033414,10.7932481 7.12,11.17675 C6.95966587,11.5602519 6.73433479,11.8949986 6.444,12.181 C6.15366522,12.4670014 5.80375205,12.6923325 5.39425,12.857 C4.98474795,13.0216675 4.53300247,13.104 4.039,13.104 C3.53633082,13.104 3.08566866,13.0238341 2.687,12.8635 C2.28833134,12.7031659 1.94816808,12.4789181 1.6665,12.19075 C1.38483193,11.9025819 1.16925075,11.5559187 1.01975,11.15075 C0.870249253,10.7455813 0.7955,10.2960025 0.7955,9.802 C0.7955,9.35999779 0.885415768,8.90608566 1.06525,8.44025 C1.24508423,7.97441434 1.52349812,7.49016918 1.9005,6.9875 L4.143,3.978 C4.22100039,3.87399948 4.33474925,3.78516703 4.48425,3.7115 C4.63375075,3.63783296 4.80599903,3.601 5.001,3.601 L6.431,3.601 L3.6425,7.0135 C3.58183303,7.08716704 3.52441694,7.15649967 3.47025,7.2215 C3.41608306,7.28650032 3.36300026,7.35366632 3.311,7.423 C3.49300091,7.33199954 3.68908228,7.26050026 3.89925,7.2085 C4.10941772,7.15649974 4.33799877,7.1305 4.585,7.1305 Z M2.336,10.049 C2.336,10.3090013 2.37174964,10.5462489 2.44325,10.76075 C2.51475036,10.9752511 2.62091596,11.1583326 2.76175,11.31 C2.90258404,11.4616674 3.07699896,11.5797496 3.285,11.66425 C3.49300104,11.7487504 3.73349864,11.791 4.0065,11.791 C4.26216794,11.791 4.49724893,11.7476671 4.71175,11.661 C4.92625107,11.5743329 5.1104159,11.4530008 5.26425,11.297 C5.4180841,11.1409992 5.5383329,10.9579177 5.625,10.74775 C5.7116671,10.5375823 5.755,10.3090012 5.755,10.062 C5.755,9.79333199 5.71383375,9.55175107 5.6315,9.33725 C5.54916626,9.12274893 5.43216743,8.94075075 5.2805,8.79125 C5.12883258,8.64174925 4.9468344,8.52800039 4.7345,8.45 C4.52216561,8.37199961 4.28816795,8.333 4.0325,8.333 C3.77683206,8.333 3.54500104,8.3763329 3.337,8.463 C3.12899896,8.5496671 2.95025075,8.6699159 2.80075,8.82375 C2.65124925,8.9775841 2.53641707,9.15958228 2.45625,9.36975 C2.37608293,9.57991772 2.336,9.80633212 2.336,10.049 Z" id="path-1"></path>
    </defs>
    <g id="Page-1" stroke="none" stroke-width="1" fill="none" fill-rule="evenodd">
        <g id="user-6" transform="translate(0.000000, -3.000000)">
            <path d="M15.2323944,17.6066066 L5.76760563,17.6066066 C2.53419718,17.6066066 0,20.1909479 0,23.4883358 L0,25.901353 C0,26.542009 0.405802817,26.957048 1.03521127,26.957048 C1.66461972,26.957048 2.07042254,26.542009 2.07042254,25.901353 L2.07042254,23.4883358 C2.07042254,21.3745328 3.6948169,19.7179966 5.76760563,19.7179966 L15.2323944,19.7179966 C17.3051831,19.7179966 18.9295775,21.3745328 18.9295775,23.4883358 L18.9295775,25.901353 C18.9295775,26.542009 19.3353803,26.957048 19.9647887,26.957048 C20.5941972,26.957048 21,26.542009 21,25.901353 L21,23.4883358 C21,20.1909479 18.4658028,17.6066066 15.2323944,17.6066066" id="Fill-1" fill="#8FCA00" fill-rule="nonzero"></path>
            <path d="M10.7203898,3 C7.3215036,3 4.56521739,5.73651455 4.56521739,9.11375011 C4.56521739,12.4909857 7.3215036,15.2275002 10.7203898,15.2275002 C14.119276,15.2275002 16.8755622,12.4909857 16.8755622,9.11375011 C16.8755622,5.73651455 14.119276,3 10.7203898,3 M10.7203898,4.83412503 C13.0962864,4.83412503 15.0290105,6.75384257 15.0290105,9.11375011 C15.0290105,11.4736577 13.0962864,13.3933752 10.7203898,13.3933752 C8.34449325,13.3933752 6.41176912,11.4736577 6.41176912,9.11375011 C6.41176912,6.75384257 8.34449325,4.83412503 10.7203898,4.83412503" id="Fill-3" fill="#8FCA00" fill-rule="nonzero"></path>
            <g id="6" transform="translate(24.000000, 0.000000)">
                <g>
                    <use fill="#000000" xlink:href="#path-1"></use>
                    <use fill="#8FCA00" xlink:href="#path-1"></use>
                </g>
            </g>
        </g>
    </g>
</svg>