<?xml version="1.0" encoding="UTF-8"?>
<svg width="25px" height="20px" viewBox="0 0 25 20" version="1.1" xmlns="http://www.w3.org/2000/svg" xmlns:xlink="http://www.w3.org/1999/xlink">
    <!-- Generator: Sketch 50 (54983) - http://www.bohemiancoding.com/sketch -->
    <title>Group 15</title>
    <desc>Created with Sketch.</desc>
    <defs></defs>
    <g id="Page-2" stroke="none" stroke-width="1" fill="none" fill-rule="evenodd">
        <g id="desktop-regalos" transform="translate(-124.000000, -346.000000)" fill="#8FCA00">
            <g id="Group-15" transform="translate(124.000000, 344.000000)">
                <g id="Group-3" transform="translate(0.000000, 2.400000)">
                    <path d="M12.1859155,11.6852853 L4.61408451,11.6852853 C2.02735775,11.6852853 0,13.7527584 0,16.3906687 L0,18.3210824 C0,18.8336072 0.324642254,19.1656384 0.828169014,19.1656384 C1.33169577,19.1656384 1.65633803,18.8336072 1.65633803,18.3210824 L1.65633803,16.3906687 C1.65633803,14.6996263 2.95585352,13.3743973 4.61408451,13.3743973 L12.1859155,13.3743973 C13.8441465,13.3743973 15.143662,14.6996263 15.143662,16.3906687 L15.143662,18.3210824 C15.143662,18.8336072 15.4683042,19.1656384 15.971831,19.1656384 C16.4753577,19.1656384 16.8,18.8336072 16.8,18.3210824 L16.8,16.3906687 C16.8,13.7527584 14.7726423,11.6852853 12.1859155,11.6852853" id="Fill-1"></path>
                    <path d="M8.57631184,0 C5.85720288,0 3.65217391,2.18921164 3.65217391,4.89100009 C3.65217391,7.59278854 5.85720288,9.78200018 8.57631184,9.78200018 C11.2954208,9.78200018 13.5004498,7.59278854 13.5004498,4.89100009 C13.5004498,2.18921164 11.2954208,0 8.57631184,0 M8.57631184,1.46730003 C10.4770291,1.46730003 12.0232084,3.00307406 12.0232084,4.89100009 C12.0232084,6.77892613 10.4770291,8.31470015 8.57631184,8.31470015 C6.6755946,8.31470015 5.12941529,6.77892613 5.12941529,4.89100009 C5.12941529,3.00307406 6.6755946,1.46730003 8.57631184,1.46730003" id="Fill-3"></path>
                </g>
                <path d="M20.7828,9.038 L22.3064,9.038 L22.3064,4.6544 C22.3064,4.48453248 22.3115999,4.30600094 22.322,4.1188 L21.2404,5.0236 C21.1953331,5.06173352 21.1494002,5.08773326 21.1026,5.1016 C21.0557998,5.11546674 21.0098669,5.1224 20.9648,5.1224 C20.8954663,5.1224 20.8322003,5.10766681 20.775,5.0782 C20.7177997,5.04873319 20.6753335,5.01493352 20.6476,4.9768 L20.242,4.4204 L22.5352,2.4704 L23.5908,2.4704 L23.5908,9.038 L24.9428,9.038 L24.9428,10 L20.7828,10 L20.7828,9.038 Z" id="1"></path>
            </g>
        </g>
    </g>
</svg>