<?xml version="1.0" encoding="UTF-8"?>
<svg width="32px" height="24px" viewBox="0 0 32 24" version="1.1" xmlns="http://www.w3.org/2000/svg" xmlns:xlink="http://www.w3.org/1999/xlink">
    <!-- Generator: Sketch 50 (54983) - http://www.bohemiancoding.com/sketch -->
    <title>user-4</title>
    <desc>Created with Sketch.</desc>
    <defs>
        <path d="M6.353,9.4575 L7.536,9.4575 L7.536,10.387 C7.536,10.4736671 7.50783362,10.5484164 7.4515,10.61125 C7.39516639,10.6740836 7.31283388,10.7055 7.2045,10.7055 L6.353,10.7055 L6.353,13 L4.949,13 L4.949,10.7055 L0.984,10.7055 C0.875666125,10.7055 0.780333745,10.671917 0.698,10.60475 C0.615666255,10.537583 0.563666775,10.4541672 0.542,10.3545 L0.3795,9.542 L4.832,3.5945 L6.353,3.5945 L6.353,9.4575 Z M4.949,6.383 C4.949,6.24433264 4.95333329,6.09483413 4.962,5.9345 C4.97066671,5.77416587 4.98583323,5.6073342 5.0075,5.434 L2.089,9.4575 L4.949,9.4575 L4.949,6.383 Z" id="path-1"></path>
    </defs>
    <g id="Page-1" stroke="none" stroke-width="1" fill="none" fill-rule="evenodd">
        <g id="user-4" transform="translate(0.000000, -3.000000)">
            <path d="M15.2323944,17.6066066 L5.76760563,17.6066066 C2.53419718,17.6066066 0,20.1909479 0,23.4883358 L0,25.901353 C0,26.542009 0.405802817,26.957048 1.03521127,26.957048 C1.66461972,26.957048 2.07042254,26.542009 2.07042254,25.901353 L2.07042254,23.4883358 C2.07042254,21.3745328 3.6948169,19.7179966 5.76760563,19.7179966 L15.2323944,19.7179966 C17.3051831,19.7179966 18.9295775,21.3745328 18.9295775,23.4883358 L18.9295775,25.901353 C18.9295775,26.542009 19.3353803,26.957048 19.9647887,26.957048 C20.5941972,26.957048 21,26.542009 21,25.901353 L21,23.4883358 C21,20.1909479 18.4658028,17.6066066 15.2323944,17.6066066" id="Fill-1" fill="#8FCA00" fill-rule="nonzero"></path>
            <path d="M10.7203898,3 C7.3215036,3 4.56521739,5.73651455 4.56521739,9.11375011 C4.56521739,12.4909857 7.3215036,15.2275002 10.7203898,15.2275002 C14.119276,15.2275002 16.8755622,12.4909857 16.8755622,9.11375011 C16.8755622,5.73651455 14.119276,3 10.7203898,3 M10.7203898,4.83412503 C13.0962864,4.83412503 15.0290105,6.75384257 15.0290105,9.11375011 C15.0290105,11.4736577 13.0962864,13.3933752 10.7203898,13.3933752 C8.34449325,13.3933752 6.41176912,11.4736577 6.41176912,9.11375011 C6.41176912,6.75384257 8.34449325,4.83412503 10.7203898,4.83412503" id="Fill-3" fill="#8FCA00" fill-rule="nonzero"></path>
            <g id="4" transform="translate(24.000000, 0.000000)">
                <g>
                    <use fill="#000000" xlink:href="#path-1"></use>
                    <use fill="#8FCA00" xlink:href="#path-1"></use>
                </g>
            </g>
        </g>
    </g>
</svg>