<?xml version="1.0" encoding="UTF-8"?>
<svg width="25px" height="20px" viewBox="0 0 25 20" version="1.1" xmlns="http://www.w3.org/2000/svg" xmlns:xlink="http://www.w3.org/1999/xlink">
    <!-- Generator: Sketch 50 (54983) - http://www.bohemiancoding.com/sketch -->
    <title>Group 13</title>
    <desc>Created with Sketch.</desc>
    <defs></defs>
    <g id="Page-2" stroke="none" stroke-width="1" fill="none" fill-rule="evenodd">
        <g id="desktop-regalos" transform="translate(-124.000000, -420.000000)" fill="#8FCA00">
            <g id="Group-13" transform="translate(124.000000, 418.000000)">
                <g id="Group-2">
                    <path d="M12.1859155,14.0852853 L4.61408451,14.0852853 C2.02735775,14.0852853 0,16.1527584 0,18.7906687 L0,20.7210824 C0,21.2336072 0.324642254,21.5656384 0.828169014,21.5656384 C1.33169577,21.5656384 1.65633803,21.2336072 1.65633803,20.7210824 L1.65633803,18.7906687 C1.65633803,17.0996263 2.95585352,15.7743973 4.61408451,15.7743973 L12.1859155,15.7743973 C13.8441465,15.7743973 15.143662,17.0996263 15.143662,18.7906687 L15.143662,20.7210824 C15.143662,21.2336072 15.4683042,21.5656384 15.971831,21.5656384 C16.4753577,21.5656384 16.8,21.2336072 16.8,20.7210824 L16.8,18.7906687 C16.8,16.1527584 14.7726423,14.0852853 12.1859155,14.0852853" id="Fill-1"></path>
                    <path d="M8.57631184,2.4 C5.85720288,2.4 3.65217391,4.58921164 3.65217391,7.29100009 C3.65217391,9.99278854 5.85720288,12.1820002 8.57631184,12.1820002 C11.2954208,12.1820002 13.5004498,9.99278854 13.5004498,7.29100009 C13.5004498,4.58921164 11.2954208,2.4 8.57631184,2.4 M8.57631184,3.86730003 C10.4770291,3.86730003 12.0232084,5.40307406 12.0232084,7.29100009 C12.0232084,9.17892613 10.4770291,10.7147002 8.57631184,10.7147002 C6.6755946,10.7147002 5.12941529,9.17892613 5.12941529,7.29100009 C5.12941529,5.40307406 6.6755946,3.86730003 8.57631184,3.86730003" id="Fill-3"></path>
                    <path d="M22.5144,2.3976 C22.8610684,2.3976 23.1782652,2.44873282 23.466,2.551 C23.7537348,2.65326718 23.9998656,2.79799906 24.2044,2.9852 C24.4089344,3.17240094 24.5683994,3.39773202 24.6828,3.6612 C24.7972006,3.92466798 24.8544,4.21759839 24.8544,4.54 C24.8544,4.81733472 24.8136671,5.07386549 24.7322,5.3096 C24.6507329,5.54533451 24.541534,5.77066559 24.4046,5.9856 C24.267666,6.20053441 24.1073343,6.40853233 23.9236,6.6096 C23.7398657,6.81066767 23.5474677,7.01519896 23.3464,7.2232 L21.6512,8.9548 C21.8176008,8.90626642 21.9805325,8.86900013 22.14,8.843 C22.2994675,8.81699987 22.4519993,8.804 22.5976,8.804 L24.5268,8.804 C24.6654674,8.804 24.7755329,8.84299961 24.857,8.921 C24.9384671,8.99900039 24.9792,9.10213269 24.9792,9.2304 L24.9792,10 L19.8208,10 L19.8208,9.5736 C19.8208,9.4869329 19.8389998,9.39680047 19.8754,9.3032 C19.9118002,9.20959953 19.9698663,9.12293373 20.0496,9.0432 L22.3324,6.7552 C22.5230676,6.5610657 22.6937992,6.37560088 22.8446,6.1988 C22.9954008,6.02199912 23.1219328,5.8469342 23.2242,5.6736 C23.3264672,5.5002658 23.4044664,5.32433423 23.4582,5.1458 C23.5119336,4.96726577 23.5388,4.77920099 23.5388,4.5816 C23.5388,4.40133243 23.5128003,4.24273402 23.4608,4.1058 C23.4087997,3.96886598 23.3342672,3.85360047 23.2372,3.76 C23.1401328,3.66639953 23.0248673,3.59620023 22.8914,3.5494 C22.7579327,3.50259977 22.6080008,3.4792 22.4416,3.4792 C22.1330651,3.4792 21.8791343,3.55719922 21.6798,3.7132 C21.4804657,3.86920078 21.3409337,4.07893202 21.2612,4.3424 C21.2230665,4.47413399 21.165867,4.56859971 21.0896,4.6258 C21.013333,4.68300029 20.9162673,4.7116 20.7984,4.7116 C20.7463997,4.7116 20.6892003,4.70640005 20.6268,4.696 L19.9508,4.5764 C20.0028003,4.21586486 20.1033326,3.89953469 20.2524,3.6274 C20.4014674,3.35526531 20.5877989,3.12820091 20.8114,2.9462 C21.0350011,2.76419909 21.2915319,2.62726713 21.581,2.5354 C21.8704681,2.44353287 22.1815983,2.3976 22.5144,2.3976 Z" id="2"></path>
                </g>
            </g>
        </g>
    </g>
</svg>