<?xml version="1.0" encoding="UTF-8"?>
<svg width="31px" height="25px" viewBox="0 0 31 25" version="1.1" xmlns="http://www.w3.org/2000/svg" xmlns:xlink="http://www.w3.org/1999/xlink">
    <!-- Generator: Sketch 50 (54983) - http://www.bohemiancoding.com/sketch -->
    <title>Group</title>
    <desc>Created with Sketch.</desc>
    <defs></defs>
    <g id="Page-1" stroke="none" stroke-width="1" fill="none" fill-rule="evenodd">
        <g id="Group">
            <g id="user-plus">
                <g id="Group-11" stroke-linecap="round" stroke-linejoin="round" transform="translate(23.000000, 3.000000)" stroke="#333333" stroke-width="1.5">
                    <path d="M6.604773,0.304772604 L0.304773,6.6047726" id="Stroke-1"></path>
                    <path d="M6.604773,6.6047726 L0.304773,0.304772604" id="Stroke-3"></path>
                </g>
                <path d="M15.2323944,15.6495586 L5.76760563,15.6495586 C2.53419718,15.6495586 0,18.2339 0,21.5312879 L0,23.944305 C0,24.5849611 0.405802817,25 1.03521127,25 C1.66461972,25 2.07042254,24.5849611 2.07042254,23.944305 L2.07042254,21.5312879 C2.07042254,19.4174849 3.6948169,17.7609486 5.76760563,17.7609486 L15.2323944,17.7609486 C17.3051831,17.7609486 18.9295775,19.4174849 18.9295775,21.5312879 L18.9295775,23.944305 C18.9295775,24.5849611 19.3353803,25 19.9647887,25 C20.5941972,25 21,24.5849611 21,23.944305 L21,21.5312879 C21,18.2339 18.4658028,15.6495586 15.2323944,15.6495586" id="Fill-1" fill="#333333" fill-rule="nonzero"></path>
                <path d="M11.1551724,0.64955865 C7.75628621,0.64955865 5,3.3860732 5,6.76330876 C5,10.1405443 7.75628621,12.8770589 11.1551724,12.8770589 C14.5540586,12.8770589 17.3103448,10.1405443 17.3103448,6.76330876 C17.3103448,3.3860732 14.5540586,0.64955865 11.1551724,0.64955865 M11.1551724,2.48368368 C13.531069,2.48368368 15.4637931,4.40340122 15.4637931,6.76330876 C15.4637931,9.12321631 13.531069,11.0429338 11.1551724,11.0429338 C8.77927586,11.0429338 6.84655172,9.12321631 6.84655172,6.76330876 C6.84655172,4.40340122 8.77927586,2.48368368 11.1551724,2.48368368" id="Fill-3" fill="#333333" fill-rule="nonzero"></path>
            </g>
        </g>
    </g>
</svg>