<?xml version="1.0" encoding="UTF-8"?>
<svg width="36px" height="24px" viewBox="0 0 36 24" version="1.1" xmlns="http://www.w3.org/2000/svg" xmlns:xlink="http://www.w3.org/1999/xlink">
    <!-- Generator: Sketch 50 (54983) - http://www.bohemiancoding.com/sketch -->
    <title>user-10</title>
    <desc>Created with Sketch.</desc>
    <defs>
        <path d="M2.2085,11.7975 L4.113,11.7975 L4.113,6.318 C4.113,6.1056656 4.11949994,5.88250117 4.1325,5.6485 L2.7805,6.7795 C2.72416639,6.8271669 2.66675029,6.85966658 2.60825,6.877 C2.54974971,6.89433342 2.49233362,6.903 2.436,6.903 C2.3493329,6.903 2.27025036,6.88458352 2.19875,6.84775 C2.12724964,6.81091648 2.07416684,6.7686669 2.0395,6.721 L1.5325,6.0255 L4.399,3.588 L5.7185,3.588 L5.7185,11.7975 L7.4085,11.7975 L7.4085,13 L2.2085,13 L2.2085,11.7975 Z M15.215,8.3005 C15.215,9.11950409 15.1272509,9.83124698 14.95175,10.43575 C14.7762491,11.040253 14.5335849,11.5396647 14.22375,11.934 C13.9139151,12.3283353 13.5477521,12.6219157 13.12525,12.81475 C12.7027479,13.0075843 12.2466691,13.104 11.757,13.104 C11.2673309,13.104 10.8134188,13.0075843 10.39525,12.81475 C9.97708124,12.6219157 9.61416821,12.3283353 9.3065,11.934 C8.9988318,11.5396647 8.7583342,11.040253 8.585,10.43575 C8.4116658,9.83124698 8.325,9.11950409 8.325,8.3005 C8.325,7.47716255 8.4116658,6.76433635 8.585,6.162 C8.7583342,5.55966365 8.9988318,5.06133531 9.3065,4.667 C9.61416821,4.27266469 9.97708124,3.9790843 10.39525,3.78625 C10.8134188,3.5934157 11.2673309,3.497 11.757,3.497 C12.2466691,3.497 12.7027479,3.5934157 13.12525,3.78625 C13.5477521,3.9790843 13.9139151,4.27266469 14.22375,4.667 C14.5335849,5.06133531 14.7762491,5.55966365 14.95175,6.162 C15.1272509,6.76433635 15.215,7.47716255 15.215,8.3005 Z M13.5575,8.3005 C13.5575,7.62016327 13.5076672,7.05683557 13.408,6.6105 C13.3083328,6.16416443 13.1750842,5.80883465 13.00825,5.5445 C12.8414158,5.28016535 12.6496678,5.0949172 12.433,4.98875 C12.2163323,4.8825828 11.9910012,4.8295 11.757,4.8295 C11.5273322,4.8295 11.3052511,4.8825828 11.09075,4.98875 C10.8762489,5.0949172 10.6866675,5.28016535 10.522,5.5445 C10.3573325,5.80883465 10.2262505,6.16416443 10.12875,6.6105 C10.0312495,7.05683557 9.9825,7.62016327 9.9825,8.3005 C9.9825,8.98083674 10.0312495,9.54416443 10.12875,9.9905 C10.2262505,10.4368356 10.3573325,10.7921653 10.522,11.0565 C10.6866675,11.3208347 10.8762489,11.5060828 11.09075,11.61225 C11.3052511,11.7184172 11.5273322,11.7715 11.757,11.7715 C11.9910012,11.7715 12.2163323,11.7184172 12.433,11.61225 C12.6496678,11.5060828 12.8414158,11.3208347 13.00825,11.0565 C13.1750842,10.7921653 13.3083328,10.4368356 13.408,9.9905 C13.5076672,9.54416443 13.5575,8.98083674 13.5575,8.3005 Z" id="path-1"></path>
    </defs>
    <g id="Page-1" stroke="none" stroke-width="1" fill="none" fill-rule="evenodd">
        <g id="user-10" transform="translate(0.000000, -3.000000)">
            <path d="M15.2323944,17.6066066 L5.76760563,17.6066066 C2.53419718,17.6066066 0,20.1909479 0,23.4883358 L0,25.901353 C0,26.542009 0.405802817,26.957048 1.03521127,26.957048 C1.66461972,26.957048 2.07042254,26.542009 2.07042254,25.901353 L2.07042254,23.4883358 C2.07042254,21.3745328 3.6948169,19.7179966 5.76760563,19.7179966 L15.2323944,19.7179966 C17.3051831,19.7179966 18.9295775,21.3745328 18.9295775,23.4883358 L18.9295775,25.901353 C18.9295775,26.542009 19.3353803,26.957048 19.9647887,26.957048 C20.5941972,26.957048 21,26.542009 21,25.901353 L21,23.4883358 C21,20.1909479 18.4658028,17.6066066 15.2323944,17.6066066" id="Fill-1" fill="#8FCA00" fill-rule="nonzero"></path>
            <path d="M10.7203898,3 C7.3215036,3 4.56521739,5.73651455 4.56521739,9.11375011 C4.56521739,12.4909857 7.3215036,15.2275002 10.7203898,15.2275002 C14.119276,15.2275002 16.8755622,12.4909857 16.8755622,9.11375011 C16.8755622,5.73651455 14.119276,3 10.7203898,3 M10.7203898,4.83412503 C13.0962864,4.83412503 15.0290105,6.75384257 15.0290105,9.11375011 C15.0290105,11.4736577 13.0962864,13.3933752 10.7203898,13.3933752 C8.34449325,13.3933752 6.41176912,11.4736577 6.41176912,9.11375011 C6.41176912,6.75384257 8.34449325,4.83412503 10.7203898,4.83412503" id="Fill-3" fill="#8FCA00" fill-rule="nonzero"></path>
            <g id="10" transform="translate(20.000000, 0.000000)">
                <g>
                    <use fill="#000000" xlink:href="#path-1"></use>
                    <use fill="#8FCA00" xlink:href="#path-1"></use>
                </g>
            </g>
        </g>
    </g>
</svg>