<?xml version="1.0" encoding="UTF-8"?>
<svg width="31px" height="24px" viewBox="0 0 31 24" version="1.1" xmlns="http://www.w3.org/2000/svg" xmlns:xlink="http://www.w3.org/1999/xlink">
    <!-- Generator: Sketch 50 (54983) - http://www.bohemiancoding.com/sketch -->
    <title>user-5</title>
    <desc>Created with Sketch.</desc>
    <defs>
        <path d="M6.6585,4.2835 C6.6585,4.51316781 6.58591739,4.69949928 6.44075,4.8425 C6.29558261,4.98550071 6.05400169,5.057 5.716,5.057 L3.129,5.057 L2.791,7.02 C3.21566879,6.9333329 3.60349825,6.89 3.9545,6.89 C4.44850247,6.89 4.88291479,6.96366593 5.25775,7.111 C5.63258521,7.25833407 5.94783206,7.4619987 6.2035,7.722 C6.45916795,7.9820013 6.65199935,8.28641492 6.782,8.63525 C6.91200065,8.98408508 6.977,9.35999798 6.977,9.763 C6.977,10.2613358 6.88925088,10.7163313 6.71375,11.128 C6.53824912,11.5396687 6.29450156,11.8917485 5.9825,12.18425 C5.67049844,12.4767515 5.30108547,12.7031659 4.87425,12.8635 C4.44741453,13.0238341 3.98266918,13.104 3.48,13.104 C3.18533186,13.104 2.90583466,13.073667 2.6415,13.013 C2.37716535,12.952333 2.12908449,12.8710838 1.89725,12.76925 C1.66541551,12.6674162 1.45091765,12.5504173 1.25375,12.41825 C1.05658235,12.2860827 0.88000078,12.1463341 0.724,11.999 L1.218,11.3165 C1.32200052,11.1691659 1.4606658,11.0955 1.634,11.0955 C1.74233388,11.0955 1.85174945,11.1301663 1.96225,11.1995 C2.07275055,11.2688337 2.20166593,11.3446663 2.349,11.427 C2.49633407,11.5093337 2.66749903,11.5851663 2.8625,11.6545 C3.05750098,11.7238337 3.29366528,11.7585 3.571,11.7585 C3.86566814,11.7585 4.12566554,11.7108338 4.351,11.6155 C4.57633446,11.5201662 4.76374925,11.3869175 4.91325,11.21575 C5.06275075,11.0445825 5.17541629,10.8409178 5.25125,10.60475 C5.32708371,10.3685822 5.365,10.1118347 5.365,9.8345 C5.365,9.32316411 5.21658482,8.92341811 4.91975,8.63525 C4.62291518,8.34708189 4.18633622,8.203 3.61,8.203 C3.15499773,8.203 2.69783563,8.28533251 2.2385,8.45 L1.2375,8.164 L2.0175,3.601 L6.6585,3.601 L6.6585,4.2835 Z" id="path-1"></path>
    </defs>
    <g id="Page-1" stroke="none" stroke-width="1" fill="none" fill-rule="evenodd">
        <g id="user-5" transform="translate(0.000000, -3.000000)">
            <path d="M15.2323944,17.6066066 L5.76760563,17.6066066 C2.53419718,17.6066066 0,20.1909479 0,23.4883358 L0,25.901353 C0,26.542009 0.405802817,26.957048 1.03521127,26.957048 C1.66461972,26.957048 2.07042254,26.542009 2.07042254,25.901353 L2.07042254,23.4883358 C2.07042254,21.3745328 3.6948169,19.7179966 5.76760563,19.7179966 L15.2323944,19.7179966 C17.3051831,19.7179966 18.9295775,21.3745328 18.9295775,23.4883358 L18.9295775,25.901353 C18.9295775,26.542009 19.3353803,26.957048 19.9647887,26.957048 C20.5941972,26.957048 21,26.542009 21,25.901353 L21,23.4883358 C21,20.1909479 18.4658028,17.6066066 15.2323944,17.6066066" id="Fill-1" fill="#8FCA00" fill-rule="nonzero"></path>
            <path d="M10.7203898,3 C7.3215036,3 4.56521739,5.73651455 4.56521739,9.11375011 C4.56521739,12.4909857 7.3215036,15.2275002 10.7203898,15.2275002 C14.119276,15.2275002 16.8755622,12.4909857 16.8755622,9.11375011 C16.8755622,5.73651455 14.119276,3 10.7203898,3 M10.7203898,4.83412503 C13.0962864,4.83412503 15.0290105,6.75384257 15.0290105,9.11375011 C15.0290105,11.4736577 13.0962864,13.3933752 10.7203898,13.3933752 C8.34449325,13.3933752 6.41176912,11.4736577 6.41176912,9.11375011 C6.41176912,6.75384257 8.34449325,4.83412503 10.7203898,4.83412503" id="Fill-3" fill="#8FCA00" fill-rule="nonzero"></path>
            <g id="5" transform="translate(24.000000, 0.000000)">
                <g>
                    <use fill="#000000" xlink:href="#path-1"></use>
                    <use fill="#8FCA00" xlink:href="#path-1"></use>
                </g>
            </g>
        </g>
    </g>
</svg>