<?xml version="1.0" encoding="UTF-8"?>
<svg width="83px" height="53px" viewBox="0 0 83 53" version="1.1" xmlns="http://www.w3.org/2000/svg" xmlns:xlink="http://www.w3.org/1999/xlink">
    <!-- Generator: Sketch 50 (54983) - http://www.bohemiancoding.com/sketch -->
    <title>Group</title>
    <desc>Created with Sketch.</desc>
    <defs></defs>
    <g id="Page-1" stroke="none" stroke-width="1" fill="none" fill-rule="evenodd">
        <g id="Artboard-Copy" transform="translate(-647.000000, -267.000000)">
            <g id="Group" transform="translate(687.899861, 292.914736) rotate(2.000000) translate(-687.899861, -292.914736) translate(646.899861, 266.414736)">
                <path d="M31.8151528,34.6485569 L31.8656639,34.564975 L31.9004457,34.5888555 L31.8151528,34.6485569 Z M81.668987,0.467380332 C81.4015881,0.127645724 80.9793327,-0.0453756152 80.5550834,0.0102705707 L8.55366342,8.15691724 L0,9.21126603 L20.5356599,25.3333403 L20.5611371,25.3405496 L20.5575924,25.3536163 L20.7033658,49.1073284 C20.7062458,49.5856153 20.9581369,50.0265043 21.3653276,50.2659856 C21.7720753,50.5056923 22.2736421,50.5081705 22.6828266,50.2727443 L39.2752943,40.5245238 L54.7702522,52.4393409 C55.4058508,52.9419589 56.2333031,53.1190354 57.0140104,52.9201059 C57.7947177,52.7211765 58.4420579,52.1678686 58.7694942,51.4201371 L81.8466622,1.9745584 C82.1038702,1.4838807 82.0327559,0.8823612 81.668987,0.467380332 Z" id="Fill-5" fill="#A2D600"></path>
                <path d="M39,40.0552156 L22,50 C22.2011055,49.8738257 22.3697527,49.7012267 22.4920957,49.4962222 L31.3566279,34.0609038 L31.4440157,34 L36.4575812,38.0205694 L38.6962989,39.8263093 L39,40.0552156 Z" id="Fill-7" fill="#92C100"></path>
                <path d="M82,1 L32.3156149,34.4218936 L32.2809444,34.3984359 L32.2305949,34.4807591 L23.6062506,49.3431959 C23.4872226,49.5405945 23.3231449,49.70679 23.1274884,49.8282831 C22.7196131,50.0595405 22.2196511,50.0571063 21.8142049,49.8216442 C21.408317,49.5861821 21.1572319,49.1531001 21.1543611,48.6835037 L21.0090541,25.3501862 L21.0125874,25.3375721 L21,25.3340314 L21.0035333,25.321196 L82,1 Z" id="Fill-9" fill="#8FCA00"></path>
            </g>
        </g>
    </g>
</svg>