<?xml version="1.0" encoding="UTF-8"?>
<svg width="48px" height="108px" viewBox="0 0 48 108" version="1.1" xmlns="http://www.w3.org/2000/svg" xmlns:xlink="http://www.w3.org/1999/xlink">
    <!-- Generator: Sketch 50 (54983) - http://www.bohemiancoding.com/sketch -->
    <title>Fill 1</title>
    <desc>Created with Sketch.</desc>
    <defs></defs>
    <g id="Page-1" stroke="none" stroke-width="1" fill="none" fill-rule="evenodd">
        <g id="Artboard-Copy" transform="translate(-659.000000, -226.000000)" fill="#A2D600">
            <path d="M666.894857,270.09212 L680.717377,270.09212 L681.549712,266.255516 L685.785191,245.729493 C687.087222,239.919362 688.284934,234.857167 692.733745,230.61409 C695.768774,227.678818 699.729764,226.015629 703.955985,226 C703.955985,226 705.608397,226.015629 706.649761,226.15773 L706.342933,227.534615 C706.342933,227.534615 704.073474,227.21561 702.682903,227.534615 C700.86671,227.966961 699.81674,228.718574 698.55748,229.965835 C696.244338,232.270319 695.41083,235.773471 693.934065,242.043921 L688.761019,266.442139 L687.981496,270.09212 L703.358759,270.09212 L702.775355,272.188049 L687.525622,272.188049 L678.684853,313.330713 C677.388169,319.134934 676.180416,324.200938 671.743341,328.446773 C668.680537,331.390188 664.703768,333.056529 660.445469,333.056529 L659,333.026454 L659.249061,331.680957 C659.691895,331.695009 660.190149,331.680957 660.586039,331.623171 C662.922131,331.289062 664.538162,330.49227 665.910608,328.752908 C668.097394,325.960525 669.055042,323.27925 670.538587,317.012871 L680.26359,272.188049 L666.315105,272.188049 L666.894857,270.09212 Z M698.402566,284.602083 C698.402566,282.30863 700.245752,280.451069 702.526685,280.451069 C704.802012,280.451069 706.649761,282.30863 706.649761,284.602083 C706.649761,286.896979 704.802012,288.757298 702.526685,288.757298 C700.245752,288.757298 698.402566,286.896979 698.402566,284.602083 Z" id="Fill-1"></path>
        </g>
    </g>
</svg>