<?xml version="1.0" encoding="UTF-8"?>
<svg width="34px" height="22px" viewBox="0 0 34 22" version="1.1" xmlns="http://www.w3.org/2000/svg" xmlns:xlink="http://www.w3.org/1999/xlink">
    <!-- Generator: Sketch 50 (54983) - http://www.bohemiancoding.com/sketch -->
    <title>argentina</title>
    <desc>Created with Sketch.</desc>
    <defs></defs>
    <g id="Page-1" stroke="none" stroke-width="1" fill="none" fill-rule="evenodd">
        <g id="Indice-de-Empresas---Desktop" transform="translate(-159.000000, -598.000000)" fill-rule="nonzero">
            <g id="argentina" transform="translate(159.000000, 598.000000)">
                <g id="Group" fill="#82AFFF">
                    <path d="M33.9337895,7.33942262 L0,7.33942262 L0,0.596095238 C0,0.27689881 0.261992203,0.0180714286 0.585091618,0.0180714286 L33.3486979,0.0180714286 C33.6717973,0.0180714286 33.9337895,0.27689881 33.9337895,0.596095238 L33.9337895,7.33942262 Z" id="Shape"></path>
                    <path d="M33.3486316,21.981994 L0.585091618,21.981994 C0.261992203,21.981994 0,21.7231667 0,21.4039702 L0,14.6607083 L33.9337232,14.6607083 L33.9337232,21.4039702 C33.9337232,21.7232321 33.671731,21.981994 33.3486316,21.981994 Z" id="Shape"></path>
                </g>
                <rect id="Rectangle-path" fill="#F5F5F5" x="0" y="7" width="34" height="7"></rect>
                <path d="M20,10.8500612 L17.8397336,10.8500612 C17.8800381,10.8194753 17.9119146,10.7893652 17.9407327,10.7609543 C17.9934752,10.7093661 18.0354109,10.668381 18.146673,10.6226381 C18.2585469,10.5757397 18.3171345,10.575196 18.3912866,10.5740405 C18.4805954,10.5734288 18.5817304,10.5717296 18.7469585,10.503693 C18.9119146,10.4351126 18.9839598,10.3647651 19.047577,10.3027097 C19.1003194,10.2511215 19.1422551,10.2101364 19.2537892,10.1637818 C19.3647794,10.1174951 19.4231632,10.1168834 19.4969075,10.1163397 C19.5860124,10.1151162 19.6870115,10.1140287 19.8522395,10.0454484 L19.7368314,9.76881599 C19.6258411,9.81510263 19.5674574,9.81571435 19.493713,9.8162581 C19.4046082,9.81748154 19.3036091,9.81856903 19.1386529,9.88660565 C18.9737647,9.95518601 18.9016516,10.0255336 18.8380344,10.0875889 C18.7852919,10.1391771 18.7433562,10.1801622 18.6320941,10.2259051 C18.5202202,10.2728035 18.4616326,10.2733472 18.3874805,10.2745027 C18.2981717,10.2751144 18.1970366,10.2768136 18.0318086,10.345394 C17.8669204,10.4133626 17.7948073,10.4843219 17.7311901,10.5463773 C17.6792632,10.596878 17.636376,10.6373193 17.5295997,10.6824505 L19.2274179,8.98479768 L19.0152926,8.77266754 L17.4870523,10.3008066 C17.493781,10.2508496 17.4956161,10.2063981 17.4960239,10.1660927 C17.4969075,10.091667 17.4975192,10.0336218 17.5438048,9.92174543 C17.5900904,9.80986905 17.6310746,9.76820427 17.6827296,9.71552857 C17.7453952,9.65163804 17.816013,9.57904753 17.8845239,9.41381576 C17.9527629,9.24858399 17.9539863,9.14778649 17.9548698,9.05874756 C17.9557534,8.98493362 17.9563651,8.92627668 18.0023109,8.81501201 C18.0485965,8.70367937 18.0893088,8.66208256 18.1408958,8.60933889 C18.2032896,8.54544837 18.2738395,8.47333364 18.3422144,8.30871358 L18.0651125,8.19391454 C18.0188269,8.30524718 17.9781146,8.34684399 17.9265276,8.39958766 C17.8641338,8.46347818 17.7935839,8.53559291 17.725209,8.70021297 C17.65697,8.86544474 17.6557466,8.96624224 17.654863,9.05528116 C17.6539795,9.12909511 17.6533678,9.18775205 17.607422,9.29901672 C17.5611364,9.41089311 17.5201522,9.45255789 17.4684972,9.50523359 C17.4058316,9.56912411 17.3352138,9.64171462 17.2667029,9.8069464 C17.1984639,9.97217817 17.1972405,10.0735874 17.1961531,10.1626263 C17.1955414,10.234877 17.1935023,10.293262 17.1502073,10.4005166 L17.1502073,8 L16.8502005,8 L16.8502005,10.1602474 C16.8196153,10.1202139 16.7895738,10.0884045 16.7614355,10.0595858 C16.7096445,10.0068422 16.6688643,9.96463365 16.6225107,9.85336898 C16.5762251,9.74149259 16.5753415,9.68290362 16.574458,9.60840999 C16.5735744,9.51930309 16.5724189,9.41796185 16.5039081,9.25273007 C16.4356691,9.08811002 16.3649833,9.01606326 16.3025895,8.95210476 C16.2510025,8.89936109 16.2103582,8.85776428 16.1640046,8.74643165 C16.1180589,8.63509901 16.1174472,8.57651004 16.1165636,8.50269609 C16.11568,8.4135892 16.1145246,8.31285967 16.0462176,8.14817164 L15.7691157,8.26297068 C15.8150615,8.37430332 15.8156732,8.43234854 15.8165568,8.50609452 C15.8174404,8.59520141 15.8185958,8.69593094 15.8869027,8.86116272 C15.9551417,9.02578277 16.0258275,9.09782953 16.0882213,9.16178803 C16.1398083,9.2145317 16.1804527,9.25612851 16.2268062,9.36746114 C16.2730918,9.47933753 16.2739754,9.5379265 16.274859,9.61242014 C16.2757425,9.70152703 16.276898,9.80286828 16.3454088,9.96810005 C16.4136478,10.1333318 16.4843336,10.2053786 16.5467274,10.2692691 C16.5975668,10.3209253 16.6378033,10.3640854 16.6829335,10.4705922 L14.9849793,8.77280348 L14.7728539,8.98493362 L16.4681574,10.6800716 C16.3751784,10.6378631 16.3303201,10.599053 16.2815877,10.5517468 C16.2174947,10.4890797 16.1451098,10.4181884 15.97927,10.349608 C15.814042,10.2816394 15.7129749,10.2798722 15.6235982,10.2787168 C15.5491742,10.278105 15.4906545,10.2770175 15.3778291,10.2301192 C15.2650037,10.1838325 15.2228641,10.1428474 15.1692381,10.0907155 C15.1051451,10.0285921 15.0324203,9.95776882 14.8663087,9.88857674 C14.700469,9.81999638 14.5990621,9.81884091 14.5094814,9.81768544 C14.4347856,9.81646201 14.3759261,9.81537451 14.2631007,9.76847614 L14.1483042,10.046196 C14.314144,10.1147764 14.4155509,10.1159319 14.5051315,10.1170873 C14.5798274,10.1183108 14.6386869,10.1193983 14.7515123,10.1662966 C14.8646095,10.2125833 14.9067491,10.2535684 14.9603752,10.3057003 C15.0244682,10.3683674 15.097193,10.438647 15.2629647,10.5072953 C15.4288045,10.5764194 15.5302114,10.5776428 15.6195202,10.5787983 C15.6939441,10.5800217 15.7524638,10.5804975 15.8647455,10.6273959 C15.9769592,10.6736825 16.0188949,10.7146676 16.0719092,10.7663238 C16.099164,10.7930355 16.1296133,10.8213104 16.1664514,10.8501291 L14,10.8501291 L14,11.1501427 L16.3961123,11.1501427 C16.3014341,11.1861661 16.2422348,11.19072 16.1743356,11.1917395 C16.0850268,11.1923513 15.9838918,11.1940505 15.8183919,11.2620871 C15.652892,11.3306675 15.5801672,11.4014908 15.5160742,11.4636821 C15.46272,11.515814 15.4208523,11.5567991 15.3086386,11.6030858 C15.1958132,11.6499841 15.1369537,11.6511396 15.0622579,11.6522951 C14.9726093,11.6535185 14.8712703,11.654606 14.7054306,11.7231864 C14.539319,11.7923105 14.4666621,11.8625901 14.4025012,11.9253251 C14.3488751,11.9774571 14.3067355,12.0184422 14.1939101,12.0647288 L14.3087066,12.3424487 C14.4745463,12.2733246 14.5472032,12.203045 14.6112961,12.1403099 C14.6649222,12.088178 14.7070618,12.0471929 14.820159,12.0009062 C14.9329844,11.9540079 14.9918439,11.9528524 15.0665398,11.951697 C15.1561884,11.9504735 15.2575274,11.949386 15.4237069,11.8801939 C15.588935,11.8116136 15.6613199,11.741266 15.7254129,11.6785989 C15.7784272,11.6270107 15.8206348,11.5860256 15.9331883,11.539671 C16.0450622,11.4927727 16.1039897,11.4922289 16.1781418,11.4910735 C16.2160674,11.4908695 16.2588187,11.4883547 16.3051043,11.4826453 L14.7725141,13.0150664 L14.9846394,13.2271965 L16.6791273,11.5329421 C16.6373955,11.6255154 16.5988582,11.6701708 16.5514171,11.7190403 C16.4890233,11.7829308 16.4184735,11.8555213 16.3498267,12.0207531 C16.2811799,12.1859849 16.2797526,12.2880058 16.278937,12.3769768 C16.2777136,12.4514024 16.2772378,12.5099234 16.2305444,12.6224795 C16.183987,12.7355793 16.142663,12.7777199 16.0908041,12.8310753 C16.0281384,12.8949658 15.9575206,12.968168 15.8886699,13.1340115 C15.8198192,13.299855 15.8185958,13.4012642 15.8175083,13.4908469 C15.8162849,13.5652726 15.8154693,13.6244053 15.7689118,13.7368934 L16.0460137,13.8516924 C16.1148644,13.6858489 16.1160878,13.5844397 16.1171753,13.494857 C16.1183987,13.4204314 16.1192143,13.3612987 16.1657718,13.2488105 C16.2123292,13.1357107 16.2536532,13.0935702 16.3055121,13.0402148 C16.3681778,12.9763243 16.4387956,12.903122 16.5076463,12.7372785 C16.5762251,12.5720468 16.5777204,12.4700258 16.578536,12.3810549 C16.5797594,12.3066292 16.5802352,12.2481082 16.6269286,12.1355521 C16.6732142,12.023064 16.7141983,11.9813992 16.7660572,11.9281118 C16.7927003,11.9007884 16.8210426,11.8702705 16.8498607,11.8332956 L16.8498607,14 L17.1498675,14 L17.1498675,11.6039694 C17.1856182,11.6984458 17.190172,11.7575105 17.1911915,11.8256151 C17.192075,11.914722 17.1935023,12.0160633 17.2620812,12.181295 C17.3303201,12.3471385 17.4012098,12.419797 17.4636716,12.4836196 C17.5154625,12.5369749 17.5565146,12.5791155 17.6030721,12.6916036 C17.6496296,12.8040917 17.6505132,12.8632924 17.6516686,12.9376501 C17.652892,13.0273007 17.6539795,13.128642 17.7228302,13.2944855 C17.7916808,13.460329 17.8622307,13.5335992 17.9249643,13.5974217 C17.9767553,13.6507771 18.0180792,13.6929177 18.0647047,13.8060175 L18.3418066,13.6912185 C18.2729559,13.525375 18.202406,13.4521048 18.1396724,13.3882822 C18.0878815,13.3349268 18.0465575,13.2927863 17.999932,13.1796864 C17.9533746,13.0671983 17.952491,13.0079976 17.9513356,12.9336399 C17.9501121,12.8439893 17.9490247,12.7426481 17.880174,12.5768046 C17.8115952,12.4109611 17.7410453,12.3383026 17.6785836,12.27448 C17.6267926,12.2211247 17.5857405,12.1789841 17.539183,12.066496 C17.4926256,11.9546196 17.4920139,11.8960306 17.4907905,11.821537 C17.4903827,11.7836785 17.4879358,11.7408582 17.4822266,11.6945716 L19.0150207,13.2272645 L19.2271461,13.0151344 L17.6991096,11.4873352 C17.7487256,11.4939281 17.7931761,11.4958992 17.8332087,11.496443 C17.9072929,11.4970547 17.9656766,11.4976664 18.0775505,11.5438851 C18.1894243,11.5907835 18.23136,11.6311568 18.2843744,11.6832888 C18.3482634,11.7454121 18.4205804,11.8162354 18.5858764,11.8848838 C18.7508326,11.9528524 18.8518997,11.9540079 18.9409366,11.9546196 C19.0147489,11.955843 19.0730646,11.9563188 19.1843948,12.0026734 C19.2957249,12.0483484 19.3373207,12.0894014 19.3900632,12.1409896 C19.4539523,12.203113 19.5260654,12.2739363 19.6909536,12.3425846 L19.80575,12.0648647 C19.6944199,12.0191898 19.652824,11.9781368 19.6000816,11.9265486 C19.5361925,11.8644252 19.4640794,11.7936019 19.2991912,11.7249536 C19.134303,11.6569849 19.0331679,11.6558294 18.944131,11.6552177 C18.8703188,11.6539943 18.812003,11.6535185 18.7006729,11.6071639 C18.588799,11.5608772 18.5468633,11.5204359 18.493849,11.468236 C18.4299599,11.4061126 18.3576429,11.3352893 18.1923469,11.2672527 C18.0271189,11.1981286 17.9260518,11.1969052 17.836675,11.1963614 C17.7639502,11.195138 17.7050228,11.1937786 17.597159,11.1500748 L19.9997961,11.1500748 L19.9997961,10.8500612 L20,10.8500612 Z" id="Shape" fill="#F09146"></path>
                <circle id="Oval" fill="#FFE15A" cx="17.5" cy="11.5" r="1.5"></circle>
            </g>
        </g>
    </g>
</svg>