<?xml version="1.0" encoding="UTF-8"?>
<svg width="34px" height="23px" viewBox="0 0 34 23" version="1.1" xmlns="http://www.w3.org/2000/svg" xmlns:xlink="http://www.w3.org/1999/xlink">
    <!-- Generator: Sketch 50 (54983) - http://www.bohemiancoding.com/sketch -->
    <title>brazil</title>
    <desc>Created with Sketch.</desc>
    <defs></defs>
    <g id="Page-1" stroke="none" stroke-width="1" fill="none" fill-rule="evenodd">
        <g id="Indice-de-Empresas---Desktop" transform="translate(-642.000000, -598.000000)" fill-rule="nonzero">
            <g id="brazil" transform="translate(642.000000, 598.000000)">
                <path d="M33.3486316,22.0819122 L0.585091618,22.0819122 C0.261992203,22.0819122 0,21.8219083 0,21.501261 L0,0.598804762 C0,0.278157441 0.261992203,0.0181535719 0.585091618,0.0181535719 L33.3486979,0.0181535719 C33.6717973,0.0181535719 33.9337895,0.278157441 33.9337895,0.598804762 L33.9337895,21.501261 C33.9337232,21.8219741 33.671731,22.0819122 33.3486316,22.0819122 Z" id="Shape" fill="#73AF00"></path>
                <path d="M16.6626511,3.10511577 L4.33145419,10.5540655 C3.95692398,10.7802616 3.95692398,11.3197384 4.33145419,11.5460003 L16.6626511,18.9950158 C16.8494854,19.1078836 17.0841715,19.1078836 17.2710721,18.9950158 L29.6023353,11.5460661 C29.9768655,11.3198699 29.9768655,10.7803932 29.6023353,10.5541313 L17.2710721,3.10511577 C17.0842378,2.99224792 16.8494854,2.99224792 16.6626511,3.10511577 Z" id="Shape" fill="#FFE15A"></path>
                <ellipse id="Oval" fill="#41479B" cx="16.9668616" cy="11.0500658" rx="4.68046784" ry="4.64494643"></ellipse>
                <g id="Group" transform="translate(12.393762, 8.616369)" fill="#F5F5F5">
                    <path d="M0.556791423,0.0574863095 C0.335957115,0.424372619 0.165426901,0.823093452 0.0527563353,1.24647946 C2.6474269,1.05270982 6.4857154,1.77306458 8.92867836,4.12559643 C9.08814035,3.72167946 9.19338791,3.2913872 9.23288889,2.84156012 C6.71032749,0.734627679 3.22290838,-0.0146017857 0.556791423,0.0574863095 Z" id="Shape"></path>
                    <path d="M4.76695906,4.01877976 L4.89155945,4.3896125 L5.2854425,4.3926381 C5.33640936,4.39303274 5.35755166,4.45762262 5.31659259,4.48768125 L4.9997232,4.71992857 L5.1185575,5.09260298 C5.13393372,5.14088095 5.07852632,5.18080565 5.03710331,5.15133899 L4.71665497,4.9240247 L4.39620663,5.15133899 C4.35471735,5.18080565 4.29937622,5.14088095 4.31475244,5.09260298 L4.43358674,4.71992857 L4.11671735,4.48768125 C4.07569201,4.45762262 4.09683431,4.39303274 4.14780117,4.3926381 L4.54168421,4.3896125 L4.6662846,4.01877976 C4.68238986,3.97076488 4.75078752,3.97076488 4.76695906,4.01877976 Z" id="Shape"></path>
                    <path d="M6.29788694,4.97809077 L6.35150487,5.13765804 L6.52104094,5.13897351 C6.54297856,5.13910506 6.55212476,5.16692738 6.53442885,5.17988482 L6.39803119,5.27979524 L6.4491306,5.44021756 C6.45575828,5.46100208 6.43196491,5.47816905 6.41407018,5.4654747 L6.27614815,5.36766905 L6.13822612,5.4654747 C6.12039766,5.47816905 6.09653801,5.46100208 6.10316569,5.44021756 L6.15426511,5.27979524 L6.01786745,5.17988482 C6.00023782,5.16699315 6.00931774,5.13917083 6.03125536,5.13897351 L6.20079142,5.13765804 L6.25440936,4.97809077 C6.2614347,4.95737202 6.29092788,4.95737202 6.29788694,4.97809077 Z" id="Shape"></path>
                    <path d="M4.10505263,3.31434226 L4.15867057,3.47390952 L4.32820663,3.475225 C4.35014425,3.47535655 4.35929045,3.50317887 4.34159454,3.51613631 L4.20519688,3.61604673 L4.2562963,3.77646905 C4.26292398,3.79725357 4.2391306,3.81442054 4.22123587,3.80172619 L4.08331384,3.70392054 L3.94539181,3.80172619 C3.92756335,3.81442054 3.9037037,3.79725357 3.91033138,3.77646905 L3.9614308,3.61604673 L3.82503314,3.51613631 C3.80740351,3.50324464 3.81648343,3.47542232 3.83842105,3.475225 L4.00795712,3.47390952 L4.06157505,3.31434226 C4.06860039,3.29368929 4.09809357,3.29368929 4.10505263,3.31434226 Z" id="Shape"></path>
                    <path d="M1.13532164,3.12083571 L1.18893957,3.28040298 L1.35847563,3.28171845 C1.38041326,3.28185 1.38955945,3.30967232 1.37186355,3.32262976 L1.23546589,3.42254018 L1.2865653,3.5829625 C1.29319298,3.60374702 1.26939961,3.62091399 1.25150487,3.60821964 L1.11358285,3.51041399 L0.975660819,3.60821964 C0.957832359,3.62091399 0.93397271,3.60374702 0.94060039,3.5829625 L0.991699805,3.42254018 L0.855302144,3.32262976 C0.837672515,3.3097381 0.846752437,3.28191577 0.868690058,3.28171845 L1.03822612,3.28040298 L1.09184405,3.12083571 C1.09893567,3.10018274 1.12836257,3.10018274 1.13532164,3.12083571 Z" id="Shape"></path>
                    <path d="M3.61964133,4.92297232 L3.67325926,5.08253958 L3.84279532,5.08385506 C3.86473294,5.08398661 3.87387914,5.11180893 3.85618324,5.12476637 L3.71978558,5.22467679 L3.77088499,5.38509911 C3.77751267,5.40588363 3.7537193,5.4230506 3.73582456,5.41035625 L3.59790253,5.3125506 L3.45998051,5.41035625 C3.44215205,5.4230506 3.4182924,5.40588363 3.42492008,5.38509911 L3.47601949,5.22467679 L3.33962183,5.12476637 C3.3219922,5.1118747 3.33107212,5.08405238 3.35300975,5.08385506 L3.52254581,5.08253958 L3.57616374,4.92297232 C3.58325536,4.90238512 3.61274854,4.90238512 3.61964133,4.92297232 Z" id="Shape"></path>
                    <path d="M2.28646823,3.01208395 L2.33659864,3.16937525 L2.49501678,3.17072301 C2.51546271,3.17088157 2.52401971,3.19831241 2.50758724,3.21107647 L2.38014091,3.30954209 L2.42792382,3.46762619 C2.43413332,3.4880804 2.41186997,3.50504629 2.39513459,3.49252007 L2.26624947,3.39611573 L2.13736435,3.49252007 C2.12062897,3.50504629 2.09844135,3.4880804 2.10457513,3.46762619 L2.15235804,3.30954209 L2.0249117,3.21107647 C2.00847923,3.19831241 2.01688478,3.17088157 2.03748217,3.17072301 L2.19590031,3.16937525 L2.24603071,3.01208395 C2.2524674,2.99170902 2.27995582,2.99170902 2.28646823,3.01208395 Z" id="Shape"></path>
                    <path d="M6.4168538,0.315319643 L6.47173099,0.478570238 L6.64511111,0.479885714 C6.66757895,0.480017262 6.6768577,0.508497321 6.65876413,0.521717857 L6.51931774,0.623930357 L6.57161014,0.788036012 C6.57843665,0.809280952 6.55398051,0.82684256 6.53575439,0.813885119 L6.39465107,0.713777381 L6.25354776,0.813885119 C6.23525536,0.826908333 6.21093177,0.809215179 6.21769201,0.788036012 L6.26998441,0.623930357 L6.13053801,0.521717857 C6.11244444,0.508497321 6.12178947,0.480083036 6.14419103,0.479885714 L6.31757115,0.478570238 L6.37244834,0.315319643 C6.37960624,0.294140476 6.40976218,0.294140476 6.4168538,0.315319643 Z" id="Shape"></path>
                    <path d="M1.36005108,2.21372145 L1.41018148,2.37101275 L1.56859962,2.37236051 C1.58904556,2.37251907 1.59760256,2.39994991 1.58117009,2.41271397 L1.45372375,2.51117959 L1.50150666,2.66926369 C1.50771617,2.6897179 1.48545282,2.70668379 1.46871744,2.69415757 L1.33983232,2.59775323 L1.2109472,2.69415757 C1.19421182,2.70668379 1.17202419,2.6897179 1.17815797,2.66926369 L1.22594088,2.51117959 L1.09849455,2.41271397 C1.08206207,2.39994991 1.09046763,2.37259835 1.11106501,2.37236051 L1.26948315,2.37101275 L1.31961356,2.21372145 C1.32605024,2.19334652 1.35353867,2.19334652 1.36005108,2.21372145 Z" id="Shape"></path>
                    <path d="M1.9957271,4.05041696 L2.06213645,4.24813304 L2.27210136,4.24971161 C2.29927485,4.24990893 2.31054191,4.28430863 2.28867057,4.30035744 L2.11973099,4.42414375 L2.18309162,4.62278065 C2.19130994,4.64849821 2.16181676,4.66980893 2.13968031,4.65408899 L1.96881871,4.53293363 L1.79795712,4.65408899 C1.77588694,4.66974315 1.74632749,4.64849821 1.75454581,4.62278065 L1.81790643,4.42414375 L1.64896686,4.30035744 C1.62709552,4.28430863 1.63836257,4.24990893 1.66553606,4.24971161 L1.87550097,4.24813304 L1.94191033,4.05041696 C1.95072515,4.02489673 1.98717739,4.02489673 1.9957271,4.05041696 Z" id="Shape"></path>
                    <path d="M7.19635843,5.02273434 L7.24642846,5.18010669 L7.40482462,5.18135502 C7.42532949,5.18152146 7.43383345,5.20890142 7.41738187,5.22163435 L7.28998144,5.32016892 L7.33774667,5.47829027 C7.34394581,5.49876282 7.32169247,5.51565684 7.30492298,5.50317358 L7.17609199,5.40671955 L7.04718152,5.50317358 C7.03049151,5.51565684 7.00823816,5.49876282 7.01435783,5.47829027 L7.06212305,5.32016892 L6.93472263,5.22163435 C6.91827105,5.20890142 6.92677501,5.18152146 6.94727988,5.18135502 L7.10567603,5.18010669 L7.15574607,5.02273434 C7.1623426,5.002345 7.18992085,5.002345 7.19635843,5.02273434 Z" id="Shape"></path>
                    <path d="M7.61368031,4.0704122 L7.66729825,4.22997946 L7.83683431,4.23129494 C7.85877193,4.23142649 7.86791813,4.25924881 7.85022222,4.27220625 L7.71382456,4.37211667 L7.76492398,4.53253899 C7.77155166,4.55332351 7.74775828,4.57049048 7.72986355,4.55779613 L7.59194152,4.45999048 L7.45401949,4.55779613 C7.43619103,4.57049048 7.41233138,4.55332351 7.41895906,4.53253899 L7.47005848,4.37211667 L7.33366082,4.27220625 C7.31603119,4.25931458 7.32511111,4.23149226 7.34704873,4.23129494 L7.5165848,4.22997946 L7.57020273,4.0704122 C7.57722807,4.04969345 7.60672125,4.04969345 7.61368031,4.0704122 Z" id="Shape"></path>
                </g>
            </g>
        </g>
    </g>
</svg>