<?xml version="1.0" encoding="UTF-8"?>
<svg width="34px" height="23px" viewBox="0 0 34 23" version="1.1" xmlns="http://www.w3.org/2000/svg" xmlns:xlink="http://www.w3.org/1999/xlink">
    <!-- Generator: Sketch 50 (54983) - http://www.bohemiancoding.com/sketch -->
    <title>chile</title>
    <desc>Created with Sketch.</desc>
    <defs></defs>
    <g id="Page-1" stroke="none" stroke-width="1" fill="none" fill-rule="evenodd">
        <g id="Indice-de-Empresas---Desktop" transform="translate(-280.000000, -598.000000)" fill-rule="nonzero">
            <g id="chile" transform="translate(280.000000, 598.000000)">
                <path d="M33.9337901,11.0500002 L0,11.0500002 L0,0.598738998 C0,0.278091671 0.261992207,0.0180877976 0.585091628,0.0180877976 L33.3486984,0.0180877976 C33.6717979,0.0180877976 33.9337901,0.278091671 33.9337901,0.598738998 L33.9337901,11.0500002 Z" id="Shape" fill="#F5F5F5"></path>
                <path d="M1.17011698,11.0500002 L1.17011698,10.469349 L0,10.469349 L0,11.0500002 L0,11.6306514 L0,21.5012614 C0,21.8219087 0.261992207,22.0819126 0.585091628,22.0819126 L33.3486984,22.0819126 C33.6717979,22.0819126 33.9337901,21.8219087 33.9337901,21.5012614 L33.9337901,11.0500002 L1.17011698,11.0500002 Z" id="Shape" fill="#FF4B55"></path>
                <path d="M10.5311854,11.0500002 L0.585091628,11.0500002 C0.261992207,11.0500002 0,10.7899963 0,10.469349 L0,0.598738998 C0,0.278091671 0.261992207,0.0180877976 0.585091628,0.0180877976 L10.5311854,0.0180877976 C10.8542848,0.0180877976 11.116277,0.278091671 11.116277,0.598738998 L11.116277,10.469349 C11.1162107,10.7899963 10.8542848,11.0500002 10.5311854,11.0500002 Z" id="Shape" fill="#41479B"></path>
                <path d="M5.78344649,3.05762714 L6.34123208,4.71736347 L8.10419507,4.73091288 C8.33245239,4.732623 8.42709566,5.02176467 8.24344264,5.15627211 L6.82525158,6.1955641 L7.35699038,7.86371948 C7.4257857,8.07972068 7.17804301,8.25829657 6.9923354,8.1266174 L5.55810536,7.10929387 L4.12380904,8.12668318 C3.93810143,8.25842812 3.69035874,8.07972068 3.75915406,7.86378525 L4.29089286,6.19562987 L2.8727018,5.15633789 C2.68904878,5.02176467 2.78369206,4.73268877 3.01194937,4.73097865 L4.77491236,4.71742925 L5.33269795,3.05769291 C5.40493966,2.8427441 5.71127105,2.8427441 5.78344649,3.05762714 Z" id="Shape" fill="#F5F5F5"></path>
            </g>
        </g>
    </g>
</svg>