<?xml version="1.0" encoding="UTF-8"?>
<svg width="34px" height="23px" viewBox="0 0 34 23" version="1.1" xmlns="http://www.w3.org/2000/svg" xmlns:xlink="http://www.w3.org/1999/xlink">
    <!-- Generator: Sketch 50 (54983) - http://www.bohemiancoding.com/sketch -->
    <title>ecuador</title>
    <desc>Created with Sketch.</desc>
    <defs></defs>
    <g id="Page-1" stroke="none" stroke-width="1" fill="none" fill-rule="evenodd">
        <g id="Indice-de-Empresas---Desktop" transform="translate(-1125.000000, -598.000000)" fill-rule="nonzero">
            <g id="ecuador" transform="translate(1125.000000, 598.000000)">
                <path d="M33.9337895,16.565989 L0,16.565989 L0,21.501261 C0,21.8219083 0.261992203,22.0819122 0.585091618,22.0819122 L33.3486979,22.0819122 C33.6717973,22.0819122 33.9337895,21.8219083 33.9337895,21.501261 L33.9337895,16.565989 Z" id="Shape" fill="#FF4B55"></path>
                <path d="M33.9337895,11.0500658 L0,11.0500658 L0,0.598804762 C0,0.27815744 0.261992203,0.0181535714 0.585091618,0.0181535714 L33.3486979,0.0181535714 C33.6717973,0.0181535714 33.9337895,0.27815744 33.9337895,0.598804762 L33.9337895,11.0500658 Z" id="Shape" fill="#FFE15A"></path>
                <rect id="Rectangle-path" fill="#41479B" x="0" y="11.0500658" width="33.9337232" height="5.51579167"></rect>
                <path d="M16.3563197,11.3758435 L20.629848,7.74065655 L20.629848,13.0017063 C20.629848,13.888403 19.9055088,14.6071134 19.0121637,14.6071134 C18.6125146,14.6071134 18.2269825,14.4603062 17.9299298,14.1950405 L16.3563197,12.7895857 L16.3563197,11.3758435 Z" id="Shape" fill="#FFE15A"></path>
                <path d="M18.6105926,13.4444955 L17.3738674,12.3398902 L17.3738674,10.5103917 L19.6123665,8.60623988 L19.6123665,9.93625208 L19.6123665,13.001772 C19.6123665,13.3301807 19.3430838,13.5974196 19.0121637,13.5974196 C18.8636374,13.5974196 18.7210097,13.5430905 18.6105926,13.4444955 Z" id="Shape" fill="#FF4B55"></path>
                <path d="M17.9843431,9.99110744 L17.9843431,12.070678 L19.0018246,12.9824345 L19.0018246,9.92362351 L19.0018246,9.12565565 L19.6123665,8.60630565 L19.6123665,9.93631786 L19.6123665,13.0018378 C19.6123665,13.3302464 19.3430838,13.5974854 19.0121637,13.5974854 C18.8636374,13.5974854 18.7210097,13.543222 18.6105926,13.4445613 L17.3738674,12.339956 L17.3738674,10.5104574 L17.9843431,9.99110744 Z" id="Shape" fill="#41479B"></path>
                <path d="M17.5774035,11.3758435 L13.3038752,7.74065655 L13.3038752,13.0017063 C13.3038752,13.888403 14.0282144,14.6071134 14.9215595,14.6071134 C15.3212086,14.6071134 15.7067407,14.4603062 16.0037934,14.1950405 L17.5774035,12.7895857 L17.5774035,11.3758435 Z" id="Shape" fill="#FFE15A"></path>
                <path d="M15.3231306,13.4444955 L16.5598558,12.3398902 L16.5598558,10.5103917 L14.3213567,8.60623988 L14.3213567,9.93625208 L14.3213567,13.001772 C14.3213567,13.3301807 14.5906394,13.5974196 14.9215595,13.5974196 C15.0700858,13.5974196 15.2127135,13.5430905 15.3231306,13.4444955 Z" id="Shape" fill="#FF4B55"></path>
                <g id="Group" transform="translate(13.122807, 7.695536)" fill="#41479B">
                    <path d="M2.8265731,2.29557173 L2.8265731,4.37514226 L1.80909162,5.28689881 L1.80909162,2.2280878 L1.80909162,1.43011994 L1.19854971,0.91076994 L1.19854971,2.24078214 L1.19854971,5.30630208 C1.19854971,5.63471071 1.46783236,5.9019497 1.79875244,5.9019497 C1.94727875,5.9019497 2.08990643,5.84768631 2.20032359,5.7490256 L3.43704873,4.64442024 L3.43704873,2.81492173 L2.8265731,2.29557173 Z" id="Shape"></path>
                    <rect id="Rectangle-path" x="7.35937622" y="0.063208631" width="1" height="1.73965149"></rect>
                    <rect id="Rectangle-path" x="0.0338011696" y="0.063208631" width="1" height="1.73965149"></rect>
                </g>
                <g id="Group" transform="translate(12.261209, 5.196131)" fill="#5A4646">
                    <path d="M4.09511111,1.73675744 C4.09511111,1.73675744 4.50211696,-0.181864583 3.07762963,0.0705752976 C1.6531423,0.323015179 1.6531423,0.726866369 0.0251189084,1.53476607 C0.0251189084,1.53476607 1.85661209,1.93868304 2.67062378,1.73675744 C2.67062378,1.73675744 3.28116569,2.5445256 3.89164133,2.74651696 L4.50218324,2.74651696 L4.09511111,1.73675744 Z" id="Shape"></path>
                    <path d="M5.31619493,1.73675744 C5.31619493,1.73675744 4.90918908,-0.181864583 6.33367641,0.0705752976 C7.75816374,0.323015179 7.75816374,0.726866369 9.38618713,1.53476607 C9.38618713,1.53476607 7.55469396,1.93868304 6.74068226,1.73675744 C6.74068226,1.73675744 6.13014035,2.5445256 5.51966472,2.74651696 L4.90912281,2.74651696 L5.31619493,1.73675744 Z" id="Shape"></path>
                    <path d="M5.31619493,2.74651696 L4.09517739,2.74651696 L4.09517739,1.72925923 C4.09517739,1.39874583 4.36512281,1.13084911 4.69816374,1.13084911 L4.71320858,1.13084911 C5.04624951,1.13084911 5.31619493,1.39874583 5.31619493,1.72925923 L5.31619493,2.74651696 Z" id="Shape"></path>
                </g>
                <ellipse id="Oval" fill="#E6E1CD" cx="16.9668616" cy="6.9326253" rx="1" ry="1"></ellipse>
                <path d="M16.0935322,6.67202946 L16.8587641,7.07759077 C16.9229864,7.11166161 17.0020546,7.09995387 17.0534191,7.04884762 C17.1179727,6.98478393 17.1179727,6.88099286 17.0534191,6.81686339 L16.5597895,6.32698006 L16.4410877,6.32698006 C16.2491501,6.32698006 16.0935322,6.48141696 16.0935322,6.67202946 Z" id="Shape" fill="#FFD0AF"></path>
                <path d="M16.3589045,6.82704583 L15.7459103,6.82704583 L16.0141326,6.44121521 C16.0645029,6.36882108 16.1381365,6.32704583 16.2157466,6.32704583 L16.5598558,6.32704583 L16.5598558,6.5801403 C16.5598558,6.71645951 16.4698519,6.82704583 16.3589045,6.82704583 Z" id="Shape" fill="#FFAF94"></path>
                <g id="Group" transform="translate(13.653021, 7.366667)" fill="#8CB400">
                    <path d="M5.04936452,0.57650744 C4.91203899,0.414835417 4.88274464,0.200478571 4.94968421,0.0147333333 C5.14546589,-0.0192059524 5.35337622,0.0457127976 5.49063548,0.207516369 C5.60794542,0.345707143 5.64194542,0.521388988 5.60887329,0.685823512 C5.64956725,0.754359821 5.69927485,0.842496726 5.75395322,0.946550893 C5.75667057,0.931751786 5.75607407,0.917084226 5.76031579,0.902285119 C5.80830019,0.734825 5.94211306,0.616300595 6.10064717,0.576178571 C6.21417934,0.693124405 6.26521248,0.86380744 6.21722807,1.03120179 C6.1760039,1.17524643 6.06956335,1.27962946 5.94019103,1.33251161 C5.99129045,1.44886548 6.04185965,1.5743619 6.08911501,1.70676458 C6.09183236,1.69900327 6.09203119,1.69111042 6.09521248,1.68341488 C6.16148928,1.52220327 6.30769591,1.41906994 6.46967641,1.39650952 C6.56948928,1.52509732 6.60130214,1.70031875 6.53509162,1.86153036 C6.47709942,2.0025494 6.35680702,2.09555357 6.21934893,2.13258423 C6.29013255,2.40968929 6.33699025,2.70369821 6.33699025,2.99968036 L6.13345419,2.99968036 C6.13345419,2.74171548 6.09355556,2.48335595 6.03330994,2.23617798 C5.9077154,2.27643155 5.76740741,2.26781518 5.64592203,2.19401696 C5.4977271,2.10390685 5.41952047,1.94552351 5.42316569,1.78470655 C5.56592593,1.70840893 5.74361404,1.70558065 5.89180897,1.79575655 C5.89717739,1.79897946 5.90075634,1.80371518 5.90592593,1.80713542 C5.86231579,1.68282292 5.81592203,1.56489048 5.76826901,1.45425893 C5.64612086,1.51154792 5.50236647,1.52036161 5.37047563,1.45892887 C5.2131345,1.3855253 5.11789474,1.23667917 5.10364522,1.07645417 C5.23659649,0.985291667 5.4122963,0.96325744 5.56910721,1.0356744 C5.51310331,0.928791964 5.46253411,0.83927381 5.42290058,0.772447619 C5.28272515,0.75639881 5.1477193,0.692335119 5.04936452,0.57650744 Z" id="Shape"></path>
                    <path d="M1.57831579,0.57650744 C1.71564133,0.414835417 1.74493567,0.200478571 1.6779961,0.0147333333 C1.48221442,-0.0192059524 1.27430409,0.0457127976 1.13704483,0.207516369 C1.01973489,0.345707143 0.985734893,0.521388988 1.01880702,0.685823512 C0.97811306,0.754359821 0.928405458,0.842496726 0.873727096,0.946550893 C0.871009747,0.931751786 0.871606238,0.917084226 0.867364522,0.902285119 C0.819380117,0.734825 0.685567251,0.616300595 0.527033138,0.576178571 C0.413500975,0.693124405 0.362467836,0.86380744 0.410452242,1.03120179 C0.451676413,1.17524643 0.558116959,1.27962946 0.687489279,1.33251161 C0.636389864,1.44886548 0.585820663,1.5743619 0.538565302,1.70676458 C0.535847953,1.69900327 0.535649123,1.69111042 0.532467836,1.68341488 C0.466191033,1.52220327 0.319984405,1.41906994 0.158003899,1.39650952 C0.0581910331,1.52509732 0.0263781676,1.70031875 0.0926549708,1.86153036 C0.150647173,2.0025494 0.270939571,2.09555357 0.408397661,2.13258423 C0.337614035,2.40968929 0.290756335,2.70369821 0.290756335,2.99968036 L0.494292398,2.99968036 C0.494292398,2.74171548 0.534191033,2.48335595 0.594436647,2.23617798 C0.720031189,2.27643155 0.860339181,2.26781518 0.981824561,2.19401696 C1.13008577,2.10390685 1.20822612,1.94552351 1.2045809,1.78470655 C1.06182066,1.70840893 0.884132554,1.70558065 0.735937622,1.79575655 C0.730569201,1.79897946 0.726990253,1.80371518 0.721820663,1.80713542 C0.765430799,1.68282292 0.811824561,1.56489048 0.859477583,1.45425893 C0.981625731,1.51154792 1.12538012,1.52036161 1.25727096,1.45892887 C1.41461209,1.3855253 1.50985185,1.23667917 1.52410136,1.07645417 C1.3911501,0.985291667 1.21545029,0.96325744 1.05863938,1.0356744 C1.11464327,0.928791964 1.16521248,0.83927381 1.204846,0.772447619 C1.34495517,0.75639881 1.47996101,0.692335119 1.57831579,0.57650744 Z" id="Shape"></path>
                </g>
                <path d="M16.9668616,12.3856687 L12.6933333,8.75048185 L12.6933333,14.0115315 C12.6933333,14.8982283 13.4176725,15.6169387 14.3110175,15.6169387 C14.7106667,15.6169387 15.0961988,15.4701315 15.3932515,15.2048658 L16.9668616,13.799411 L16.9668616,12.3856687 Z" id="Shape" fill="#FFE15A"></path>
                <path d="M14.7125887,14.4542551 L15.9493138,13.3496497 L15.9493138,11.5201512 L13.7108148,9.6159994 L13.7108148,10.9460116 L13.7108148,14.0115315 C13.7108148,14.3399402 13.9800975,14.6071792 14.3110175,14.6071792 C14.4596101,14.6071792 14.6021715,14.5529158 14.7125887,14.4542551 Z" id="Shape" fill="#FF4B55"></path>
                <path d="M15.3388382,11.000867 L15.3388382,13.0804375 L14.3213567,13.992194 L14.3213567,10.933383 L14.3213567,10.1354152 L13.7108148,9.61606518 L13.7108148,10.9460774 L13.7108148,14.0115973 C13.7108148,14.340006 13.9800975,14.6072449 14.3110175,14.6072449 C14.4595439,14.6072449 14.6021715,14.5529815 14.7125887,14.4543208 L15.9493138,13.3497155 L15.9493138,11.520217 L15.3388382,11.000867 Z" id="Shape" fill="#41479B"></path>
                <path d="M16.9668616,12.3856687 L21.2403899,8.75048185 L21.2403899,14.0115315 C21.2403899,14.8982283 20.5160507,15.6169387 19.6227057,15.6169387 C19.2230565,15.6169387 18.8375244,15.4701315 18.5404717,15.2048658 L16.9668616,13.799411 L16.9668616,12.3856687 Z" id="Shape" fill="#FFE15A"></path>
                <path d="M19.2211345,14.4542551 L17.9844094,13.3496497 L17.9844094,11.5201512 L20.2229084,9.6159994 L20.2229084,10.9460116 L20.2229084,14.0115315 C20.2229084,14.3399402 19.9536257,14.6071792 19.6227057,14.6071792 C19.4740468,14.6071792 19.3315517,14.5529158 19.2211345,14.4542551 Z" id="Shape" fill="#FF4B55"></path>
                <path d="M18.594885,11.000867 L18.594885,13.0804375 L19.6123665,13.992194 L19.6123665,10.933383 L19.6123665,10.1354152 L20.2229084,9.61606518 L20.2229084,10.9460774 L20.2229084,14.0115973 C20.2229084,14.340006 19.9536257,14.6072449 19.6227057,14.6072449 C19.4741793,14.6072449 19.3315517,14.5529815 19.2211345,14.4543208 L17.9844094,13.3497155 L17.9844094,11.520217 L18.594885,11.000867 Z" id="Shape" fill="#41479B"></path>
                <ellipse id="Oval" fill="#69C3FF" cx="16.9668616" cy="10.9717949" rx="2.03502924" ry="3.02954167"></ellipse>
                <path d="M15.1353684,11.7798262 L18.7983548,11.7798262 L19.0018908,10.972058 L18.0744795,11.1255083 C17.8884405,11.1562905 17.6981598,11.1036714 17.5549357,10.9818583 L16.5021949,10.0863479 C16.4081481,10.0063012 16.2882534,9.96229851 16.1643821,9.96229851 C16.0267251,9.96229851 15.8946355,10.0165619 15.7973411,10.1131836 L15.1353684,10.7701324 L15.1353684,11.7798262 Z" id="Shape" fill="#009B64"></path>
                <path d="M16.7737973,10.8363009 L17.1233411,10.6146432 L16.5020624,10.0862164 C16.4080156,10.0061696 16.2881209,9.96216696 16.1642495,9.96216696 C16.0265926,9.96216696 15.8945029,10.0164304 15.7972086,10.1130521 L15.1352359,10.7700009 L15.1352359,10.9719923 L16.1527173,10.7700009 L16.3325926,10.859256 C16.4736296,10.9292393 16.6411111,10.9204256 16.7737973,10.8363009 Z" id="Shape" fill="#F5F5F5"></path>
                <polygon id="Shape" fill="#5AA0E6" points="15.1353684 11.7798262 15.3388382 12.9915113 16.3563197 14.0013366 16.9668616 14.0013366 17.780807 13.799411 18.594885 12.9915113 18.7983548 11.7798262"></polygon>
                <path d="M16.9668616,14.2032622 C15.7325224,14.2032622 14.7283626,12.7536732 14.7283626,10.9719265 C14.7283626,9.19017976 15.7325224,7.74059077 16.9668616,7.74059077 C18.2012008,7.74059077 19.2053606,9.19017976 19.2053606,10.9719265 C19.2053606,12.7536732 18.2012008,14.2032622 16.9668616,14.2032622 Z M16.9668616,8.14463929 C15.9570682,8.14463929 15.1353684,9.41302143 15.1353684,10.972058 C15.1353684,12.5310946 15.9570019,13.7994768 16.9668616,13.7994768 C17.9767212,13.7994768 18.7983548,12.5310946 18.7983548,10.972058 C18.7983548,9.41302143 17.976655,8.14463929 16.9668616,8.14463929 Z" id="Shape" fill="#FFC88C"></path>
                <g id="Group" transform="translate(14.050682, 13.549405)" fill="#E1E1E1">
                    <path d="M1.4805575,0.433778274 C1.30996101,0.200018155 1.0559883,0.048014881 0.768346979,0.048014881 C0.480705653,0.048014881 0.226732943,0.200018155 0.0561364522,0.433778274 C0.347091618,0.513825 0.585157895,0.748242857 0.697894737,1.05724821 C0.743294347,1.18169226 0.768413255,1.31823869 0.768413255,1.46175714 C0.768346979,0.962139286 1.07249123,0.546054167 1.4805575,0.433778274 Z" id="Shape"></path>
                    <path d="M1.11405458,1.07210964 C1.11405458,1.07210964 1.08898114,1.40851063 0.868670611,1.56619345 L0.859438551,1.56027727 C0.639232928,1.40259444 0.614054581,1.06619345 0.614054581,1.06619345 L1.11405458,1.07210964 Z" id="Shape"></path>
                </g>
                <path d="M19.5118908,15.0062164 L14.4218324,15.0062164 C14.3662924,15.0062164 14.3213567,14.89563 14.3213567,14.7593108 L14.3213567,14.7531219 C14.3213567,14.6166398 14.3663587,14.5062164 14.4218324,14.5062164 L19.5118908,14.5062164 C19.5674308,14.5062164 19.6123665,14.6168027 19.6123665,14.7531219 L19.6123665,14.7593108 C19.6123665,14.89563 19.5674308,15.0062164 19.5118908,15.0062164 Z" id="Shape" fill="#966446"></path>
                <path d="M17.9893801,15.0110961 L15.9443431,15.0110961 C15.7223158,15.0110961 15.542308,14.8324545 15.542308,14.6121122 L15.542308,14.6021804 C15.542308,14.3818381 15.7223158,14.2031964 15.9443431,14.2031964 L17.9893801,14.2031964 C18.2114074,14.2031964 18.3914152,14.3818381 18.3914152,14.6021804 L18.3914152,14.6121122 C18.3913489,14.8324545 18.2113411,15.0110961 17.9893801,15.0110961 Z" id="Shape" fill="#BE915A"></path>
                <path d="M15.1353684,14.5062164 L14.4231579,14.5062164 C14.3670214,14.5062164 14.321423,14.6181056 14.321423,14.7562164 C14.321423,14.8943271 14.3669552,15.0062164 14.4231579,15.0062164 L15.1353684,15.0062164 L15.1353684,14.5062164 Z" id="Shape" fill="#B9B9B9"></path>
                <polygon id="Shape" fill="#FF4B55" points="16.9668616 15.0110961 16.9668616 16.8563146 16.1529162 16.626764 16.5598558 15.0110961"></polygon>
                <polygon id="Shape" fill="#41479B" points="16.7633255 15.0110961 16.3563197 16.4248384 15.5423743 16.222847 16.1529162 15.0110961"></polygon>
                <polygon id="Shape" fill="#FFE15A" points="15.9493801 15.0110961 15.3388382 15.8189301 15.9493801 16.0208557 16.3563197 15.0110961"></polygon>
                <polygon id="Shape" fill="#FF4B55" points="16.9668616 15.0110961 16.9668616 16.8563146 17.780807 16.626764 17.3738674 15.0110961"></polygon>
                <polygon id="Shape" fill="#41479B" points="17.1703977 15.0110961 17.5774035 16.4248384 18.3913489 16.222847 17.780807 15.0110961"></polygon>
                <polygon id="Shape" fill="#FFE15A" points="17.9843431 15.0110961 18.594885 15.8189301 17.9843431 16.0208557 17.5774035 15.0110961"></polygon>
                <g id="Group" transform="translate(12.526316, 8.747917)" fill="#41479B">
                    <polygon id="Shape" points="0.520810916 1.7418878 0.0208109162 1.44932589 0.0208109162 0.00236785714 0.520810916 0.00236785714"></polygon>
                    <polygon id="Shape" points="9.06508382 1.44932589 8.56508382 1.7418878 8.56508382 0.00236785714 9.06508382 0.00236785714"></polygon>
                </g>
            </g>
        </g>
    </g>
</svg>