<?xml version="1.0" encoding="UTF-8"?>
<svg width="34px" height="23px" viewBox="0 0 34 23" version="1.1" xmlns="http://www.w3.org/2000/svg" xmlns:xlink="http://www.w3.org/1999/xlink">
    <!-- Generator: Sketch 50 (54983) - http://www.bohemiancoding.com/sketch -->
    <title>mexico</title>
    <desc>Created with Sketch.</desc>
    <defs></defs>
    <g id="Page-1" stroke="none" stroke-width="1" fill="none" fill-rule="evenodd">
        <g id="Indice-de-Empresas---Desktop" transform="translate(-763.000000, -598.000000)" fill-rule="nonzero">
            <g id="mexico" transform="translate(763.000000, 598.000000)">
                <path d="M11.3333555,22.0816491 L0.586234375,22.0816491 C0.262503906,22.0816491 0,21.8216452 0,21.5009979 L0,0.598541667 C0,0.277894345 0.262503906,0.0178904762 0.586234375,0.0178904762 L11.3333555,0.0178904762 L11.3333555,22.0816491 Z" id="Shape" fill="#73AF00"></path>
                <rect id="Rectangle-path" fill="#F5F5F5" x="11.3335547" y="0.0182193452" width="11.3335547" height="22.0638244"></rect>
                <path d="M33.4137656,22.0816491 L22.6666445,22.0816491 L22.6666445,0.01795625 L33.4137656,0.01795625 C33.7374961,0.01795625 34,0.277960119 34,0.59860744 L34,21.5010637 C34,21.8217768 33.7374961,22.0816491 33.4137656,22.0816491 Z" id="Shape" fill="#FF4B55"></path>
                <polygon id="Shape" fill="#FFD250" points="18.0110352 11.5691527 17 12.0699545 17 12.5706905 17.5055508 12.5706905"></polygon>
                <g id="Group" transform="translate(14.210938, 11.313095)" fill="#00C3A0">
                    <path d="M2.7890625,2.50933661 C2.64934375,2.50933661 2.53625391,2.39732381 2.53625391,2.25893571 L2.53625391,1.25752946 C2.53625391,1.11914137 2.64934375,1.00712857 2.7890625,1.00712857 C2.92878125,1.00712857 3.04187109,1.11914137 3.04187109,1.25752946 L3.04187109,2.25893571 C3.04187109,2.39732381 2.92878125,2.50933661 2.7890625,2.50933661 Z" id="Shape"></path>
                    <path d="M2.7890625,1.50793036 C1.79622266,1.50793036 0.837515625,1.12848125 0.0893828125,0.439500595 C-0.0128164063,0.345378274 -0.0187265625,0.186929167 0.076234375,0.0857690476 C0.171992187,-0.01519375 0.331765625,-0.0205872024 0.433367187,0.0727458333 C1.08773437,0.67543125 1.92432031,1.00719435 2.78899609,1.00719435 C3.65367188,1.00719435 4.49025781,0.67543125 5.144625,0.0727458333 C5.24655859,-0.0208502976 5.40626563,-0.0157199405 5.50175781,0.0857690476 C5.59678516,0.18699494 5.590875,0.345444048 5.48860938,0.439500595 C4.74060937,1.12854702 3.78190234,1.50793036 2.7890625,1.50793036 Z" id="Shape"></path>
                </g>
                <path d="M17,13.8224318 C16.3520078,13.8224318 15.7243359,13.6349107 15.1847188,13.2799295 L15.4646211,12.862792 C16.3769766,13.4632411 17.6230234,13.4632411 18.5353125,12.862792 L18.8152148,13.2799295 C18.2756641,13.6349765 17.6479922,13.8224318 17,13.8224318 Z" id="Shape" fill="#00AADC"></path>
                <polygon id="Shape" fill="#732D37" points="16.5997695 10.4425131 16.041625 11.298033 15.9467969 11.5796107 17.4002305 11.2458086"></polygon>
                <path d="M15.453,11.8548083 C14.7848203,11.8548083 13.9827656,11.2978357 13.77,10.0568155 L14.2686445,9.97321696 C14.445418,11.005208 15.0863711,11.3547958 15.4712617,11.353875 C15.5892656,11.3506521 15.7123828,11.3103327 15.7220781,11.2277208 C15.7334336,11.1289286 15.7361562,11.1055131 15.471793,11.0169815 C15.3280898,10.9687693 15.1651953,10.9143086 15.0509102,10.7847342 C14.5885234,10.2617667 15.2145352,9.70828006 15.5152891,9.44229077 C15.5683477,9.39532827 15.5903281,9.35546935 15.5846836,9.34034137 C15.5681484,9.29752262 15.4689375,9.23280119 15.3571094,9.23280119 C15.0359687,9.23280119 14.7923242,9.05310714 14.7215352,8.76409702 C14.647957,8.46482619 14.7869453,8.14944077 15.0515742,8.0140125 L15.2836641,8.45897232 C15.2216406,8.49074107 15.1970703,8.58118006 15.2128086,8.64576994 C15.2189844,8.67168482 15.2340586,8.73206518 15.3572422,8.73206518 C15.6667617,8.73206518 15.9612734,8.91300893 16.0570313,9.16189702 C16.0980039,9.26799018 16.1596953,9.54377976 15.852168,9.81588601 C15.5201367,10.1095661 15.3214492,10.3305661 15.4315508,10.4550101 C15.4564531,10.4830955 15.5633672,10.5190738 15.633957,10.5425551 C15.8615312,10.6188527 16.2851367,10.760661 16.2244414,11.2850756 C16.1863906,11.6148655 15.8892227,11.8436926 15.4854063,11.8545452 C15.4745156,11.8545452 15.463625,11.8548083 15.453,11.8548083 Z" id="Shape" fill="#AAD264"></path>
                <path d="M17.5055508,9.06560417 C17.5055508,9.06560417 18.0111016,8.06419792 17,7.5634619 C17,7.5634619 20.5387227,7.06272589 20.0331719,11.5692185 L20.0329727,11.5690211 C19.701207,11.3061232 19.2086055,10.8256455 19.0326953,10.4425789 L17.5055508,9.5662744 L17.5055508,9.06560417 Z" id="Shape" fill="#874150"></path>
                <path d="M17,10.0670104 L19.5276211,11.5691527 C19.5276211,11.5691527 19.5276211,11.5691527 18.5165859,12.0698887 L17,10.5678122 L17,10.0670104 Z" id="Shape" fill="#732D37"></path>
                <path d="M15.9889648,8.56486815 C16.2681367,8.56486815 16.4945156,8.78909107 16.4945156,9.06560417 L16.4939844,9.06613036 C16.1923672,9.364875 16.1176602,9.82114792 16.3083789,10.1990185 L16.4225977,10.4253461 C16.4702109,10.5196658 16.5328984,10.6058295 16.6082031,10.680417 L18.011168,12.0700202 L18.011168,11.378014 C18.011168,10.5159167 17.8085625,9.66565863 17.4192891,8.89459226 C17.1623633,8.3857003 16.6372227,8.06419792 16.0628086,8.06419792 L15.9890313,8.06419792 L15.9890313,8.5649997 L15.9889648,8.5649997 L15.9889648,8.56486815 Z" id="Shape" fill="#783C46"></path>
                <path d="M15.9889648,8.06413214 L15.4834141,8.56486815 L15.4834141,9.06560417 C15.4834141,9.06560417 16.0847891,8.76363661 16.2874609,8.66740952 C16.4291055,8.60018869 16.4033398,8.44121339 16.3220586,8.3645869 C16.2587734,8.30499583 15.9889648,8.06413214 15.9889648,8.06413214 Z" id="Shape" fill="#FFD250"></path>
                <path d="M17,14.8238381 C14.6305586,14.8238381 12.7029844,12.9146217 12.7029844,10.5677464 L13.2085352,10.5677464 C13.2085352,12.6386348 14.9092656,14.3231679 17.0000664,14.3231679 C19.0908672,14.3231679 20.7915977,12.6386348 20.7915977,10.5677464 L21.2971484,10.5677464 C21.2970156,12.9146217 19.3694414,14.8238381 17,14.8238381 Z" id="Shape" fill="#AAD264"></path>
                <g id="Group" transform="translate(12.882812, 11.707738)" fill="#FFE15A">
                    <ellipse id="Oval" cx="0.35328125" cy="0.34583869" rx="1" ry="1"></ellipse>
                    <ellipse id="Oval" cx="1.11164063" cy="1.5454872" rx="1" ry="1"></ellipse>
                    <ellipse id="Oval" cx="2.34347656" cy="2.45257381" rx="1" ry="1"></ellipse>
                    <ellipse id="Oval" cx="7.91761719" cy="0.34583869" rx="1" ry="1"></ellipse>
                    <ellipse id="Oval" cx="7.15859375" cy="1.5454872" rx="1" ry="1"></ellipse>
                    <ellipse id="Oval" cx="5.92675781" cy="2.45257381" rx="1" ry="1"></ellipse>
                </g>
                <path d="M17.2528086,14.072767 L16.7472578,14.072767 C16.4680859,14.072767 16.241707,13.848544 16.241707,13.572031 C16.241707,13.2955179 16.4680859,13.0712949 16.7472578,13.0712949 L17.2528086,13.0712949 C17.5319805,13.0712949 17.7583594,13.2955179 17.7583594,13.572031 C17.7583594,13.8486098 17.5319805,14.072767 17.2528086,14.072767 Z" id="Shape" fill="#FFB478"></path>
                <path d="M19.0326953,10.4425131 C19.2012344,10.9327911 19.5592969,11.3813685 20.0329727,11.5689554 L20.0331719,11.5691527 C20.5387227,7.06279167 17,7.5634619 17,7.5634619 C19.5276211,7.5634619 19.0326953,10.4425131 19.0326953,10.4425131 Z" id="Shape" fill="#9B4B5A"></path>
            </g>
        </g>
    </g>
</svg>