<?xml version="1.0" encoding="UTF-8"?>
<svg width="34px" height="23px" viewBox="0 0 34 23" version="1.1" xmlns="http://www.w3.org/2000/svg" xmlns:xlink="http://www.w3.org/1999/xlink">
    <!-- Generator: Sketch 50 (54983) - http://www.bohemiancoding.com/sketch -->
    <title>panama</title>
    <desc>Created with Sketch.</desc>
    <defs></defs>
    <g id="Page-1" stroke="none" stroke-width="1" fill="none" fill-rule="evenodd">
        <g id="Indice-de-Empresas---Desktop" transform="translate(-1004.000000, -598.000000)" fill-rule="nonzero">
            <g id="panama" transform="translate(1004.000000, 598.000000)">
                <path d="M33.3486316,22.0819122 L0.585091618,22.0819122 C0.261992203,22.0819122 0,21.8219083 0,21.501261 L0,0.598804762 C0,0.27815744 0.261992203,0.0181535714 0.585091618,0.0181535714 L33.3486979,0.0181535714 C33.6717973,0.0181535714 33.9337895,0.27815744 33.9337895,0.598804762 L33.9337895,21.501261 C33.9337232,21.8219741 33.671731,22.0819122 33.3486316,22.0819122 Z" id="Shape" fill="#F5F5F5"></path>
                <path d="M16.9668616,11.0500658 L33.3486316,11.0500658 C33.671731,11.0500658 33.9337232,10.7900619 33.9337232,10.4694146 L33.9337232,0.598804762 C33.9337232,0.27815744 33.671731,0.0181535714 33.3486316,0.0181535714 L17.5519532,0.0181535714 C17.2288538,0.0181535714 16.9668616,0.27815744 16.9668616,0.598804762 L16.9668616,11.0500658 Z" id="Shape" fill="#FF4B55"></path>
                <g id="Group" transform="translate(0.000000, 2.894048)" fill="#4173CD">
                    <path d="M0.585091618,19.1878646 L16.3818363,19.1878646 C16.7049357,19.1878646 16.9669279,18.9278607 16.9669279,18.6072134 L16.9669279,8.15601815 L0.585091618,8.15601815 C0.261992203,8.15601815 0,8.41602202 0,8.73666935 L0,18.6072792 C0,18.9279265 0.261992203,19.1878646 0.585091618,19.1878646 Z" id="Shape"></path>
                    <path d="M8.70877193,0.163645238 L9.2665575,1.82338155 L11.0295205,1.83693095 C11.2577778,1.83864107 11.3524211,2.12778274 11.168768,2.26229018 L9.750577,3.30158214 L10.2823158,4.9697375 C10.3511111,5.18573869 10.1033684,5.36431458 9.91766082,5.23263542 L8.4834308,4.2153119 L7.0491345,5.23270119 C6.8634269,5.36444613 6.61568421,5.18573869 6.68447953,4.96980327 L7.21621832,3.30164792 L5.79802729,2.26235595 C5.61437427,2.12778274 5.70901754,1.83870685 5.93727485,1.83699673 L7.70023782,1.82344732 L8.25802339,0.163711012 C8.33026511,-0.0512377976 8.63659649,-0.0512377976 8.70877193,0.163645238 Z" id="Shape"></path>
                </g>
                <path d="M25.6756335,14.0895393 L26.2334191,15.7492756 L27.9963821,15.762825 C28.2246394,15.7645351 28.3192827,16.0536768 28.1356296,16.1881842 L26.7174386,17.2274762 L27.2491774,18.8956315 C27.3179727,19.1116327 27.07023,19.2902086 26.8845224,19.1585295 L25.4502924,18.141206 L24.0159961,19.1585952 C23.8302885,19.2903402 23.5825458,19.1116327 23.6513411,18.8956973 L24.1830799,17.227542 L22.7648889,16.18825 C22.5812359,16.0536768 22.6758791,15.7646009 22.9041365,15.7628908 L24.6670994,15.7493414 L25.224885,14.0896051 C25.2971267,13.8746562 25.6034581,13.8746562 25.6756335,14.0895393 Z" id="Shape" fill="#FF4B55"></path>
            </g>
        </g>
    </g>
</svg>