<?xml version="1.0" encoding="UTF-8"?>
<svg width="34px" height="23px" viewBox="0 0 34 23" version="1.1" xmlns="http://www.w3.org/2000/svg" xmlns:xlink="http://www.w3.org/1999/xlink">
    <!-- Generator: Sketch 50 (54983) - http://www.bohemiancoding.com/sketch -->
    <title>uruguay</title>
    <desc>Created with Sketch.</desc>
    <defs></defs>
    <g id="Page-1" stroke="none" stroke-width="1" fill="none" fill-rule="evenodd">
        <g id="Indice-de-Empresas---Desktop" transform="translate(-884.000000, -598.000000)" fill-rule="nonzero">
            <g id="uruguay" transform="translate(884.000000, 598.000000)">
                <path d="M33.3486316,0.0181535714 L0.585091618,0.0181535714 C0.261992203,0.0181535714 0,0.278091667 0,0.598738988 L0,21.5011952 C0,21.8218426 0.261992203,22.0818464 0.585091618,22.0818464 L33.3486979,22.0818464 C33.6717973,22.0818464 33.9337895,21.8218426 33.9337895,21.5011952 L33.9337895,0.598738988 C33.9337232,0.278091667 33.671731,0.0181535714 33.3486316,0.0181535714 Z" id="Shape" fill="#F5F5F5"></path>
                <rect id="Rectangle-path" fill="#4173CD" x="12.2863938" y="2.46980655" width="21.6473294" height="2.45138988"></rect>
                <rect id="Rectangle-path" fill="#F5F5F5" x="0" y="4.92119643" width="33.9337232" height="2.45138988"></rect>
                <rect id="Rectangle-path" fill="#4173CD" x="12.2863938" y="7.37258631" width="21.6473294" height="2.45138988"></rect>
                <rect id="Rectangle-path" fill="#F5F5F5" x="0" y="9.82397619" width="33.9337232" height="2.45138988"></rect>
                <rect id="Rectangle-path" fill="#4173CD" x="0" y="12.2760896" width="33.9337232" height="2.45138988"></rect>
                <rect id="Rectangle-path" fill="#F5F5F5" x="0" y="14.7274137" width="33.9337232" height="2.45138988"></rect>
                <rect id="Rectangle-path" fill="#4173CD" x="0" y="17.1788036" width="33.9337232" height="2.45138988"></rect>
                <polygon id="Shape" fill="#FFE15A" points="4.24012476 1.5550244 5.21883431 6.04954613 6.7502924 5.41995923"></polygon>
                <polygon id="Shape" fill="#FFCD5A" points="4.24012476 1.5550244 5.98453021 5.73475268 5.21883431 6.04954613"></polygon>
                <polygon id="Shape" fill="#FFE15A" points="8.04626901 10.6743658 7.06749318 6.17984405 5.53603509 6.80943095"></polygon>
                <polygon id="Shape" fill="#FFCD5A" points="8.04626901 10.6743658 6.30179727 6.4946375 7.06749318 6.17984405"></polygon>
                <polygon id="Shape" fill="#FFE15A" points="10.7377037 4.22609881 6.20887719 5.19738065 6.84321248 6.71721607"></polygon>
                <polygon id="Shape" fill="#FFCD5A" points="10.7377037 4.22609881 6.5260117 5.95726548 6.20887719 5.19738065"></polygon>
                <polygon id="Shape" fill="#FFE15A" points="1.54869006 8.00329137 6.07751657 7.03200952 5.44311501 5.51217411"></polygon>
                <polygon id="Shape" fill="#FFCD5A" points="1.54869006 8.00329137 5.76031579 6.2721247 6.07751657 7.03200952"></polygon>
                <polygon id="Shape" fill="#FFE15A" points="8.04626901 1.5550244 5.53603509 5.41995923 7.06749318 6.04954613"></polygon>
                <polygon id="Shape" fill="#FFCD5A" points="8.04626901 1.5550244 6.30179727 5.73475268 5.53603509 5.41995923"></polygon>
                <polygon id="Shape" fill="#FFE15A" points="4.24012476 10.6743658 6.7502924 6.80943095 5.21883431 6.17984405"></polygon>
                <polygon id="Shape" fill="#FFCD5A" points="4.24012476 10.6743658 5.98453021 6.4946375 6.7502924 6.80943095"></polygon>
                <polygon id="Shape" fill="#FFE15A" points="10.7377037 8.00329137 6.84321248 5.51217411 6.20887719 7.03200952"></polygon>
                <polygon id="Shape" fill="#FFCD5A" points="10.7377037 8.00329137 6.5260117 6.2721247 6.84321248 5.51217411"></polygon>
                <polygon id="Shape" fill="#FFE15A" points="1.54869006 4.22609881 5.44311501 6.71721607 6.07751657 5.19738065"></polygon>
                <polygon id="Shape" fill="#FFCD5A" points="1.54869006 4.22609881 5.76031579 5.95726548 5.44311501 6.71721607"></polygon>
                <polygon id="Shape" fill="#FFE15A" points="6.14319688 1.17939018 5.31433918 5.70337857 6.9719883 5.70337857"></polygon>
                <polygon id="Shape" fill="#FFCD5A" points="6.14319688 1.17939018 6.14319688 5.70337857 5.31433918 5.70337857"></polygon>
                <polygon id="Shape" fill="#FFE15A" points="6.14319688 11.05 6.9719883 6.52601161 5.31433918 6.52601161"></polygon>
                <polygon id="Shape" fill="#FFCD5A" points="6.14319688 11.05 6.14319688 6.52601161 6.9719883 6.52601161"></polygon>
                <polygon id="Shape" fill="#FFE15A" points="11.1162105 6.11472798 6.55762573 5.29216071 6.55762573 6.93722946"></polygon>
                <polygon id="Shape" fill="#FFCD5A" points="11.1162105 6.11472798 6.55762573 6.11472798 6.55762573 5.29216071"></polygon>
                <polygon id="Shape" fill="#FFE15A" points="1.17011696 6.11472798 5.72870175 6.93722946 5.72870175 5.29216071"></polygon>
                <polygon id="Shape" fill="#FFCD5A" points="1.17011696 6.11472798 5.72870175 6.11472798 5.72870175 6.93722946"></polygon>
                <polygon id="Shape" fill="#FFE15A" points="9.65964522 2.62490119 5.85012086 5.24223839 7.0222924 6.40551399"></polygon>
                <polygon id="Shape" fill="#FFCD5A" points="9.65964522 2.62490119 6.43620663 5.82387619 5.85012086 5.24223839"></polygon>
                <polygon id="Shape" fill="#FFE15A" points="2.62674854 9.60448899 6.43620663 6.98715179 5.26403509 5.82387619"></polygon>
                <polygon id="Shape" fill="#FFCD5A" points="2.62674854 9.60448899 5.85012086 6.40551399 6.43620663 6.98715179"></polygon>
                <polygon id="Shape" fill="#FFE15A" points="9.65964522 9.60448899 7.0222924 5.82387619 5.85012086 6.98715179"></polygon>
                <polygon id="Shape" fill="#FFCD5A" points="9.65964522 9.60448899 6.43620663 6.40551399 7.0222924 5.82387619"></polygon>
                <polygon id="Shape" fill="#FFE15A" points="2.62674854 2.62490119 5.26403509 6.40551399 6.43620663 5.24223839"></polygon>
                <polygon id="Shape" fill="#FFCD5A" points="2.62674854 2.62490119 5.85012086 5.82387619 5.26403509 6.40551399"></polygon>
                <ellipse id="Oval" fill="#FFE15A" cx="6.14319688" cy="6.11499107" rx="1.65758285" ry="1.64500298"></ellipse>
            </g>
        </g>
    </g>
</svg>