<?xml version="1.0" encoding="UTF-8"?>
<svg width="34px" height="23px" viewBox="0 0 34 23" version="1.1" xmlns="http://www.w3.org/2000/svg" xmlns:xlink="http://www.w3.org/1999/xlink">
    <!-- Generator: Sketch 50 (54983) - http://www.bohemiancoding.com/sketch -->
    <title>venezuela</title>
    <desc>Created with Sketch.</desc>
    <defs></defs>
    <g id="Page-1" stroke="none" stroke-width="1" fill="none" fill-rule="evenodd">
        <g id="Indice-de-Empresas---Desktop" transform="translate(-1246.000000, -598.000000)" fill-rule="nonzero">
            <g id="venezuela" transform="translate(1246.000000, 598.000000)">
                <path d="M33.9337895,7.37278363 L0,7.37278363 L0,0.598804762 C0,0.27815744 0.261992203,0.0181535714 0.585091618,0.0181535714 L33.3486979,0.0181535714 C33.6717973,0.0181535714 33.9337895,0.27815744 33.9337895,0.598804762 L33.9337895,7.37278363 Z" id="Shape" fill="#FFE15A"></path>
                <path d="M33.3486316,22.0819122 L0.585091618,22.0819122 C0.261992203,22.0819122 0,21.8219083 0,21.501261 L0,14.7273479 L33.9337232,14.7273479 L33.9337232,21.501261 C33.9337232,21.8219741 33.671731,22.0819122 33.3486316,22.0819122 Z" id="Shape" fill="#FF4B55"></path>
                <rect id="Rectangle-path" fill="#41479B" x="0" y="7.37265208" width="33.9337232" height="7.35416964"></rect>
                <g id="Group" transform="translate(11.001949, 8.090179)" fill="#F5F5F5">
                    <path d="M0.80460039,4.37382679 L0.951204678,4.81010446 L1.41454581,4.81365625 C1.47452632,4.81411667 1.49944639,4.89008542 1.45119688,4.92547173 L1.07845614,5.19863036 L1.21823392,5.63714435 C1.23632749,5.69390714 1.17117739,5.74086964 1.12233138,5.70620685 L0.745348928,5.43877054 L0.368366472,5.70620685 C0.319586745,5.74080387 0.254436647,5.69384137 0.272463938,5.63714435 L0.412241715,5.19863036 L0.0395009747,4.92547173 C-0.00874853801,4.89015119 0.0161052632,4.81411667 0.0761520468,4.81365625 L0.539493177,4.81010446 L0.686097466,4.37382679 C0.705118908,4.31739286 0.785645224,4.31739286 0.80460039,4.37382679 Z" id="Shape"></path>
                    <path d="M1.70483821,2.9850128 L1.62630019,3.43826012 L2.03297466,3.65873393 C2.08559844,3.68727976 2.07134893,3.76594524 2.01196491,3.77443006 L1.55332943,3.84033542 L1.46769981,4.29226726 C1.4565653,4.35074018 1.37690058,4.36165863 1.35032359,4.3082503 L1.14546199,3.89571696 L0.685832359,3.95458452 C0.626315789,3.96221429 0.591255361,3.89025774 0.634269006,3.84868869 L0.966315789,3.52784405 L0.767883041,3.11228512 C0.742233918,3.05848214 0.800292398,3.00316637 0.853380117,3.03092292 L1.2634347,3.24514821 L1.60045224,2.92943393 C1.64406238,2.88858839 1.71497856,2.92634256 1.70483821,2.9850128 Z" id="Shape"></path>
                    <path d="M2.84413645,1.7695128 L2.62661598,2.1756003 L2.94335283,2.51124405 C2.98437817,2.55472054 2.94607018,2.62496696 2.88695127,2.6145747 L2.43050292,2.53479107 L2.20668616,2.93752411 C2.1777232,2.98961696 2.09852242,2.9752125 2.09017154,2.91627917 L2.02561793,2.46086131 L1.57049513,2.37403988 C1.51157505,2.36279256 1.50097076,2.28360089 1.55492008,2.25748869 L1.97140351,2.05582619 L1.91394152,1.5994875 C1.90645224,1.54042262 1.97909162,1.50595714 2.02077973,1.54877589 L2.34275244,1.87948661 L2.7622846,1.68426994 C2.81676413,1.6590128 2.87223782,1.71689375 2.84413645,1.7695128 Z" id="Shape"></path>
                    <path d="M4.21507212,1.0153503 L3.89535283,1.34829732 L4.10929435,1.75622649 C4.13699805,1.80904286 4.08099415,1.86646339 4.026846,1.84068006 L3.60903704,1.64171429 L3.28408187,1.9696625 C3.24206238,2.01215238 3.16968811,1.97696339 3.17764133,1.91796429 L3.2391462,1.46208601 L2.82445224,1.25674018 C2.77076803,1.23016756 2.78203509,1.15104167 2.84102144,1.14032054 L3.29687329,1.05751131 L3.36546979,0.602685417 C3.37435088,0.543817857 3.45368421,0.530005357 3.48218324,0.582427083 L3.70235478,0.98706756 L4.15946589,0.911296131 C4.21878363,0.901627381 4.25642885,0.972268452 4.21507212,1.0153503 Z" id="Shape"></path>
                    <path d="M5.7908694,0.665894048 L5.39294347,0.901627381 L5.48891228,1.35152024 C5.50137232,1.40979583 5.43184795,1.45024673 5.38671345,1.41104554 L5.03789864,1.10835446 L4.63632749,1.33790506 C4.58430019,1.36763482 4.52412086,1.31462113 4.54778168,1.25983155 L4.73010916,0.836971726 L4.386,0.528952976 C4.34146199,0.489094048 4.37373879,0.415887798 4.43345419,0.42128125 L4.89500585,0.462652976 L5.08389474,0.0426872024 C5.10835088,-0.0116419643 5.18847953,-0.00388065476 5.20180117,0.0541318452 L5.30479532,0.502511905 L5.76561793,0.550987202 C5.82506823,0.557367262 5.84243275,0.635375 5.7908694,0.665894048 Z" id="Shape"></path>
                    <path d="M11.1252242,4.37382679 L10.9786199,4.81010446 L10.5152788,4.81365625 C10.4552982,4.81411667 10.4303782,4.89008542 10.4786277,4.92547173 L10.8513684,5.19863036 L10.7115906,5.63714435 C10.6934971,5.69390714 10.7586472,5.74086964 10.8074932,5.70620685 L11.1844756,5.43877054 L11.5614581,5.70620685 C11.6102378,5.74080387 11.6753879,5.69384137 11.6573606,5.63714435 L11.5175828,5.19863036 L11.8903236,4.92547173 C11.9385731,4.89015119 11.9137193,4.81411667 11.8536725,4.81365625 L11.3903314,4.81010446 L11.2437271,4.37382679 C11.2247057,4.31739286 11.1441793,4.31739286 11.1252242,4.37382679 Z" id="Shape"></path>
                    <path d="M10.2249864,2.9850128 L10.3035244,3.43826012 L9.8968499,3.65873393 C9.84422612,3.68727976 9.85847563,3.76594524 9.91785965,3.77443006 L10.3764951,3.84033542 L10.4621248,4.29226726 C10.4732593,4.35074018 10.5529903,4.36165863 10.579501,4.3082503 L10.7843626,3.89571696 L11.2439922,3.95458452 C11.3035088,3.96221429 11.3385692,3.89025774 11.2955556,3.84868869 L10.9635088,3.52784405 L11.1619415,3.11228512 C11.1875906,3.05848214 11.1295322,3.00316637 11.0764444,3.03092292 L10.6663899,3.24514821 L10.3293723,2.92943393 C10.2857622,2.88858839 10.214846,2.92634256 10.2249864,2.9850128 Z" id="Shape"></path>
                    <path d="M9.08568811,1.7695128 L9.30320858,2.1756003 L8.98647173,2.51124405 C8.94544639,2.55472054 8.98375439,2.62496696 9.04287329,2.6145747 L9.49932164,2.53479107 L9.7231384,2.93752411 C9.75210136,2.98961696 9.83130214,2.9752125 9.83965302,2.91627917 L9.90420663,2.46086131 L10.3593294,2.37403988 C10.4182495,2.36279256 10.4288538,2.28360089 10.3749045,2.25748869 L9.95842105,2.05582619 L10.015883,1.5994875 C10.0233723,1.54042262 9.95073294,1.50595714 9.90904483,1.54877589 L9.58707212,1.87948661 L9.16753996,1.68426994 C9.11306043,1.6590128 9.05758674,1.71689375 9.08568811,1.7695128 Z" id="Shape"></path>
                    <path d="M7.71475244,1.0153503 L8.03447173,1.34829732 L7.82053021,1.75622649 C7.79282651,1.80904286 7.84883041,1.86646339 7.90297856,1.84068006 L8.32078752,1.64171429 L8.64574269,1.9696625 C8.68776218,2.01215238 8.76013645,1.97696339 8.75211696,1.91796429 L8.69061209,1.46208601 L9.10530604,1.25674018 C9.15899025,1.23016756 9.1477232,1.15104167 9.08873684,1.14032054 L8.63288499,1.05751131 L8.5642885,0.602685417 C8.55540741,0.543817857 8.47607407,0.530005357 8.44757505,0.582427083 L8.22740351,0.98706756 L7.7702924,0.911296131 C7.71104094,0.901627381 7.67339571,0.972268452 7.71475244,1.0153503 Z" id="Shape"></path>
                    <path d="M6.13895517,0.665894048 L6.53688109,0.901627381 L6.44091228,1.35152024 C6.42845224,1.40979583 6.49797661,1.45024673 6.54311111,1.41104554 L6.89192593,1.10835446 L7.29349708,1.33790506 C7.34552437,1.36763482 7.4057037,1.31462113 7.38204288,1.25983155 L7.1997154,0.836971726 L7.54382456,0.528952976 C7.58836257,0.489094048 7.55608577,0.415887798 7.49637037,0.42128125 L7.03481871,0.462652976 L6.84592982,0.0426872024 C6.82147368,-0.0116419643 6.74134503,-0.00388065476 6.72802339,0.0541318452 L6.62502924,0.502511905 L6.16420663,0.550987202 C6.10475634,0.557367262 6.08739181,0.635375 6.13895517,0.665894048 Z" id="Shape"></path>
                </g>
            </g>
        </g>
    </g>
</svg>